{"glyphs":{"0":{"ha":742,"x_min":61,"x_max":681,"o":"m 681 359 q 600 69 681 165 q 363 -27 518 -27 q 137 57 214 -27 q 61 326 61 142 q 143 623 61 515 q 380 730 226 730 q 605 634 529 730 q 681 359 681 538 m 513 316 q 479 520 513 440 q 365 600 444 600 q 231 371 231 600 q 266 169 231 235 q 378 104 300 104 q 513 316 513 104 z "},"1":{"ha":465,"x_min":34,"x_max":356,"o":"m 356 0 l 175 0 q 182 282 182 175 q 178 515 182 391 l 69 468 l 34 533 l 272 716 l 356 716 q 349 282 349 437 q 356 0 349 178 z "},"2":{"ha":666,"x_min":68,"x_max":598,"o":"m 598 145 l 584 0 l 68 0 l 82 136 q 368 456 368 296 q 183 590 368 590 q 78 581 134 590 l 91 707 q 258 722 150 722 q 469 663 397 722 q 542 502 542 604 q 447 283 542 374 q 247 144 353 191 l 247 135 q 598 145 397 135 z "},"3":{"ha":654,"x_min":27,"x_max":593,"o":"m 593 100 q 462 -139 593 -38 q 45 -271 312 -255 l 27 -157 q 309 -85 205 -146 q 417 76 417 -22 q 115 237 417 237 l 129 347 q 312 385 241 347 q 382 483 382 423 q 213 591 382 591 q 78 579 137 591 l 90 705 q 284 722 138 722 q 481 669 412 722 q 545 536 545 620 q 497 414 545 469 q 389 342 453 363 l 389 332 q 536 254 479 317 q 593 100 593 191 z "},"4":{"ha":745,"x_min":34,"x_max":684,"o":"m 684 235 l 670 87 l 562 87 q 570 -224 562 -39 l 391 -224 q 397 87 397 -52 l 48 87 l 34 216 q 209 463 34 228 q 385 715 383 699 l 570 715 q 562 229 562 488 q 684 235 622 229 m 414 568 l 404 568 q 288 397 404 554 q 172 230 172 239 l 172 221 q 402 224 258 221 q 414 568 407 414 z "},"5":{"ha":657,"x_min":61,"x_max":596,"o":"m 596 118 q 466 -124 596 -22 q 82 -248 323 -237 l 63 -137 q 321 -64 229 -124 q 414 87 414 -5 q 332 229 414 186 q 61 273 250 273 q 101 715 101 589 l 542 715 l 536 568 q 216 582 406 582 q 201 394 201 484 q 596 118 596 394 z "},"6":{"ha":734,"x_min":61,"x_max":673,"o":"m 673 284 q 596 72 673 160 q 368 -27 510 -27 q 157 56 240 -27 q 61 338 61 153 q 558 911 61 888 l 571 801 q 229 484 262 768 l 240 484 q 414 553 296 553 q 609 470 538 553 q 673 284 673 395 m 512 260 q 473 385 512 334 q 351 441 429 441 q 225 385 275 441 q 373 93 225 93 q 477 145 437 93 q 512 260 512 193 z "},"7":{"ha":646,"x_min":34,"x_max":598,"o":"m 598 715 q 509 384 598 586 q 345 46 427 215 q 256 -224 256 -138 l 75 -210 q 259 188 75 -128 q 443 579 443 503 q 34 566 303 579 l 40 715 l 598 715 z "},"8":{"ha":745,"x_min":61,"x_max":684,"o":"m 684 253 q 595 59 684 135 q 368 -16 506 -16 q 146 55 231 -16 q 61 238 61 125 q 106 385 61 319 q 246 493 155 456 l 246 504 q 112 712 112 582 q 189 868 112 807 q 382 927 266 927 q 566 872 495 927 q 637 730 637 817 q 603 612 637 666 q 497 525 565 553 l 497 514 q 684 253 684 418 m 514 240 q 344 448 514 372 q 256 375 290 428 q 222 260 222 321 q 264 147 222 189 q 372 104 307 104 q 474 142 434 104 q 514 240 514 180 m 493 706 q 460 791 493 760 q 375 823 427 823 q 292 796 324 823 q 260 725 260 769 q 401 557 260 624 q 493 706 493 604 z "},"9":{"ha":733,"x_min":61,"x_max":672,"o":"m 672 336 q 543 -104 672 54 q 164 -275 412 -264 l 145 -163 q 410 -38 317 -153 q 500 216 488 60 l 493 216 q 319 144 431 144 q 125 228 197 144 q 61 416 61 304 q 136 625 61 539 q 364 722 221 722 q 575 631 490 722 q 672 336 672 527 m 505 315 q 457 536 505 461 q 353 600 417 600 q 254 549 291 600 q 220 435 220 502 q 260 310 220 361 q 380 252 304 252 q 505 315 459 252 z "},"\u0000":{"ha":694,"x_min":0,"x_max":0,"o":""},"\r":{"ha":301,"x_min":0,"x_max":0,"o":""}," ":{"ha":301,"x_min":0,"x_max":0,"o":""},"A":{"ha":875,"x_min":7,"x_max":867,"o":"m 867 0 l 650 0 q 589 254 650 45 l 275 254 q 212 0 212 48 l 7 0 q 166 434 7 26 q 324 883 324 842 l 581 883 q 724 440 581 844 q 867 0 867 37 m 554 383 q 438 762 438 733 l 427 762 q 307 383 427 735 l 554 383 z "},"B":{"ha":830,"x_min":98,"x_max":778,"o":"m 778 266 q 336 -4 778 -4 q 98 0 260 -4 q 106 462 106 205 q 98 883 106 709 l 208 883 q 312 885 239 883 q 427 887 386 887 q 728 692 728 887 q 574 492 728 541 l 574 482 q 717 418 656 469 q 778 266 778 367 m 595 258 q 358 393 595 393 q 277 390 311 393 q 283 129 277 248 q 353 123 307 123 q 536 154 478 123 q 595 258 595 184 m 545 638 q 393 760 545 760 q 269 749 323 760 q 277 514 277 681 q 331 513 302 513 q 545 638 545 513 z "},"C":{"ha":767,"x_min":52,"x_max":730,"o":"m 730 161 l 718 5 q 528 -18 622 -18 q 174 110 296 -18 q 52 422 52 239 q 181 754 52 613 q 536 895 311 895 q 692 876 618 895 l 669 720 q 515 745 589 745 q 311 658 378 745 q 243 446 243 571 q 323 225 243 319 q 547 132 403 132 q 730 161 631 132 z "},"D":{"ha":896,"x_min":98,"x_max":844,"o":"m 844 472 q 720 136 844 279 q 374 -8 597 -8 q 98 0 274 -8 q 106 462 106 205 q 98 883 106 709 l 216 883 q 303 885 245 883 q 378 887 361 887 q 733 765 623 887 q 844 472 844 643 m 659 443 q 583 662 659 573 q 351 751 507 751 q 271 745 321 751 q 277 462 277 610 q 284 140 277 300 q 372 132 328 132 q 588 222 518 132 q 659 443 659 313 z "},"E":{"ha":732,"x_min":98,"x_max":680,"o":"m 680 149 l 675 0 l 98 0 q 106 462 106 205 q 98 883 106 709 l 648 883 l 641 734 q 272 745 437 745 q 279 523 279 651 q 582 530 420 523 l 582 389 q 279 395 423 395 q 284 138 279 258 q 680 149 470 138 z "},"F":{"ha":682,"x_min":98,"x_max":659,"o":"m 659 883 l 653 734 q 270 745 441 745 q 279 488 279 629 q 576 495 410 488 l 576 355 q 279 361 408 361 q 285 0 279 169 l 98 0 q 106 462 106 205 q 98 883 106 709 l 659 883 z "},"G":{"ha":863,"x_min":52,"x_max":796,"o":"m 796 23 q 526 -18 635 -18 q 173 110 293 -18 q 52 420 52 237 q 183 753 52 612 q 547 895 315 895 q 740 876 656 895 l 718 715 q 526 743 611 743 q 313 655 383 743 q 242 441 242 568 q 321 215 242 311 q 539 119 400 119 q 629 127 578 119 q 618 275 618 202 q 604 439 618 348 l 796 439 q 791 229 791 335 q 796 23 791 153 z "},"H":{"ha":907,"x_min":98,"x_max":810,"o":"m 810 0 l 618 0 q 625 389 625 224 l 283 389 q 290 0 283 241 l 98 0 q 106 462 106 224 q 98 883 106 703 l 290 883 q 281 530 281 692 l 626 530 q 618 883 626 673 l 810 883 q 800 462 800 711 q 810 0 800 202 z "},"I":{"ha":387,"x_min":98,"x_max":290,"o":"m 290 0 l 98 0 q 106 462 106 210 q 98 883 106 709 l 290 883 q 281 462 281 712 q 290 0 281 206 z "},"J":{"ha":555,"x_min":7,"x_max":472,"o":"m 472 883 q 464 384 464 681 q 371 63 464 158 q 126 -18 292 -18 q 7 -4 66 -18 l 20 142 q 111 121 65 121 q 239 160 199 121 q 297 370 297 216 q 287 883 297 680 l 472 883 z "},"K":{"ha":819,"x_min":98,"x_max":811,"o":"m 811 0 l 589 0 q 475 215 589 31 q 302 411 353 411 l 281 411 q 289 0 281 256 l 98 0 q 106 462 106 205 q 98 883 106 709 l 289 883 q 281 530 281 695 l 296 530 q 447 697 326 530 q 564 883 564 859 l 766 883 q 642 714 766 861 q 455 522 514 563 l 455 511 q 673 243 524 475 q 811 0 811 28 z "},"L":{"ha":674,"x_min":98,"x_max":667,"o":"m 667 148 l 661 0 l 98 0 q 106 462 106 184 q 98 883 106 717 l 288 883 q 280 462 280 729 q 271 138 280 258 q 667 148 458 138 z "},"M":{"ha":1200,"x_min":67,"x_max":1117,"o":"m 1117 0 l 920 0 q 905 389 920 115 q 890 730 891 663 l 880 730 q 844 580 873 690 q 735 256 815 470 q 654 0 654 42 l 505 0 q 428 258 505 43 q 327 559 351 473 q 289 730 303 646 l 279 730 q 262 367 278 646 q 246 0 246 88 l 67 0 q 116 408 67 20 q 165 883 165 795 l 428 883 q 511 548 428 807 q 594 216 594 289 l 604 216 q 699 549 604 290 q 793 883 793 808 l 1054 883 q 1085 382 1054 743 q 1117 0 1117 22 z "},"N":{"ha":923,"x_min":98,"x_max":825,"o":"m 825 0 l 658 0 q 471 294 658 28 q 249 677 276 574 l 238 677 q 255 408 255 528 q 264 0 255 241 l 98 0 q 108 462 108 210 q 98 883 108 709 l 299 883 q 467 596 299 847 q 671 235 645 330 l 682 235 q 665 506 665 386 q 656 883 665 690 l 825 883 q 816 462 816 715 q 825 0 816 207 z "},"O":{"ha":968,"x_min":52,"x_max":916,"o":"m 916 458 q 788 113 916 250 q 473 -24 661 -24 q 173 101 294 -24 q 52 421 52 227 q 180 766 52 629 q 495 903 307 903 q 795 778 674 903 q 916 458 916 652 m 728 438 q 656 668 728 580 q 477 756 583 756 q 309 667 378 756 q 239 443 239 578 q 312 213 239 302 q 491 125 385 125 q 659 214 590 125 q 728 438 728 303 z "},"P":{"ha":772,"x_min":98,"x_max":742,"o":"m 742 652 q 622 412 742 490 q 326 335 501 335 q 281 336 294 335 q 288 0 281 209 l 98 0 q 106 462 106 196 q 98 883 106 706 l 216 883 q 312 885 241 883 q 435 887 383 887 q 653 829 564 887 q 742 652 742 770 m 567 614 q 374 760 567 760 q 273 749 326 760 q 280 459 280 621 q 319 458 297 458 q 567 614 567 458 z "},"Q":{"ha":968,"x_min":52,"x_max":942,"o":"m 942 -293 l 743 -301 q 660 -76 705 -127 q 473 -24 614 -24 q 173 101 294 -24 q 52 421 52 227 q 180 766 52 629 q 495 903 307 903 q 795 778 674 903 q 916 458 916 652 q 854 207 916 318 q 689 34 793 95 l 689 23 q 853 -55 800 9 q 942 -293 907 -119 m 728 438 q 655 668 728 580 q 477 756 582 756 q 309 667 378 756 q 239 443 239 578 q 313 213 239 302 q 491 125 387 125 q 659 214 590 125 q 728 438 728 303 z "},"R":{"ha":827,"x_min":98,"x_max":812,"o":"m 812 0 l 612 0 q 491 296 533 240 q 355 353 449 353 q 280 352 316 353 q 286 0 280 178 l 98 0 q 106 462 106 205 q 98 883 106 709 l 215 883 q 300 885 235 883 q 420 887 365 887 q 731 674 731 887 q 553 439 731 505 l 553 429 q 673 322 622 410 q 812 0 725 234 m 558 624 q 385 759 558 759 q 272 749 321 759 q 279 475 279 644 q 342 474 317 474 q 558 624 558 474 z "},"S":{"ha":726,"x_min":52,"x_max":674,"o":"m 674 241 q 293 -24 674 -24 q 52 7 163 -24 l 85 158 q 293 120 195 120 q 449 141 401 120 q 496 212 496 162 q 452 298 496 263 q 295 380 413 330 q 136 480 188 426 q 70 649 70 549 q 156 831 70 766 q 405 897 243 897 q 628 875 538 897 l 603 724 q 405 758 511 758 q 245 672 245 758 q 282 598 245 627 q 424 530 315 574 q 597 427 540 483 q 674 241 674 351 z "},"T":{"ha":730,"x_min":15,"x_max":715,"o":"m 715 883 l 711 737 q 455 747 575 747 q 454 462 454 619 q 461 0 454 218 l 271 0 q 280 462 280 216 q 277 747 280 616 q 15 736 182 747 l 20 883 l 715 883 z "},"U":{"ha":913,"x_min":83,"x_max":831,"o":"m 831 883 q 825 427 825 655 q 456 -23 825 -23 q 181 77 273 -23 q 89 435 89 176 q 83 883 89 663 l 275 883 q 266 441 266 654 q 313 185 266 254 q 460 116 361 116 q 610 185 564 116 q 656 442 656 254 q 647 883 656 649 l 831 883 z "},"V":{"ha":797,"x_min":7,"x_max":789,"o":"m 789 883 q 634 441 789 827 q 479 0 479 54 l 293 0 q 150 443 293 52 q 7 883 7 833 l 222 883 q 313 532 222 833 q 404 189 404 230 l 416 189 q 507 519 416 229 q 598 883 598 810 l 789 883 z "},"W":{"ha":1273,"x_min":7,"x_max":1265,"o":"m 1265 883 q 1130 435 1265 820 q 994 0 994 51 l 815 0 q 733 302 815 54 q 635 652 646 568 l 623 652 q 532 299 612 567 q 458 0 458 49 l 275 0 q 141 454 275 64 q 7 883 7 844 l 222 883 q 300 543 222 840 q 377 189 377 245 l 388 189 q 471 536 388 245 q 553 883 553 827 l 747 883 q 829 530 747 832 q 912 189 912 228 l 923 189 q 998 521 923 238 q 1073 883 1073 804 l 1265 883 z "},"X":{"ha":816,"x_min":7,"x_max":808,"o":"m 808 0 l 581 0 q 504 174 581 24 q 396 366 429 321 l 385 366 q 288 178 356 326 q 217 0 217 27 l 7 0 q 139 229 7 20 q 309 473 271 437 l 309 484 q 164 690 272 526 q 53 883 53 861 l 271 883 q 334 737 271 861 q 423 582 397 613 l 434 582 q 519 737 459 614 q 579 883 579 861 l 780 883 q 664 695 780 864 q 515 494 547 526 l 515 484 q 684 230 559 435 q 808 0 808 25 z "},"Y":{"ha":766,"x_min":7,"x_max":759,"o":"m 759 883 q 682 733 759 855 q 537 501 563 547 q 460 297 460 363 q 468 0 460 148 l 275 0 q 283 299 283 149 q 212 509 283 368 q 79 741 178 574 q 7 883 7 861 l 220 883 q 306 677 220 859 q 391 443 391 496 l 401 443 q 485 665 401 492 q 568 883 568 839 l 759 883 z "},"Z":{"ha":715,"x_min":52,"x_max":663,"o":"m 663 153 l 658 0 l 52 0 l 62 139 q 281 463 136 237 q 439 739 439 709 l 439 750 q 64 734 277 750 l 68 883 l 648 883 l 639 743 q 430 424 564 640 q 278 148 278 180 l 278 138 q 663 153 420 138 z "},"À":{"ha":875,"x_min":7,"x_max":867,"o":"m 867 0 l 650 0 q 589 254 650 45 l 275 254 q 212 0 212 48 l 7 0 q 166 434 7 26 q 324 883 324 842 l 581 883 q 724 440 581 844 q 867 0 867 37 m 554 383 q 438 762 438 733 l 427 762 q 307 383 427 735 l 554 383 m 534 960 l 415 960 q 318 1055 408 971 q 228 1146 228 1138 l 425 1146 q 479 1055 425 1139 q 534 960 534 971 z "},"Á":{"ha":875,"x_min":7,"x_max":867,"o":"m 867 0 l 650 0 q 589 254 650 45 l 275 254 q 212 0 212 48 l 7 0 q 166 434 7 26 q 324 883 324 842 l 581 883 q 724 440 581 844 q 867 0 867 37 m 554 383 q 438 762 438 733 l 427 762 q 307 383 427 735 l 554 383 m 669 1146 q 579 1055 669 1138 q 482 960 489 971 l 363 960 q 418 1055 363 971 q 472 1146 472 1139 l 669 1146 z "},"Â":{"ha":875,"x_min":7,"x_max":867,"o":"m 867 0 l 650 0 q 589 254 650 45 l 275 254 q 212 0 212 48 l 7 0 q 166 434 7 26 q 324 883 324 842 l 581 883 q 724 440 581 844 q 867 0 867 37 m 554 383 q 438 762 438 733 l 427 762 q 307 383 427 735 l 554 383 m 674 960 l 569 960 q 456 1051 562 971 q 344 960 351 971 l 239 960 q 307 1055 239 971 q 374 1146 374 1139 l 538 1146 q 606 1055 538 1139 q 674 960 674 971 z "},"Ã":{"ha":875,"x_min":7,"x_max":867,"o":"m 867 0 l 650 0 q 589 254 650 45 l 275 254 q 212 0 212 48 l 7 0 q 166 434 7 26 q 324 883 324 842 l 581 883 q 724 440 581 844 q 867 0 867 37 m 554 383 q 438 762 438 733 l 427 762 q 307 383 427 735 l 554 383 m 713 1102 q 539 969 637 969 q 457 985 508 969 q 378 1000 406 1000 q 259 955 317 1000 l 199 1006 q 372 1132 275 1132 q 456 1116 406 1132 q 533 1101 507 1101 q 652 1153 595 1101 l 713 1102 z "},"Ä":{"ha":875,"x_min":7,"x_max":867,"o":"m 867 0 l 650 0 q 589 254 650 45 l 275 254 q 212 0 212 48 l 7 0 q 166 434 7 26 q 324 883 324 842 l 581 883 q 724 440 581 844 q 867 0 867 37 m 554 383 q 438 762 438 733 l 427 762 q 307 383 427 735 l 554 383 m 676 1063 q 649 994 676 1023 q 574 964 623 964 q 511 990 534 964 q 488 1051 488 1015 q 516 1119 488 1090 q 591 1148 543 1148 q 654 1123 632 1148 q 676 1063 676 1098 m 408 1063 q 381 994 408 1023 q 307 964 355 964 q 244 990 267 964 q 221 1051 221 1015 q 248 1119 221 1090 q 323 1148 275 1148 q 386 1123 364 1148 q 408 1063 408 1098 z "},"Ā":{"ha":875,"x_min":7,"x_max":867,"o":"m 867 0 l 650 0 q 589 254 650 45 l 275 254 q 212 0 212 48 l 7 0 q 166 434 7 26 q 324 883 324 842 l 581 883 q 724 440 581 844 q 867 0 867 37 m 554 383 q 438 762 438 733 l 427 762 q 307 383 427 735 l 554 383 m 624 1099 l 616 981 l 274 981 l 281 1099 l 624 1099 z "},"Ă":{"ha":875,"x_min":7,"x_max":867,"o":"m 867 0 l 650 0 q 589 254 650 45 l 275 254 q 212 0 212 48 l 7 0 q 166 434 7 26 q 324 883 324 842 l 581 883 q 724 440 581 844 q 867 0 867 37 m 554 383 q 438 762 438 733 l 427 762 q 307 383 427 735 l 554 383 m 665 1105 q 444 935 602 935 q 220 1105 277 935 l 310 1146 q 443 1046 359 1046 q 576 1146 524 1046 l 665 1105 z "},"Å":{"ha":875,"x_min":7,"x_max":867,"o":"m 867 0 l 650 0 q 589 254 650 45 l 275 254 q 212 0 212 48 l 7 0 q 166 434 7 26 q 324 883 324 842 l 581 883 q 724 440 581 844 q 867 0 867 37 m 554 383 q 438 762 438 733 l 427 762 q 307 383 427 735 l 554 383 m 623 1088 q 571 965 623 1010 q 450 919 518 919 q 345 958 389 919 q 300 1069 300 997 q 353 1191 300 1146 q 473 1236 406 1236 q 579 1197 534 1236 q 623 1088 623 1159 m 546 1082 q 523 1145 546 1123 q 468 1166 500 1166 q 406 1141 433 1166 q 378 1073 378 1116 q 401 1010 378 1032 q 456 988 424 988 q 519 1014 492 988 q 546 1082 546 1039 z "},"Ǻ":{"ha":875,"x_min":7,"x_max":867,"o":"m 582 1029 q 541 932 582 968 q 446 896 499 896 q 363 927 398 896 q 328 1014 328 958 q 369 1111 328 1075 q 464 1146 410 1146 q 547 1116 513 1146 q 582 1029 582 1085 m 698 1289 q 620 1227 698 1280 q 536 1164 543 1175 l 424 1164 q 469 1228 424 1175 q 514 1289 514 1281 l 698 1289 m 515 1027 q 498 1073 515 1057 q 458 1088 482 1088 q 413 1070 433 1088 q 393 1020 393 1052 q 410 976 393 991 q 450 960 427 960 q 495 978 475 960 q 515 1027 515 996 m 867 0 l 650 0 q 589 254 650 45 l 275 254 q 212 0 212 48 l 7 0 q 166 434 7 26 q 324 883 324 842 l 581 883 q 724 440 581 844 q 867 0 867 37 m 554 383 q 438 762 438 733 l 427 762 q 307 383 427 735 l 554 383 z "},"Ą":{"ha":875,"x_min":7,"x_max":867,"o":"m 867 0 q 677 -137 677 -21 q 758 -223 677 -223 q 812 -216 779 -223 l 831 -317 q 736 -330 789 -330 q 596 -291 640 -330 q 551 -183 551 -250 q 650 0 551 -72 q 589 254 650 45 l 275 254 q 212 0 212 48 l 7 0 q 166 434 7 26 q 324 883 324 842 l 581 883 q 724 440 581 844 q 867 0 867 37 m 554 383 q 438 762 438 733 l 427 762 q 307 383 427 735 l 554 383 z "},"Æ":{"ha":1149,"x_min":7,"x_max":1097,"o":"m 1097 149 l 1092 0 l 509 0 q 516 254 516 125 l 264 254 q 203 0 203 57 l 7 0 q 166 433 7 26 q 325 883 325 840 l 1065 883 l 1059 734 q 680 745 846 745 q 688 523 688 650 q 1000 528 820 523 l 1000 389 q 688 395 833 395 q 693 138 688 264 q 1097 149 881 138 m 517 383 q 511 745 517 604 l 422 745 q 296 383 422 719 l 517 383 z "},"Ǽ":{"ha":1149,"x_min":7,"x_max":1097,"o":"m 1097 149 l 1092 0 l 509 0 q 516 254 516 125 l 264 254 q 203 0 203 57 l 7 0 q 166 433 7 26 q 325 883 325 840 l 1065 883 l 1059 734 q 680 745 846 745 q 688 523 688 650 q 1000 528 820 523 l 1000 389 q 688 395 833 395 q 693 138 688 264 q 1097 149 881 138 m 517 383 q 511 745 517 604 l 422 745 q 296 383 422 719 l 517 383 m 926 1146 q 836 1055 926 1138 q 739 960 746 971 l 621 960 q 675 1055 621 971 q 729 1146 729 1139 l 926 1146 z "},"Ć":{"ha":767,"x_min":52,"x_max":763,"o":"m 730 161 l 718 5 q 528 -18 622 -18 q 174 110 296 -18 q 52 422 52 239 q 181 754 52 613 q 536 895 311 895 q 692 876 618 895 l 669 720 q 515 745 589 745 q 311 658 378 745 q 243 446 243 571 q 323 225 243 319 q 547 132 403 132 q 730 161 631 132 m 763 1146 q 673 1055 763 1138 q 576 960 583 971 l 457 960 q 511 1055 457 971 q 566 1146 566 1139 l 763 1146 z "},"Ĉ":{"ha":767,"x_min":52,"x_max":730,"o":"m 730 161 l 718 5 q 528 -18 622 -18 q 174 110 296 -18 q 52 422 52 239 q 181 754 52 613 q 536 895 311 895 q 692 876 618 895 l 669 720 q 515 745 589 745 q 311 658 378 745 q 243 446 243 571 q 323 225 243 319 q 547 132 403 132 q 730 161 631 132 m 715 960 l 610 960 q 498 1051 604 971 q 385 960 392 971 l 280 960 q 348 1055 280 971 q 416 1146 416 1139 l 580 1146 q 648 1055 580 1139 q 715 960 715 971 z "},"Č":{"ha":767,"x_min":52,"x_max":730,"o":"m 730 161 l 718 5 q 528 -18 622 -18 q 174 110 296 -18 q 52 422 52 239 q 181 754 52 613 q 536 895 311 895 q 692 876 618 895 l 669 720 q 515 745 589 745 q 311 658 378 745 q 243 446 243 571 q 323 225 243 319 q 547 132 403 132 q 730 161 631 132 m 729 1146 q 661 1052 729 1135 q 593 960 593 968 l 429 960 q 361 1052 429 968 q 294 1146 294 1135 l 399 1146 q 511 1055 406 1135 q 624 1146 617 1135 l 729 1146 z "},"Ċ":{"ha":767,"x_min":52,"x_max":730,"o":"m 730 161 l 718 5 q 528 -18 622 -18 q 174 110 296 -18 q 52 422 52 239 q 181 754 52 613 q 536 895 311 895 q 692 876 618 895 l 669 720 q 515 745 589 745 q 311 658 378 745 q 243 446 243 571 q 323 225 243 319 q 547 132 403 132 q 730 161 631 132 m 620 1062 q 588 981 620 1016 q 500 947 557 947 q 426 977 453 947 q 399 1048 399 1006 q 431 1128 399 1095 q 519 1162 463 1162 q 594 1133 568 1162 q 620 1062 620 1103 z "},"Ç":{"ha":767,"x_min":52,"x_max":730,"o":"m 730 161 l 718 5 q 528 -18 622 -18 q 461 -15 493 -18 l 455 -62 q 583 -195 583 -94 q 416 -349 583 -349 l 400 -273 q 447 -253 427 -273 q 467 -208 467 -233 q 379 -123 467 -140 l 399 -6 q 154 130 256 22 q 52 422 52 239 q 182 753 52 612 q 536 895 311 895 q 692 876 618 895 l 669 720 q 515 745 589 745 q 311 658 379 745 q 243 446 243 571 q 323 225 243 319 q 547 132 403 132 q 730 161 631 132 z "},"Ď":{"ha":896,"x_min":98,"x_max":844,"o":"m 844 472 q 720 136 844 279 q 374 -8 597 -8 q 98 0 274 -8 q 106 462 106 205 q 98 883 106 709 l 216 883 q 303 885 245 883 q 378 887 361 887 q 733 765 623 887 q 844 472 844 643 m 659 443 q 583 662 659 573 q 351 751 507 751 q 271 745 321 751 q 277 462 277 610 q 284 140 277 300 q 372 132 328 132 q 588 222 518 132 q 659 443 659 313 m 660 1146 q 592 1052 660 1135 q 524 960 524 968 l 360 960 q 292 1052 360 968 q 224 1146 224 1135 l 330 1146 q 442 1055 336 1135 q 555 1146 548 1135 l 660 1146 z "},"Đ":{"ha":896,"x_min":7,"x_max":844,"o":"m 844 472 q 721 136 844 281 q 380 -8 598 -8 q 98 0 274 -8 q 106 395 106 168 q 7 385 68 392 l 14 507 q 106 506 68 506 q 98 883 106 714 l 216 883 q 304 885 246 883 q 392 887 363 887 q 731 768 619 887 q 844 472 844 648 m 659 443 q 581 661 659 571 q 351 751 503 751 q 271 746 316 751 q 278 511 279 652 q 501 528 345 514 l 495 409 q 278 404 448 409 q 284 140 278 252 q 376 132 328 132 q 588 222 518 132 q 659 443 659 313 z "},"È":{"ha":732,"x_min":98,"x_max":680,"o":"m 680 149 l 675 0 l 98 0 q 106 462 106 205 q 98 883 106 709 l 648 883 l 641 734 q 272 745 437 745 q 279 523 279 651 q 582 530 420 523 l 582 389 q 279 395 423 395 q 284 138 279 258 q 680 149 470 138 m 486 960 l 368 960 q 271 1055 361 971 q 180 1146 180 1138 l 378 1146 q 432 1055 378 1139 q 486 960 486 971 z "},"É":{"ha":732,"x_min":98,"x_max":680,"o":"m 680 149 l 675 0 l 98 0 q 106 462 106 205 q 98 883 106 709 l 648 883 l 641 734 q 272 745 437 745 q 279 523 279 651 q 582 530 420 523 l 582 389 q 279 395 423 395 q 284 138 279 258 q 680 149 470 138 m 623 1146 q 533 1055 623 1138 q 436 960 443 971 l 317 960 q 372 1055 317 971 q 426 1146 426 1139 l 623 1146 z "},"Ê":{"ha":732,"x_min":98,"x_max":680,"o":"m 680 149 l 675 0 l 98 0 q 106 462 106 205 q 98 883 106 709 l 648 883 l 641 734 q 272 745 437 745 q 279 523 279 651 q 582 530 420 523 l 582 389 q 279 395 423 395 q 284 138 279 258 q 680 149 470 138 m 621 960 l 515 960 q 403 1051 509 971 q 290 960 297 971 l 185 960 q 253 1055 185 971 q 321 1146 321 1139 l 485 1146 q 553 1055 485 1139 q 621 960 621 971 z "},"Ě":{"ha":732,"x_min":98,"x_max":680,"o":"m 680 149 l 675 0 l 98 0 q 106 462 106 205 q 98 883 106 709 l 648 883 l 641 734 q 272 745 437 745 q 279 523 279 651 q 582 530 420 523 l 582 389 q 279 395 423 395 q 284 138 279 258 q 680 149 470 138 m 623 1146 q 555 1052 623 1135 q 487 960 487 968 l 323 960 q 255 1052 323 968 q 187 1146 187 1135 l 292 1146 q 405 1055 299 1135 q 517 1146 511 1135 l 623 1146 z "},"Ë":{"ha":732,"x_min":98,"x_max":680,"o":"m 680 149 l 675 0 l 98 0 q 106 462 106 205 q 98 883 106 709 l 648 883 l 641 734 q 272 745 437 745 q 279 523 279 651 q 582 530 420 523 l 582 389 q 279 395 423 395 q 284 138 279 258 q 680 149 470 138 m 612 1063 q 585 994 612 1023 q 510 964 558 964 q 447 990 469 964 q 424 1051 424 1015 q 451 1119 424 1090 q 527 1148 479 1148 q 590 1123 568 1148 q 612 1063 612 1098 m 344 1063 q 317 994 344 1023 q 242 964 290 964 q 179 990 202 964 q 157 1051 157 1015 q 184 1119 157 1090 q 259 1148 211 1148 q 322 1123 300 1148 q 344 1063 344 1098 z "},"Ē":{"ha":732,"x_min":98,"x_max":680,"o":"m 680 149 l 675 0 l 98 0 q 106 462 106 205 q 98 883 106 709 l 648 883 l 641 734 q 272 745 437 745 q 279 523 279 651 q 582 530 420 523 l 582 389 q 279 395 423 395 q 284 138 279 258 q 680 149 470 138 m 570 1099 l 562 981 l 220 981 l 228 1099 l 570 1099 z "},"Ĕ":{"ha":732,"x_min":98,"x_max":680,"o":"m 680 149 l 675 0 l 98 0 q 106 462 106 205 q 98 883 106 709 l 648 883 l 641 734 q 272 745 437 745 q 279 523 279 651 q 582 530 420 523 l 582 389 q 279 395 423 395 q 284 138 279 258 q 680 149 470 138 m 625 1105 q 403 935 561 935 q 180 1105 236 935 l 269 1146 q 402 1046 318 1046 q 535 1146 484 1046 l 625 1105 z "},"Ė":{"ha":732,"x_min":98,"x_max":680,"o":"m 680 149 l 675 0 l 98 0 q 106 462 106 205 q 98 883 106 709 l 648 883 l 641 734 q 272 745 437 745 q 279 523 279 651 q 582 530 420 523 l 582 389 q 279 395 423 395 q 284 138 279 258 q 680 149 470 138 m 511 1062 q 480 981 511 1016 q 392 947 448 947 q 318 977 345 947 q 291 1048 291 1006 q 322 1128 291 1095 q 411 1162 354 1162 q 485 1133 459 1162 q 511 1062 511 1103 z "},"Ę":{"ha":732,"x_min":98,"x_max":680,"o":"m 667 -317 q 572 -330 625 -330 q 431 -290 475 -330 q 387 -183 387 -250 q 500 -7 387 -72 l 500 0 l 98 0 q 106 462 106 205 q 98 883 106 709 l 647 883 l 641 734 q 272 745 437 745 q 279 523 279 651 q 582 530 420 523 l 582 389 q 279 395 423 395 q 284 138 279 258 q 680 149 470 138 l 675 0 q 513 -137 513 -28 q 594 -223 513 -223 q 648 -216 615 -223 l 667 -317 z "},"Ĝ":{"ha":863,"x_min":52,"x_max":796,"o":"m 796 23 q 526 -18 635 -18 q 173 110 293 -18 q 52 420 52 237 q 183 753 52 612 q 547 895 315 895 q 740 876 656 895 l 718 715 q 526 743 611 743 q 313 655 383 743 q 242 441 242 568 q 321 215 242 311 q 539 119 400 119 q 629 127 578 119 q 618 275 618 202 q 604 439 618 348 l 796 439 q 791 229 791 335 q 796 23 791 153 m 726 960 l 621 960 q 508 1051 614 971 q 395 960 402 971 l 290 960 q 358 1055 290 971 q 426 1146 426 1139 l 590 1146 q 658 1055 590 1139 q 726 960 726 971 z "},"Ğ":{"ha":863,"x_min":52,"x_max":796,"o":"m 796 23 q 526 -18 635 -18 q 173 110 293 -18 q 52 420 52 237 q 183 753 52 612 q 547 895 315 895 q 740 876 656 895 l 718 715 q 526 743 611 743 q 313 655 383 743 q 242 441 242 568 q 321 215 242 311 q 539 119 400 119 q 629 127 578 119 q 618 275 618 202 q 604 439 618 348 l 796 439 q 791 229 791 335 q 796 23 791 153 m 733 1105 q 511 935 669 935 q 288 1105 345 935 l 378 1146 q 511 1046 427 1046 q 644 1146 592 1046 l 733 1105 z "},"Ġ":{"ha":863,"x_min":52,"x_max":796,"o":"m 796 23 q 526 -18 635 -18 q 173 110 293 -18 q 52 420 52 237 q 183 753 52 612 q 547 895 315 895 q 740 876 656 895 l 718 715 q 526 743 611 743 q 313 655 383 743 q 242 441 242 568 q 321 215 242 311 q 539 119 400 119 q 629 127 578 119 q 618 275 618 202 q 604 439 618 348 l 796 439 q 791 229 791 335 q 796 23 791 153 m 625 1062 q 593 981 625 1016 q 505 947 562 947 q 431 977 458 947 q 404 1048 404 1006 q 436 1128 404 1095 q 524 1162 467 1162 q 598 1133 572 1162 q 625 1062 625 1103 z "},"Ģ":{"ha":863,"x_min":52,"x_max":796,"o":"m 796 23 q 526 -18 635 -18 q 173 110 293 -18 q 52 420 52 237 q 183 753 52 612 q 547 895 315 895 q 740 876 656 895 l 718 715 q 526 743 611 743 q 313 655 383 743 q 242 441 242 568 q 321 215 242 311 q 539 119 400 119 q 629 127 578 119 q 618 275 618 202 q 604 439 618 348 l 796 439 q 791 229 791 335 q 796 23 791 153 m 568 -142 q 432 -355 568 -270 l 389 -319 q 428 -213 428 -268 q 385 -144 385 -187 q 410 -76 385 -102 q 479 -49 435 -49 q 544 -76 520 -49 q 568 -142 568 -103 z "},"Ĥ":{"ha":907,"x_min":98,"x_max":810,"o":"m 810 0 l 618 0 q 625 389 625 224 l 283 389 q 290 0 283 241 l 98 0 q 106 462 106 224 q 98 883 106 703 l 290 883 q 281 530 281 692 l 626 530 q 618 883 626 673 l 810 883 q 800 462 800 711 q 810 0 800 202 m 667 960 l 562 960 q 449 1051 555 971 q 336 960 343 971 l 231 960 q 299 1055 231 971 q 367 1146 367 1139 l 531 1146 q 599 1055 531 1139 q 667 960 667 971 z "},"Ħ":{"ha":907,"x_min":40,"x_max":867,"o":"m 867 735 l 860 635 l 801 635 q 800 462 800 553 q 810 0 800 202 l 618 0 q 625 389 625 224 l 283 389 q 290 0 283 241 l 98 0 q 106 462 106 224 q 105 635 106 553 l 40 635 l 47 735 l 103 735 q 98 883 101 813 l 290 883 q 284 735 286 806 l 623 735 q 618 883 621 804 l 810 883 q 804 735 806 815 l 867 735 m 626 530 q 625 635 626 578 l 282 635 q 281 530 281 581 l 626 530 z "},"Ì":{"ha":387,"x_min":-26,"x_max":290,"o":"m 290 0 l 98 0 q 106 462 106 210 q 98 883 106 709 l 290 883 q 281 462 281 712 q 290 0 281 206 m 280 960 l 161 960 q 64 1055 155 971 q -26 1146 -26 1138 l 172 1146 q 226 1055 172 1139 q 280 960 280 971 z "},"Í":{"ha":387,"x_min":98,"x_max":427,"o":"m 290 0 l 98 0 q 106 462 106 210 q 98 883 106 709 l 290 883 q 281 462 281 712 q 290 0 281 206 m 427 1146 q 337 1055 427 1138 q 240 960 247 971 l 121 960 q 176 1055 121 971 q 230 1146 230 1139 l 427 1146 z "},"Î":{"ha":387,"x_min":-23,"x_max":412,"o":"m 290 0 l 98 0 q 106 462 106 210 q 98 883 106 709 l 290 883 q 281 462 281 712 q 290 0 281 206 m 412 960 l 307 960 q 195 1051 300 971 q 82 960 89 971 l -23 960 q 45 1055 -23 971 q 113 1146 113 1139 l 277 1146 q 345 1055 277 1139 q 412 960 412 971 z "},"Ĩ":{"ha":387,"x_min":-65,"x_max":449,"o":"m 290 0 l 98 0 q 106 462 106 210 q 98 883 106 709 l 290 883 q 281 462 281 712 q 290 0 281 206 m 449 1102 q 275 969 373 969 q 193 985 244 969 q 115 1000 142 1000 q -5 955 53 1000 l -65 1006 q 109 1132 11 1132 q 193 1116 142 1132 q 269 1101 243 1101 q 389 1153 331 1101 l 449 1102 z "},"Ï":{"ha":387,"x_min":-33,"x_max":422,"o":"m 290 0 l 98 0 q 106 462 106 210 q 98 883 106 709 l 290 883 q 281 462 281 712 q 290 0 281 206 m 422 1063 q 395 994 422 1023 q 320 964 368 964 q 257 990 279 964 q 234 1051 234 1015 q 261 1119 234 1090 q 337 1148 289 1148 q 400 1123 378 1148 q 422 1063 422 1098 m 154 1063 q 127 994 154 1023 q 52 964 100 964 q -11 990 12 964 q -33 1051 -33 1015 q -6 1119 -33 1090 q 69 1148 21 1148 q 132 1123 110 1148 q 154 1063 154 1098 z "},"Ī":{"ha":387,"x_min":19,"x_max":369,"o":"m 290 0 l 98 0 q 106 462 106 210 q 98 883 106 709 l 290 883 q 281 462 281 712 q 290 0 281 206 m 369 1099 l 361 981 l 19 981 l 26 1099 l 369 1099 z "},"Ĭ":{"ha":387,"x_min":-28,"x_max":416,"o":"m 290 0 l 98 0 q 106 462 106 210 q 98 883 106 709 l 290 883 q 281 462 281 712 q 290 0 281 206 m 416 1105 q 195 935 353 935 q -28 1105 28 935 l 61 1146 q 194 1046 110 1046 q 327 1146 275 1046 l 416 1105 z "},"İ":{"ha":387,"x_min":93,"x_max":313,"o":"m 290 0 l 98 0 q 106 462 106 210 q 98 883 106 709 l 290 883 q 281 462 281 712 q 290 0 281 206 m 313 1062 q 282 981 313 1016 q 194 947 250 947 q 120 977 146 947 q 93 1048 93 1006 q 124 1128 93 1095 q 213 1162 156 1162 q 287 1133 261 1162 q 313 1062 313 1103 z "},"Į":{"ha":387,"x_min":12,"x_max":292,"o":"m 292 -317 q 197 -330 250 -330 q 56 -290 100 -330 q 12 -183 12 -250 q 98 0 12 -72 q 106 462 106 210 q 98 883 106 709 l 290 883 q 281 462 281 712 q 290 0 281 206 q 138 -137 138 -21 q 219 -223 138 -223 q 273 -216 240 -223 l 292 -317 z "},"Ĳ":{"ha":942,"x_min":98,"x_max":859,"o":"m 290 0 l 98 0 q 106 462 106 210 q 98 883 106 709 l 290 883 q 281 462 281 712 q 290 0 281 206 m 859 883 q 851 384 851 681 q 758 63 851 158 q 513 -18 680 -18 q 395 -4 454 -18 l 407 142 q 498 121 452 121 q 627 160 587 121 q 684 370 684 216 q 674 883 684 680 l 859 883 z "},"Ĵ":{"ha":540,"x_min":7,"x_max":597,"o":"m 472 883 q 464 384 464 681 q 371 63 464 158 q 126 -18 292 -18 q 7 -4 66 -18 l 20 142 q 111 121 65 121 q 239 160 199 121 q 297 370 297 216 q 287 883 297 680 l 472 883 m 597 960 l 492 960 q 380 1051 486 971 q 267 960 274 971 l 162 960 q 230 1055 162 971 q 298 1146 298 1139 l 462 1146 q 530 1055 462 1139 q 597 960 597 971 z "},"Ķ":{"ha":819,"x_min":98,"x_max":811,"o":"m 811 0 l 589 0 q 475 215 589 31 q 302 411 353 411 l 281 411 q 289 0 281 256 l 98 0 q 106 462 106 205 q 98 883 106 709 l 289 883 q 281 530 281 695 l 296 530 q 447 697 326 530 q 564 883 564 859 l 766 883 q 642 714 766 861 q 455 522 514 563 l 455 511 q 673 243 524 475 q 811 0 811 28 m 531 -142 q 395 -355 531 -270 l 352 -319 q 391 -213 391 -268 q 348 -144 348 -187 q 373 -76 348 -102 q 442 -49 398 -49 q 507 -76 484 -49 q 531 -142 531 -103 z "},"Ĺ":{"ha":674,"x_min":98,"x_max":667,"o":"m 667 148 l 661 0 l 98 0 q 106 462 106 184 q 98 883 106 717 l 288 883 q 280 462 280 729 q 271 138 280 258 q 667 148 458 138 m 429 1146 q 338 1055 429 1138 q 241 960 248 971 l 123 960 q 177 1055 123 971 q 231 1146 231 1139 l 429 1146 z "},"Ľ":{"ha":674,"x_min":98,"x_max":690,"o":"m 667 148 l 661 0 l 98 0 q 106 462 106 184 q 98 883 106 717 l 288 883 q 280 462 280 729 q 271 138 280 258 q 667 148 458 138 m 690 798 q 552 560 690 648 l 507 597 q 544 715 544 658 q 490 797 490 742 q 519 870 490 839 q 600 901 548 901 q 666 869 642 901 q 690 798 690 838 z "},"Ļ":{"ha":674,"x_min":98,"x_max":667,"o":"m 667 148 l 661 0 l 98 0 q 106 462 106 184 q 98 883 106 717 l 288 883 q 280 462 280 729 q 271 138 280 258 q 667 148 458 138 m 472 -142 q 336 -355 472 -270 l 293 -319 q 332 -213 332 -268 q 289 -144 289 -187 q 314 -76 289 -102 q 383 -49 339 -49 q 448 -76 425 -49 q 472 -142 472 -103 z "},"Ł":{"ha":674,"x_min":-16,"x_max":667,"o":"m 667 148 l 661 0 l 98 0 q 105 315 104 138 l 39 267 l -16 353 l 106 431 l 106 462 q 98 883 106 717 l 288 883 q 280 545 281 753 l 514 709 l 584 616 l 280 431 q 271 138 279 252 q 667 148 458 138 z "},"Ŀ":{"ha":674,"x_min":98,"x_max":678,"o":"m 667 148 l 661 0 l 98 0 q 106 462 106 184 q 98 883 106 717 l 288 883 q 280 462 280 729 q 271 138 280 258 q 667 148 458 138 m 678 484 q 647 403 678 437 q 559 368 615 368 q 485 398 511 368 q 458 470 458 428 q 489 550 458 516 q 578 584 521 584 q 652 554 626 584 q 678 484 678 525 z "},"Ń":{"ha":923,"x_min":98,"x_max":825,"o":"m 825 0 l 658 0 q 471 294 658 28 q 249 677 276 574 l 238 677 q 255 408 255 528 q 264 0 255 241 l 98 0 q 108 462 108 210 q 98 883 108 709 l 299 883 q 467 596 299 847 q 671 235 645 330 l 682 235 q 665 506 665 386 q 656 883 665 690 l 825 883 q 816 462 816 715 q 825 0 816 207 m 678 1146 q 588 1055 678 1138 q 491 960 498 971 l 372 960 q 427 1055 372 971 q 481 1146 481 1139 l 678 1146 z "},"Ň":{"ha":923,"x_min":98,"x_max":825,"o":"m 825 0 l 658 0 q 471 294 658 28 q 249 677 276 574 l 238 677 q 255 408 255 528 q 264 0 255 241 l 98 0 q 108 462 108 210 q 98 883 108 709 l 299 883 q 467 596 299 847 q 671 235 645 330 l 682 235 q 665 506 665 386 q 656 883 665 690 l 825 883 q 816 462 816 715 q 825 0 816 207 m 684 1146 q 616 1052 684 1135 q 548 960 548 968 l 384 960 q 316 1052 384 968 q 248 1146 248 1135 l 353 1146 q 466 1055 360 1135 q 578 1146 572 1135 l 684 1146 z "},"Ñ":{"ha":923,"x_min":98,"x_max":825,"o":"m 825 0 l 658 0 q 471 294 658 28 q 249 677 276 574 l 238 677 q 255 408 255 528 q 264 0 255 241 l 98 0 q 108 462 108 210 q 98 883 108 709 l 299 883 q 467 596 299 847 q 671 235 645 330 l 682 235 q 665 506 665 386 q 656 883 665 690 l 825 883 q 816 462 816 715 q 825 0 816 207 m 721 1102 q 547 969 645 969 q 465 985 516 969 q 387 1000 414 1000 q 267 955 325 1000 l 207 1006 q 380 1132 283 1132 q 465 1116 414 1132 q 541 1101 515 1101 q 661 1153 603 1101 l 721 1102 z "},"Ņ":{"ha":923,"x_min":98,"x_max":825,"o":"m 825 0 l 658 0 q 471 294 658 28 q 249 677 276 574 l 238 677 q 255 408 255 528 q 264 0 255 241 l 98 0 q 108 462 108 210 q 98 883 108 709 l 299 883 q 467 596 299 847 q 671 235 645 330 l 682 235 q 665 506 665 386 q 656 883 665 690 l 825 883 q 816 462 816 715 q 825 0 816 207 m 551 -142 q 415 -355 551 -270 l 372 -319 q 411 -213 411 -268 q 368 -144 368 -187 q 393 -76 368 -102 q 462 -49 418 -49 q 527 -76 503 -49 q 551 -142 551 -103 z "},"Ò":{"ha":968,"x_min":52,"x_max":916,"o":"m 916 458 q 788 113 916 250 q 473 -24 661 -24 q 173 101 294 -24 q 52 421 52 227 q 180 766 52 629 q 495 903 307 903 q 795 778 674 903 q 916 458 916 652 m 728 438 q 656 668 728 580 q 477 756 583 756 q 309 667 378 756 q 239 443 239 578 q 312 213 239 302 q 491 125 385 125 q 659 214 590 125 q 728 438 728 303 m 569 960 l 450 960 q 353 1055 444 971 q 263 1146 263 1138 l 460 1146 q 515 1055 460 1139 q 569 960 569 971 z "},"Ó":{"ha":968,"x_min":52,"x_max":916,"o":"m 916 458 q 788 113 916 250 q 473 -24 661 -24 q 173 101 294 -24 q 52 421 52 227 q 180 766 52 629 q 495 903 307 903 q 795 778 674 903 q 916 458 916 652 m 728 438 q 656 668 728 580 q 477 756 583 756 q 309 667 378 756 q 239 443 239 578 q 312 213 239 302 q 491 125 385 125 q 659 214 590 125 q 728 438 728 303 m 750 1146 q 660 1055 750 1138 q 563 960 570 971 l 444 960 q 498 1055 444 971 q 553 1146 553 1139 l 750 1146 z "},"Ô":{"ha":968,"x_min":52,"x_max":916,"o":"m 916 458 q 788 113 916 250 q 473 -24 661 -24 q 173 101 294 -24 q 52 421 52 227 q 180 766 52 629 q 495 903 307 903 q 795 778 674 903 q 916 458 916 652 m 728 438 q 656 668 728 580 q 477 756 583 756 q 309 667 378 756 q 239 443 239 578 q 312 213 239 302 q 491 125 385 125 q 659 214 590 125 q 728 438 728 303 m 707 960 l 602 960 q 489 1051 595 971 q 376 960 383 971 l 271 960 q 339 1055 271 971 q 407 1146 407 1139 l 571 1146 q 639 1055 571 1139 q 707 960 707 971 z "},"Õ":{"ha":968,"x_min":52,"x_max":916,"o":"m 916 458 q 788 113 916 250 q 473 -24 661 -24 q 173 101 294 -24 q 52 421 52 227 q 180 766 52 629 q 495 903 307 903 q 795 778 674 903 q 916 458 916 652 m 728 438 q 656 668 728 580 q 477 756 583 756 q 309 667 378 756 q 239 443 239 578 q 312 213 239 302 q 491 125 385 125 q 659 214 590 125 q 728 438 728 303 m 777 1102 q 603 969 701 969 q 520 985 572 969 q 442 1000 469 1000 q 323 955 380 1000 l 262 1006 q 436 1132 338 1132 q 520 1116 470 1132 q 597 1101 570 1101 q 716 1153 659 1101 l 777 1102 z "},"Ö":{"ha":968,"x_min":52,"x_max":916,"o":"m 916 458 q 788 113 916 250 q 473 -24 661 -24 q 173 101 294 -24 q 52 421 52 227 q 180 766 52 629 q 495 903 307 903 q 795 778 674 903 q 916 458 916 652 m 728 438 q 656 668 728 580 q 477 756 583 756 q 309 667 378 756 q 239 443 239 578 q 312 213 239 302 q 491 125 385 125 q 659 214 590 125 q 728 438 728 303 m 724 1063 q 697 994 724 1023 q 622 964 670 964 q 558 990 581 964 q 536 1051 536 1015 q 563 1119 536 1090 q 639 1148 591 1148 q 702 1123 680 1148 q 724 1063 724 1098 m 456 1063 q 429 994 456 1023 q 354 964 402 964 q 291 990 314 964 q 269 1051 269 1015 q 296 1119 269 1090 q 371 1148 323 1148 q 434 1123 412 1148 q 456 1063 456 1098 z "},"Ō":{"ha":968,"x_min":52,"x_max":916,"o":"m 916 458 q 788 113 916 250 q 473 -24 661 -24 q 173 101 294 -24 q 52 421 52 227 q 180 766 52 629 q 495 903 307 903 q 795 778 674 903 q 916 458 916 652 m 728 438 q 656 668 728 580 q 477 756 583 756 q 309 667 378 756 q 239 443 239 578 q 312 213 239 302 q 491 125 385 125 q 659 214 590 125 q 728 438 728 303 m 660 1099 l 652 981 l 310 981 l 317 1099 l 660 1099 z "},"Ŏ":{"ha":968,"x_min":52,"x_max":916,"o":"m 916 458 q 788 113 916 250 q 473 -24 661 -24 q 173 101 294 -24 q 52 421 52 227 q 180 766 52 629 q 495 903 307 903 q 795 778 674 903 q 916 458 916 652 m 728 438 q 656 668 728 580 q 477 756 583 756 q 309 667 378 756 q 239 443 239 578 q 312 213 239 302 q 491 125 385 125 q 659 214 590 125 q 728 438 728 303 m 715 1105 q 493 935 651 935 q 270 1105 326 935 l 359 1146 q 492 1046 408 1046 q 625 1146 574 1046 l 715 1105 z "},"Ő":{"ha":968,"x_min":52,"x_max":916,"o":"m 916 458 q 788 113 916 250 q 473 -24 661 -24 q 173 101 294 -24 q 52 421 52 227 q 180 766 52 629 q 495 903 307 903 q 795 778 674 903 q 916 458 916 652 m 728 438 q 656 668 728 580 q 477 756 583 756 q 309 667 378 756 q 239 443 239 578 q 312 213 239 302 q 491 125 385 125 q 659 214 590 125 q 728 438 728 303 m 525 1146 q 463 1051 525 1131 q 393 960 400 971 l 292 960 q 316 1052 292 971 q 340 1146 340 1132 l 525 1146 m 787 1146 q 725 1051 787 1131 q 656 960 663 971 l 555 960 q 578 1052 555 971 q 602 1146 602 1132 l 787 1146 z "},"Ø":{"ha":968,"x_min":45,"x_max":922,"o":"m 922 897 q 825 744 922 867 q 917 458 917 624 q 789 113 917 250 q 474 -24 662 -24 q 233 52 338 -24 q 144 -81 144 -57 l 45 -52 q 161 117 45 -25 q 54 421 54 240 q 181 766 54 629 q 496 903 309 903 q 755 814 644 903 q 821 922 821 900 l 922 897 m 647 681 q 478 756 578 756 q 310 667 379 756 q 241 443 241 578 q 282 262 241 340 q 647 681 411 408 m 730 438 q 701 592 730 524 q 342 183 575 450 q 492 125 407 125 q 661 214 591 125 q 730 438 730 303 z "},"Ǿ":{"ha":968,"x_min":45,"x_max":922,"o":"m 922 897 q 825 744 922 867 q 917 458 917 624 q 789 113 917 250 q 474 -24 662 -24 q 233 52 338 -24 q 144 -81 144 -57 l 45 -52 q 161 117 45 -25 q 54 421 54 240 q 181 766 54 629 q 496 903 309 903 q 755 814 644 903 q 821 922 821 900 l 922 897 m 647 681 q 478 756 578 756 q 310 667 379 756 q 241 443 241 578 q 282 262 241 340 q 647 681 411 408 m 730 438 q 701 592 730 524 q 342 183 575 450 q 492 125 407 125 q 661 214 591 125 q 730 438 730 303 m 722 1146 q 632 1055 722 1138 q 535 960 542 971 l 416 960 q 471 1055 416 971 q 525 1146 525 1139 l 722 1146 z "},"Œ":{"ha":1263,"x_min":52,"x_max":1211,"o":"m 1211 149 l 1205 0 l 640 0 q 469 -24 551 -24 q 161 109 270 -24 q 52 424 52 242 q 169 758 52 612 q 487 903 286 903 q 654 883 557 903 l 1179 883 l 1173 734 q 795 745 944 745 q 802 523 802 650 q 1114 528 923 523 l 1114 389 q 802 395 946 395 q 809 138 802 264 q 1211 149 962 138 m 631 462 q 626 739 631 618 q 472 756 559 756 q 302 665 361 756 q 242 446 242 573 q 307 221 242 317 q 483 125 371 125 q 625 146 572 125 q 631 462 631 278 z "},"Ŕ":{"ha":805,"x_min":76,"x_max":791,"o":"m 791 0 l 590 0 q 469 296 511 240 q 334 353 427 353 q 258 352 294 353 q 264 0 258 178 l 76 0 q 85 462 85 205 q 76 883 85 709 l 193 883 q 278 885 214 883 q 398 887 343 887 q 709 674 709 887 q 532 439 709 505 l 532 429 q 652 322 600 410 q 791 0 703 234 m 536 624 q 363 759 536 759 q 250 749 299 759 q 258 475 258 644 q 321 474 295 474 q 536 624 536 474 m 608 1146 q 518 1055 608 1138 q 421 960 428 971 l 302 960 q 357 1055 302 971 q 411 1146 411 1139 l 608 1146 z "},"Ř":{"ha":805,"x_min":76,"x_max":791,"o":"m 791 0 l 590 0 q 469 296 511 240 q 334 353 427 353 q 258 352 294 353 q 264 0 258 178 l 76 0 q 85 462 85 205 q 76 883 85 709 l 193 883 q 278 885 214 883 q 398 887 343 887 q 709 674 709 887 q 532 439 709 505 l 532 429 q 652 322 600 410 q 791 0 703 234 m 536 624 q 363 759 536 759 q 250 749 299 759 q 258 475 258 644 q 321 474 295 474 q 536 624 536 474 m 612 1146 q 545 1052 612 1135 q 477 960 477 968 l 313 960 q 245 1052 313 968 q 177 1146 177 1135 l 282 1146 q 395 1055 289 1135 q 507 1146 500 1135 l 612 1146 z "},"Ŗ":{"ha":805,"x_min":76,"x_max":791,"o":"m 791 0 l 590 0 q 469 296 511 240 q 334 353 427 353 q 258 352 294 353 q 264 0 258 178 l 76 0 q 85 462 85 205 q 76 883 85 709 l 193 883 q 278 885 214 883 q 398 887 343 887 q 709 674 709 887 q 532 439 709 505 l 532 429 q 652 322 600 410 q 791 0 703 234 m 536 624 q 363 759 536 759 q 250 749 299 759 q 258 475 258 644 q 321 474 295 474 q 536 624 536 474 m 508 -142 q 372 -355 508 -270 l 329 -319 q 368 -213 368 -268 q 325 -144 325 -187 q 350 -76 325 -102 q 419 -49 375 -49 q 484 -76 460 -49 q 508 -142 508 -103 z "},"Ś":{"ha":711,"x_min":45,"x_max":667,"o":"m 667 241 q 286 -24 667 -24 q 45 7 157 -24 l 79 158 q 286 120 189 120 q 442 141 395 120 q 490 212 490 162 q 445 298 490 263 q 288 380 406 330 q 129 480 181 426 q 63 649 63 549 q 150 831 63 766 q 398 897 236 897 q 621 875 531 897 l 596 724 q 398 758 505 758 q 238 672 238 758 q 275 598 238 627 q 417 530 308 574 q 591 427 533 483 q 667 241 667 351 m 618 1146 q 528 1055 618 1138 q 431 960 437 971 l 312 960 q 366 1055 312 971 q 420 1146 420 1139 l 618 1146 z "},"Ŝ":{"ha":711,"x_min":45,"x_max":667,"o":"m 667 241 q 286 -24 667 -24 q 45 7 157 -24 l 79 158 q 286 120 189 120 q 442 141 395 120 q 490 212 490 162 q 445 298 490 263 q 288 380 406 330 q 129 480 181 426 q 63 649 63 549 q 150 831 63 766 q 398 897 236 897 q 621 875 531 897 l 596 724 q 398 758 505 758 q 238 672 238 758 q 275 598 238 627 q 417 530 308 574 q 591 427 533 483 q 667 241 667 351 m 592 960 l 487 960 q 374 1051 480 971 q 262 960 269 971 l 157 960 q 224 1055 157 971 q 292 1146 292 1139 l 456 1146 q 524 1055 456 1139 q 592 960 592 971 z "},"Š":{"ha":711,"x_min":45,"x_max":667,"o":"m 667 241 q 286 -24 667 -24 q 45 7 157 -24 l 79 158 q 286 120 189 120 q 442 141 395 120 q 490 212 490 162 q 445 298 490 263 q 288 380 406 330 q 129 480 181 426 q 63 649 63 549 q 150 831 63 766 q 398 897 236 897 q 621 875 531 897 l 596 724 q 398 758 505 758 q 238 672 238 758 q 275 598 238 627 q 417 530 308 574 q 591 427 533 483 q 667 241 667 351 m 602 1146 q 534 1052 602 1135 q 467 960 467 968 l 302 960 q 235 1052 302 968 q 167 1146 167 1135 l 272 1146 q 385 1055 279 1135 q 497 1146 490 1135 l 602 1146 z "},"Ş":{"ha":726,"x_min":52,"x_max":674,"o":"m 674 241 q 341 -23 674 -7 l 334 -62 q 463 -195 463 -94 q 294 -349 463 -349 l 278 -273 q 326 -253 307 -273 q 346 -208 346 -233 q 258 -123 346 -140 l 275 -24 q 52 7 156 -22 l 85 158 q 293 120 195 120 q 449 141 401 120 q 496 212 496 162 q 452 298 496 263 q 295 380 413 330 q 136 480 188 426 q 70 649 70 549 q 156 831 70 766 q 405 897 243 897 q 628 875 538 897 l 603 724 q 405 758 511 758 q 245 672 245 758 q 282 598 245 627 q 424 530 315 574 q 597 427 540 483 q 674 241 674 351 z "},"Ș":{"ha":711,"x_min":45,"x_max":667,"o":"m 667 241 q 286 -24 667 -24 q 45 7 157 -24 l 79 158 q 286 120 189 120 q 442 141 395 120 q 490 212 490 162 q 445 298 490 263 q 288 380 406 330 q 129 480 181 426 q 63 649 63 549 q 150 831 63 766 q 398 897 236 897 q 621 875 531 897 l 596 724 q 398 758 505 758 q 238 672 238 758 q 275 598 238 627 q 417 530 308 574 q 591 427 533 483 q 667 241 667 351 m 406 -142 q 270 -355 406 -270 l 227 -319 q 266 -213 266 -268 q 222 -144 222 -187 q 248 -76 222 -102 q 317 -49 273 -49 q 382 -76 358 -49 q 406 -142 406 -103 z "},"Ť":{"ha":730,"x_min":15,"x_max":715,"o":"m 715 883 l 711 737 q 455 747 575 747 q 454 462 454 619 q 461 0 454 218 l 271 0 q 280 462 280 216 q 277 747 280 616 q 15 736 182 747 l 20 883 l 715 883 m 582 1146 q 514 1052 582 1135 q 446 960 446 968 l 282 960 q 214 1052 282 968 q 146 1146 146 1135 l 252 1146 q 364 1055 258 1135 q 477 1146 470 1135 l 582 1146 z "},"Ţ":{"ha":730,"x_min":15,"x_max":715,"o":"m 715 883 l 711 737 q 455 747 575 747 q 454 462 454 619 q 461 0 454 218 l 271 0 q 280 462 280 216 q 277 747 280 616 q 15 736 182 747 l 20 883 l 715 883 m 454 -142 q 319 -355 454 -270 l 275 -319 q 315 -213 315 -268 q 271 -144 271 -187 q 296 -76 271 -102 q 366 -49 321 -49 q 431 -76 407 -49 q 454 -142 454 -103 z "},"Ŧ":{"ha":730,"x_min":15,"x_max":715,"o":"m 715 883 l 711 737 q 455 747 575 747 q 454 531 454 648 l 672 531 l 665 431 l 454 431 q 461 0 454 203 l 271 0 q 280 431 279 201 l 62 431 l 69 531 l 280 531 q 277 747 279 646 q 15 736 182 747 l 20 883 l 715 883 z "},"Ù":{"ha":913,"x_min":83,"x_max":831,"o":"m 831 883 q 825 427 825 655 q 456 -23 825 -23 q 181 77 273 -23 q 89 435 89 176 q 83 883 89 663 l 275 883 q 266 441 266 654 q 313 185 266 254 q 460 116 361 116 q 610 185 564 116 q 656 442 656 254 q 647 883 656 649 l 831 883 m 545 960 l 427 960 q 330 1055 420 971 q 239 1146 239 1138 l 437 1146 q 491 1055 437 1139 q 545 960 545 971 z "},"Ú":{"ha":913,"x_min":83,"x_max":831,"o":"m 831 883 q 825 427 825 655 q 456 -23 825 -23 q 181 77 273 -23 q 89 435 89 176 q 83 883 89 663 l 275 883 q 266 441 266 654 q 313 185 266 254 q 460 116 361 116 q 610 185 564 116 q 656 442 656 254 q 647 883 656 649 l 831 883 m 695 1146 q 605 1055 695 1138 q 508 960 515 971 l 389 960 q 444 1055 389 971 q 498 1146 498 1139 l 695 1146 z "},"Û":{"ha":913,"x_min":83,"x_max":831,"o":"m 831 883 q 825 427 825 655 q 456 -23 825 -23 q 181 77 273 -23 q 89 435 89 176 q 83 883 89 663 l 275 883 q 266 441 266 654 q 313 185 266 254 q 460 116 361 116 q 610 185 564 116 q 656 442 656 254 q 647 883 656 649 l 831 883 m 676 960 l 571 960 q 458 1051 564 971 q 346 960 353 971 l 241 960 q 309 1055 241 971 q 376 1146 376 1139 l 541 1146 q 608 1055 541 1139 q 676 960 676 971 z "},"Ũ":{"ha":913,"x_min":83,"x_max":831,"o":"m 831 883 q 825 427 825 655 q 456 -23 825 -23 q 181 77 273 -23 q 89 435 89 176 q 83 883 89 663 l 275 883 q 266 441 266 654 q 313 185 266 254 q 460 116 361 116 q 610 185 564 116 q 656 442 656 254 q 647 883 656 649 l 831 883 m 734 1102 q 560 969 658 969 q 478 985 529 969 q 399 1000 427 1000 q 280 955 338 1000 l 220 1006 q 393 1132 296 1132 q 477 1116 427 1132 q 554 1101 528 1101 q 673 1153 616 1101 l 734 1102 z "},"Ü":{"ha":913,"x_min":83,"x_max":831,"o":"m 831 883 q 825 427 825 655 q 456 -23 825 -23 q 181 77 273 -23 q 89 435 89 176 q 83 883 89 663 l 275 883 q 266 441 266 654 q 313 185 266 254 q 460 116 361 116 q 610 185 564 116 q 656 442 656 254 q 647 883 656 649 l 831 883 m 690 1063 q 664 994 690 1023 q 589 964 637 964 q 525 990 548 964 q 503 1051 503 1015 q 530 1119 503 1090 q 606 1148 557 1148 q 668 1123 646 1148 q 690 1063 690 1098 m 422 1063 q 396 994 422 1023 q 321 964 369 964 q 258 990 281 964 q 235 1051 235 1015 q 262 1119 235 1090 q 338 1148 290 1148 q 400 1123 378 1148 q 422 1063 422 1098 z "},"Ū":{"ha":913,"x_min":83,"x_max":831,"o":"m 831 883 q 825 427 825 655 q 456 -23 825 -23 q 181 77 273 -23 q 89 435 89 176 q 83 883 89 663 l 275 883 q 266 441 266 654 q 313 185 266 254 q 460 116 361 116 q 610 185 564 116 q 656 442 656 254 q 647 883 656 649 l 831 883 m 635 1099 l 627 981 l 285 981 l 292 1099 l 635 1099 z "},"Ŭ":{"ha":913,"x_min":83,"x_max":831,"o":"m 831 883 q 825 427 825 655 q 456 -23 825 -23 q 181 77 273 -23 q 89 435 89 176 q 83 883 89 663 l 275 883 q 266 441 266 654 q 313 185 266 254 q 460 116 361 116 q 610 185 564 116 q 656 442 656 254 q 647 883 656 649 l 831 883 m 690 1105 q 468 935 626 935 q 245 1105 301 935 l 334 1146 q 467 1046 383 1046 q 600 1146 549 1046 l 690 1105 z "},"Ů":{"ha":913,"x_min":83,"x_max":831,"o":"m 831 883 q 825 427 825 655 q 456 -23 825 -23 q 181 77 273 -23 q 89 435 89 176 q 83 883 89 663 l 275 883 q 266 441 266 654 q 313 185 266 254 q 460 116 361 116 q 610 185 564 116 q 656 442 656 254 q 647 883 656 649 l 831 883 m 626 1088 q 573 965 626 1010 q 453 919 521 919 q 348 958 392 919 q 303 1069 303 997 q 356 1191 303 1146 q 476 1236 408 1236 q 582 1197 537 1236 q 626 1088 626 1159 m 549 1082 q 526 1145 549 1123 q 471 1166 503 1166 q 408 1141 435 1166 q 381 1073 381 1116 q 404 1010 381 1032 q 459 988 427 988 q 522 1014 494 988 q 549 1082 549 1039 z "},"Ű":{"ha":913,"x_min":83,"x_max":831,"o":"m 831 883 q 825 427 825 655 q 456 -23 825 -23 q 181 77 273 -23 q 89 435 89 176 q 83 883 89 663 l 275 883 q 266 441 266 654 q 313 185 266 254 q 460 116 361 116 q 610 185 564 116 q 656 442 656 254 q 647 883 656 649 l 831 883 m 505 1146 q 443 1051 505 1131 q 374 960 380 971 l 273 960 q 296 1052 273 971 q 320 1146 320 1132 l 505 1146 m 768 1146 q 705 1051 768 1131 q 636 960 643 971 l 535 960 q 559 1052 535 971 q 583 1146 583 1132 l 768 1146 z "},"Ų":{"ha":913,"x_min":83,"x_max":831,"o":"m 650 -317 q 556 -330 608 -330 q 415 -290 459 -330 q 370 -183 370 -250 q 491 -28 370 -72 l 491 -22 q 435 -23 474 -23 q 183 73 277 -23 q 89 455 89 170 q 83 883 89 663 l 275 883 q 266 441 266 654 q 313 185 266 254 q 460 116 361 116 q 610 185 564 116 q 656 448 656 255 q 647 883 656 649 l 831 883 q 825 427 825 655 q 629 10 825 99 q 497 -137 497 -52 q 578 -223 497 -223 q 631 -216 599 -223 l 650 -317 z "},"Ẁ":{"ha":1273,"x_min":7,"x_max":1265,"o":"m 1265 883 q 1130 435 1265 820 q 994 0 994 51 l 815 0 q 733 302 815 54 q 635 652 646 568 l 623 652 q 532 299 612 567 q 458 0 458 49 l 275 0 q 141 454 275 64 q 7 883 7 844 l 222 883 q 300 543 222 840 q 377 189 377 245 l 388 189 q 471 536 388 245 q 553 883 553 827 l 747 883 q 829 530 747 832 q 912 189 912 228 l 923 189 q 998 521 923 238 q 1073 883 1073 804 l 1265 883 m 713 960 l 595 960 q 498 1055 588 971 q 408 1146 408 1138 l 605 1146 q 659 1055 605 1139 q 713 960 713 971 z "},"Ẃ":{"ha":1273,"x_min":7,"x_max":1265,"o":"m 1265 883 q 1130 435 1265 820 q 994 0 994 51 l 815 0 q 733 302 815 54 q 635 652 646 568 l 623 652 q 532 299 612 567 q 458 0 458 49 l 275 0 q 141 454 275 64 q 7 883 7 844 l 222 883 q 300 543 222 840 q 377 189 377 245 l 388 189 q 471 536 388 245 q 553 883 553 827 l 747 883 q 829 530 747 832 q 912 189 912 228 l 923 189 q 998 521 923 238 q 1073 883 1073 804 l 1265 883 m 875 1146 q 785 1055 875 1138 q 688 960 694 971 l 569 960 q 623 1055 569 971 q 677 1146 677 1139 l 875 1146 z "},"Ŵ":{"ha":1273,"x_min":7,"x_max":1265,"o":"m 1265 883 q 1130 435 1265 820 q 994 0 994 51 l 815 0 q 733 302 815 54 q 635 652 646 568 l 623 652 q 532 299 612 567 q 458 0 458 49 l 275 0 q 141 454 275 64 q 7 883 7 844 l 222 883 q 300 543 222 840 q 377 189 377 245 l 388 189 q 471 536 388 245 q 553 883 553 827 l 747 883 q 829 530 747 832 q 912 189 912 228 l 923 189 q 998 521 923 238 q 1073 883 1073 804 l 1265 883 m 866 960 l 761 960 q 648 1051 754 971 q 536 960 543 971 l 431 960 q 498 1055 431 971 q 566 1146 566 1139 l 730 1146 q 798 1055 730 1139 q 866 960 866 971 z "},"Ẅ":{"ha":1273,"x_min":7,"x_max":1265,"o":"m 1265 883 q 1130 435 1265 820 q 994 0 994 51 l 815 0 q 733 302 815 54 q 635 652 646 568 l 623 652 q 532 299 612 567 q 458 0 458 49 l 275 0 q 141 454 275 64 q 7 883 7 844 l 222 883 q 300 543 222 840 q 377 189 377 245 l 388 189 q 471 536 388 245 q 553 883 553 827 l 747 883 q 829 530 747 832 q 912 189 912 228 l 923 189 q 998 521 923 238 q 1073 883 1073 804 l 1265 883 m 868 1063 q 841 994 868 1023 q 766 964 814 964 q 703 990 726 964 q 680 1051 680 1015 q 708 1119 680 1090 q 783 1148 735 1148 q 846 1123 824 1148 q 868 1063 868 1098 m 600 1063 q 573 994 600 1023 q 498 964 547 964 q 436 990 458 964 q 413 1051 413 1015 q 440 1119 413 1090 q 515 1148 467 1148 q 578 1123 556 1148 q 600 1063 600 1098 z "},"Ỳ":{"ha":766,"x_min":7,"x_max":759,"o":"m 759 883 q 682 733 759 855 q 537 501 563 547 q 460 297 460 363 q 468 0 460 148 l 275 0 q 283 299 283 149 q 212 509 283 368 q 79 741 178 574 q 7 883 7 861 l 220 883 q 306 677 220 859 q 391 443 391 496 l 401 443 q 485 665 401 492 q 568 883 568 839 l 759 883 m 463 960 l 344 960 q 247 1055 337 971 q 157 1146 157 1138 l 354 1146 q 408 1055 354 1139 q 463 960 463 971 z "},"Ý":{"ha":766,"x_min":7,"x_max":759,"o":"m 759 883 q 682 733 759 855 q 537 501 563 547 q 460 297 460 363 q 468 0 460 148 l 275 0 q 283 299 283 149 q 212 509 283 368 q 79 741 178 574 q 7 883 7 861 l 220 883 q 306 677 220 859 q 391 443 391 496 l 401 443 q 485 665 401 492 q 568 883 568 839 l 759 883 m 640 1146 q 550 1055 640 1138 q 453 960 460 971 l 334 960 q 389 1055 334 971 q 443 1146 443 1139 l 640 1146 z "},"Ŷ":{"ha":766,"x_min":7,"x_max":759,"o":"m 759 883 q 682 733 759 855 q 537 501 563 547 q 460 297 460 363 q 468 0 460 148 l 275 0 q 283 299 283 149 q 212 509 283 368 q 79 741 178 574 q 7 883 7 861 l 220 883 q 306 677 220 859 q 391 443 391 496 l 401 443 q 485 665 401 492 q 568 883 568 839 l 759 883 m 611 960 l 506 960 q 393 1051 499 971 q 281 960 288 971 l 176 960 q 243 1055 176 971 q 311 1146 311 1139 l 475 1146 q 543 1055 475 1139 q 611 960 611 971 z "},"Ÿ":{"ha":766,"x_min":7,"x_max":759,"o":"m 759 883 q 682 733 759 855 q 537 501 563 547 q 460 297 460 363 q 468 0 460 148 l 275 0 q 283 299 283 149 q 212 509 283 368 q 79 741 178 574 q 7 883 7 861 l 220 883 q 306 677 220 859 q 391 443 391 496 l 401 443 q 485 665 401 492 q 568 883 568 839 l 759 883 m 620 1063 q 593 994 620 1023 q 518 964 566 964 q 455 990 477 964 q 432 1051 432 1015 q 459 1119 432 1090 q 535 1148 487 1148 q 598 1123 576 1148 q 620 1063 620 1098 m 352 1063 q 325 994 352 1023 q 250 964 298 964 q 188 990 210 964 q 165 1051 165 1015 q 192 1119 165 1090 q 267 1148 219 1148 q 330 1123 308 1148 q 352 1063 352 1098 z "},"Ź":{"ha":715,"x_min":52,"x_max":663,"o":"m 663 153 l 658 0 l 52 0 l 62 139 q 281 463 136 237 q 439 739 439 709 l 439 750 q 64 734 277 750 l 68 883 l 648 883 l 639 743 q 430 424 564 640 q 278 148 278 180 l 278 138 q 663 153 420 138 m 604 1146 q 514 1055 604 1138 q 417 960 424 971 l 298 960 q 353 1055 298 971 q 407 1146 407 1139 l 604 1146 z "},"Ž":{"ha":715,"x_min":52,"x_max":663,"o":"m 663 153 l 658 0 l 52 0 l 62 139 q 281 463 136 237 q 439 739 439 709 l 439 750 q 64 734 277 750 l 68 883 l 648 883 l 639 743 q 430 424 564 640 q 278 148 278 180 l 278 138 q 663 153 420 138 m 566 1146 q 498 1052 566 1135 q 430 960 430 968 l 266 960 q 198 1052 266 968 q 130 1146 130 1135 l 235 1146 q 348 1055 242 1135 q 460 1146 454 1135 l 566 1146 z "},"Ż":{"ha":715,"x_min":52,"x_max":663,"o":"m 663 153 l 658 0 l 52 0 l 62 139 q 281 463 136 237 q 439 739 439 709 l 439 750 q 64 734 277 750 l 68 883 l 648 883 l 639 743 q 430 424 564 640 q 278 148 278 180 l 278 138 q 663 153 420 138 m 489 1062 q 457 981 489 1016 q 370 947 426 947 q 295 977 322 947 q 269 1048 269 1006 q 300 1128 269 1095 q 389 1162 332 1162 q 463 1133 437 1162 q 489 1062 489 1103 z "},"Ŋ":{"ha":923,"x_min":98,"x_max":825,"o":"m 825 0 q 758 -209 825 -143 q 463 -300 667 -297 l 448 -165 q 609 -112 548 -161 q 669 24 669 -62 q 471 294 626 76 q 249 677 276 574 l 238 677 q 255 408 255 528 q 264 0 255 241 l 98 0 q 108 462 108 210 q 98 883 108 709 l 299 883 q 467 596 299 847 q 671 235 645 330 l 682 235 q 665 506 665 386 q 656 883 665 690 l 825 883 q 816 462 816 715 q 820 217 816 336 q 825 61 825 97 q 825 0 825 24 z "},"Ð":{"ha":896,"x_min":7,"x_max":844,"o":"m 844 472 q 721 136 844 281 q 380 -8 598 -8 q 98 0 274 -8 q 106 395 106 168 q 7 385 68 392 l 14 507 q 106 506 68 506 q 98 883 106 714 l 216 883 q 304 885 246 883 q 392 887 363 887 q 731 768 619 887 q 844 472 844 648 m 659 443 q 581 661 659 571 q 351 751 503 751 q 271 746 316 751 q 278 511 279 652 q 501 528 345 514 l 495 409 q 278 404 448 409 q 284 140 278 252 q 376 132 328 132 q 588 222 518 132 q 659 443 659 313 z "},"Þ":{"ha":772,"x_min":98,"x_max":742,"o":"m 742 541 q 621 303 742 381 q 313 224 500 224 l 281 224 q 286 0 281 140 l 98 0 q 106 464 106 215 q 98 883 106 706 l 290 883 q 284 773 286 834 q 435 777 362 777 q 653 718 564 777 q 742 541 742 660 m 567 504 q 374 649 567 649 q 282 639 330 649 q 281 347 281 509 l 319 347 q 567 504 567 347 z "},"a":{"ha":682,"x_min":50,"x_max":627,"o":"m 627 1 l 467 -5 q 456 47 456 24 l 448 47 q 246 -17 373 -17 q 105 30 161 -17 q 50 155 50 77 q 137 324 50 258 q 442 394 224 390 q 444 417 444 406 q 408 514 444 490 q 279 537 373 537 q 79 510 176 537 l 94 635 q 354 667 186 667 q 544 615 477 667 q 610 435 610 564 q 608 331 610 406 q 606 231 606 256 q 627 1 606 90 m 446 142 q 442 300 442 233 q 211 182 211 300 q 313 102 211 102 q 446 142 393 102 z "},"b":{"ha":770,"x_min":60,"x_max":724,"o":"m 724 350 q 640 92 724 203 q 408 -20 555 -20 q 255 26 300 -20 l 246 26 l 233 0 l 73 0 q 82 504 82 238 q 60 954 82 754 l 254 964 q 248 607 248 806 l 256 607 q 441 667 324 667 q 647 573 571 667 q 724 350 724 479 m 543 332 q 500 479 543 417 q 382 541 457 541 q 245 486 288 541 q 255 137 245 254 q 366 104 298 104 q 499 171 456 104 q 543 332 543 237 z "},"c":{"ha":618,"x_min":47,"x_max":589,"o":"m 589 142 l 577 13 q 410 -20 515 -20 q 141 78 235 -20 q 47 313 47 176 q 145 561 47 455 q 414 667 243 667 q 563 648 498 667 l 540 510 q 400 536 477 536 q 271 478 318 536 q 223 335 223 420 q 279 179 223 243 q 439 115 336 115 q 589 142 499 115 z "},"d":{"ha":764,"x_min":47,"x_max":696,"o":"m 696 1 l 536 -5 q 531 45 531 19 l 521 45 q 330 -20 446 -20 q 123 75 200 -20 q 47 298 47 169 q 130 557 47 447 q 362 667 214 667 q 507 631 458 667 l 516 631 q 500 954 516 791 l 692 959 q 682 505 682 801 q 696 1 682 204 m 526 155 q 516 513 526 371 q 404 545 469 545 q 271 479 315 545 q 228 316 228 412 q 270 169 228 231 q 387 106 312 106 q 526 155 486 106 z "},"e":{"ha":711,"x_min":47,"x_max":665,"o":"m 665 391 q 661 301 665 357 l 224 294 q 290 166 233 217 q 437 115 346 115 q 654 146 539 115 l 640 14 q 408 -20 547 -20 q 140 79 233 -20 q 47 315 47 177 q 135 566 47 460 q 381 672 224 672 q 595 594 525 672 q 665 391 665 516 m 506 397 q 373 553 506 553 q 222 392 246 553 l 506 397 z "},"f":{"ha":503,"x_min":33,"x_max":500,"o":"m 500 962 l 475 842 q 396 851 437 851 q 329 806 347 851 q 311 633 311 762 q 477 638 371 633 l 471 503 q 311 507 366 507 q 321 0 311 252 l 142 0 q 152 507 152 248 q 33 503 112 507 l 39 637 q 152 633 111 633 q 381 974 152 974 q 500 962 450 974 m 235 644 z "},"g":{"ha":765,"x_min":20,"x_max":752,"o":"m 752 738 l 737 612 q 605 581 631 612 l 605 572 q 645 458 645 522 q 573 293 645 361 q 360 224 502 224 q 247 235 291 224 q 211 193 211 219 q 254 135 211 151 q 454 118 297 118 q 726 -67 726 118 q 613 -274 726 -197 q 338 -351 500 -351 q 20 -151 20 -351 q 56 -46 20 -90 q 138 6 92 -3 l 138 16 q 81 126 81 52 q 159 251 81 201 l 159 260 q 50 432 50 315 q 125 599 50 532 q 359 666 201 666 q 534 625 467 666 l 543 625 q 675 753 563 753 q 752 738 719 753 m 559 -117 q 520 -45 559 -67 q 389 -22 482 -22 q 235 -16 313 -22 q 176 -121 176 -51 q 349 -251 176 -251 q 503 -214 446 -251 q 559 -117 559 -178 m 479 441 q 439 534 479 502 q 349 566 400 566 q 260 535 298 566 q 222 444 222 504 q 261 353 222 384 q 353 321 300 321 q 440 352 402 321 q 479 441 479 382 z "},"h":{"ha":764,"x_min":60,"x_max":688,"o":"m 688 0 l 508 0 q 523 334 523 172 q 492 492 523 454 q 392 530 462 530 q 247 480 318 530 q 254 0 247 192 l 73 0 q 81 504 81 210 q 60 954 81 774 l 252 964 q 241 585 241 746 l 250 585 q 455 667 340 667 q 626 617 564 667 q 688 443 688 568 q 687 390 688 430 q 685 338 685 351 q 688 0 685 224 z "},"i":{"ha":346,"x_min":72,"x_max":299,"o":"m 268 0 l 85 0 q 95 322 95 140 q 72 638 95 503 l 267 658 q 258 322 258 526 q 268 0 258 148 m 299 849 q 268 768 299 803 q 180 734 236 734 q 105 764 132 734 q 79 836 79 793 q 110 916 79 882 q 199 949 142 949 q 273 920 247 949 q 299 849 299 890 z "},"j":{"ha":346,"x_min":14,"x_max":297,"o":"m 267 659 q 258 250 258 453 q 260 105 258 197 q 263 -19 263 12 q 63 -309 263 -269 l 14 -214 q 79 -101 62 -176 q 96 215 96 -26 q 72 640 96 488 l 267 659 m 297 850 q 265 769 297 804 q 177 734 233 734 q 103 764 130 734 q 76 836 76 794 q 108 916 76 882 q 197 950 140 950 q 271 921 245 950 q 297 850 297 891 z "},"k":{"ha":709,"x_min":62,"x_max":698,"o":"m 698 0 l 490 0 q 387 170 490 25 q 256 315 284 315 l 247 315 q 255 0 247 176 l 75 0 q 83 504 83 317 q 62 954 83 763 l 255 964 q 245 504 245 707 q 246 404 245 478 l 256 404 q 363 513 275 404 q 452 644 452 623 l 654 644 q 562 527 654 623 q 413 394 470 431 l 413 384 q 587 183 476 340 q 698 0 698 27 z "},"l":{"ha":358,"x_min":82,"x_max":278,"o":"m 278 0 l 93 0 q 103 504 103 233 q 82 954 103 768 l 278 964 q 268 504 268 772 q 278 0 268 231 z "},"m":{"ha":1156,"x_min":49,"x_max":1080,"o":"m 1080 0 l 901 0 q 915 334 915 172 q 884 492 915 455 q 784 530 852 530 q 668 490 729 530 q 665 338 665 405 q 669 0 665 224 l 488 0 q 503 361 503 186 q 477 491 503 452 q 372 530 452 530 q 249 480 298 530 q 252 0 252 212 l 70 0 q 82 334 82 212 q 49 640 82 492 l 222 659 l 234 587 l 245 587 q 444 667 333 667 q 638 587 582 667 l 649 587 q 848 667 749 667 q 1022 617 963 667 q 1080 436 1080 567 q 1079 387 1080 423 q 1078 338 1078 351 q 1080 0 1078 224 z "},"n":{"ha":764,"x_min":49,"x_max":688,"o":"m 688 0 l 508 0 q 523 347 523 172 q 491 492 523 454 q 395 530 460 530 q 249 477 318 530 q 252 0 252 212 l 70 0 q 82 334 82 212 q 49 640 82 496 l 222 659 l 234 587 l 245 587 q 458 667 338 667 q 626 617 563 667 q 688 436 688 568 q 687 384 688 416 q 685 316 685 351 q 688 0 685 224 z "},"o":{"ha":776,"x_min":47,"x_max":729,"o":"m 729 337 q 624 70 729 166 q 376 -26 519 -26 q 144 61 241 -26 q 47 309 47 149 q 153 577 47 480 q 401 674 258 674 q 632 586 536 674 q 729 337 729 497 m 552 317 q 506 482 552 415 q 386 549 460 549 q 269 486 314 549 q 224 330 224 424 q 270 165 224 232 q 390 98 316 98 q 507 161 462 98 q 552 317 552 223 z "},"p":{"ha":777,"x_min":56,"x_max":730,"o":"m 730 350 q 646 92 730 203 q 416 -20 562 -20 q 267 26 307 -20 l 258 26 q 263 -310 258 -140 l 79 -310 q 91 139 91 -115 q 56 640 91 467 l 229 659 l 239 600 l 250 600 q 448 667 323 667 q 654 573 578 667 q 730 350 730 479 m 549 332 q 507 479 549 418 q 389 541 464 541 q 252 486 295 541 q 262 137 262 296 q 372 104 304 104 q 506 171 463 104 q 549 332 549 237 z "},"q":{"ha":770,"x_min":47,"x_max":701,"o":"m 701 -309 l 520 -309 q 528 45 528 -123 l 517 45 q 330 -20 447 -20 q 123 75 200 -20 q 47 298 47 169 q 132 557 47 448 q 362 667 216 667 q 525 627 470 667 l 534 627 l 558 644 l 701 655 q 692 194 692 442 q 701 -309 692 -90 m 528 162 q 520 512 528 385 q 404 545 469 545 q 272 479 315 545 q 228 316 228 413 q 270 169 228 231 q 387 106 312 106 q 528 162 486 106 z "},"r":{"ha":535,"x_min":52,"x_max":523,"o":"m 523 644 l 484 486 q 382 506 433 506 q 250 416 282 506 q 254 0 250 146 l 74 0 q 85 334 85 204 q 52 640 85 495 l 224 659 q 236 571 236 584 l 247 571 q 413 667 309 667 q 523 644 462 667 z "},"s":{"ha":583,"x_min":43,"x_max":536,"o":"m 536 185 q 235 -18 536 -18 q 43 5 125 -18 l 66 139 q 235 109 151 109 q 348 122 317 109 q 380 168 380 136 q 266 262 380 217 q 121 339 166 301 q 58 469 58 392 q 125 614 58 559 q 321 669 193 669 q 509 648 441 669 l 486 513 q 321 543 410 543 q 212 488 212 543 q 235 442 212 459 q 330 398 258 425 q 473 324 428 362 q 536 185 536 270 z "},"t":{"ha":504,"x_min":33,"x_max":477,"o":"m 477 127 l 466 6 q 347 -14 418 -14 q 181 45 237 -14 q 125 275 125 105 q 127 507 125 378 q 33 503 92 507 l 38 637 q 135 633 90 633 q 140 822 136 669 l 301 842 q 291 633 291 707 q 461 638 348 633 l 456 503 q 288 507 353 507 q 287 318 287 417 q 311 156 287 197 q 397 115 336 115 q 477 127 435 115 m 222 644 z "},"u":{"ha":751,"x_min":58,"x_max":682,"o":"m 682 1 l 523 -5 q 512 54 512 32 l 501 54 q 294 -20 412 -20 q 125 39 182 -20 q 68 273 68 98 q 70 332 68 294 q 71 399 71 370 q 58 639 71 474 l 247 646 q 236 399 236 515 q 261 175 236 233 q 358 117 286 117 q 495 155 437 117 q 487 640 495 512 l 670 646 q 663 313 663 517 q 682 1 663 162 z "},"v":{"ha":680,"x_min":18,"x_max":662,"o":"m 662 644 q 541 322 662 605 q 419 0 419 39 l 234 0 q 126 330 234 43 q 18 644 18 616 l 216 644 q 283 409 216 614 q 350 168 350 203 l 359 168 q 422 395 359 200 q 486 644 486 591 l 662 644 z "},"w":{"ha":1094,"x_min":22,"x_max":1072,"o":"m 1072 644 q 959 327 1072 606 q 846 0 846 48 l 688 0 q 633 192 688 31 q 545 465 564 393 l 534 465 q 450 195 516 395 q 396 0 396 37 l 237 0 q 130 330 237 41 q 22 644 22 618 l 218 644 q 277 411 218 616 q 336 168 336 206 l 347 168 q 414 411 347 214 q 482 644 482 607 l 642 644 q 708 410 642 618 q 774 168 774 202 l 783 168 q 843 398 783 205 q 903 644 903 591 l 1072 644 z "},"x":{"ha":715,"x_min":23,"x_max":694,"o":"m 694 0 l 481 0 q 426 122 481 18 q 345 260 373 220 l 336 260 q 262 124 313 229 q 212 0 212 19 l 23 0 q 121 159 23 16 q 258 340 219 301 l 258 351 q 140 503 225 386 q 49 644 49 629 l 260 644 q 305 539 260 627 q 373 422 349 454 l 381 422 q 444 537 402 449 q 486 644 486 626 l 667 644 q 577 509 667 631 q 458 359 486 386 l 458 349 q 593 165 496 307 q 694 0 694 20 z "},"y":{"ha":680,"x_min":24,"x_max":656,"o":"m 656 644 q 559 365 656 600 q 423 -4 449 94 q 304 -238 379 -174 q 89 -300 233 -300 l 75 -170 q 214 -122 159 -170 q 268 6 268 -74 q 146 359 268 87 q 24 644 24 631 l 233 644 q 295 414 233 621 q 357 162 357 208 l 366 162 q 422 394 366 201 q 478 644 478 587 l 656 644 z "},"z":{"ha":604,"x_min":50,"x_max":566,"o":"m 566 136 l 562 0 l 50 0 l 59 130 q 218 318 93 160 q 353 511 353 487 l 353 522 q 56 511 191 522 l 59 644 l 551 644 l 541 514 q 389 324 498 467 q 260 133 260 157 l 260 123 q 566 136 414 123 z "},"à":{"ha":682,"x_min":50,"x_max":627,"o":"m 627 1 l 467 -5 q 456 47 456 24 l 448 47 q 246 -17 373 -17 q 105 30 161 -17 q 50 155 50 77 q 137 324 50 258 q 442 394 224 390 q 444 417 444 406 q 408 514 444 490 q 279 537 373 537 q 79 510 176 537 l 94 635 q 354 667 186 667 q 544 615 477 667 q 610 435 610 564 q 608 331 610 406 q 606 231 606 256 q 627 1 606 90 m 446 142 q 442 300 442 233 q 211 182 211 300 q 313 102 211 102 q 446 142 393 102 m 415 736 l 296 736 q 203 848 296 747 q 109 956 109 948 l 293 956 q 354 848 293 949 q 415 736 415 747 z "},"á":{"ha":682,"x_min":50,"x_max":627,"o":"m 627 1 l 467 -5 q 456 47 456 24 l 448 47 q 246 -17 373 -17 q 105 30 161 -17 q 50 155 50 77 q 137 324 50 258 q 442 394 224 390 q 444 417 444 406 q 408 514 444 490 q 279 537 373 537 q 79 510 176 537 l 94 635 q 354 667 186 667 q 544 615 477 667 q 610 435 610 564 q 608 331 610 406 q 606 231 606 256 q 627 1 606 90 m 446 142 q 442 300 442 233 q 211 182 211 300 q 313 102 211 102 q 446 142 393 102 m 563 956 q 469 848 563 948 q 376 736 376 747 l 257 736 q 318 848 257 747 q 379 956 379 949 l 563 956 z "},"â":{"ha":682,"x_min":50,"x_max":627,"o":"m 627 1 l 467 -5 q 456 47 456 24 l 448 47 q 246 -17 373 -17 q 105 30 161 -17 q 50 155 50 77 q 137 324 50 258 q 442 394 224 390 q 444 417 444 406 q 408 514 444 490 q 279 537 373 537 q 79 510 176 537 l 94 635 q 354 667 186 667 q 544 615 477 667 q 610 435 610 564 q 608 331 610 406 q 606 231 606 256 q 627 1 606 90 m 446 142 q 442 300 442 233 q 211 182 211 300 q 313 102 211 102 q 446 142 393 102 m 543 736 l 438 736 q 326 868 438 747 q 213 736 213 747 l 108 736 q 172 848 108 747 q 237 956 237 949 l 414 956 q 479 848 414 949 q 543 736 543 747 z "},"ã":{"ha":682,"x_min":50,"x_max":627,"o":"m 627 1 l 467 -5 q 456 47 456 24 l 448 47 q 246 -17 373 -17 q 105 30 161 -17 q 50 155 50 77 q 137 324 50 258 q 442 394 224 390 q 444 417 444 406 q 408 514 444 490 q 279 537 373 537 q 79 510 176 537 l 94 635 q 354 667 186 667 q 544 615 477 667 q 610 435 610 564 q 608 331 610 406 q 606 231 606 256 q 627 1 606 90 m 446 142 q 442 300 442 233 q 211 182 211 300 q 313 102 211 102 q 446 142 393 102 m 610 919 q 437 766 534 766 q 354 781 406 766 q 276 797 303 797 q 157 724 214 797 l 96 775 q 270 928 172 928 q 354 913 304 928 q 431 897 404 897 q 550 970 492 897 l 610 919 z "},"ä":{"ha":682,"x_min":50,"x_max":627,"o":"m 627 1 l 467 -5 q 456 47 456 24 l 448 47 q 246 -17 373 -17 q 105 30 161 -17 q 50 155 50 77 q 137 324 50 258 q 442 394 224 390 q 444 417 444 406 q 408 514 444 490 q 279 537 373 537 q 79 510 176 537 l 94 635 q 354 667 186 667 q 544 615 477 667 q 610 435 610 564 q 608 331 610 406 q 606 231 606 256 q 627 1 606 90 m 446 142 q 442 300 442 233 q 211 182 211 300 q 313 102 211 102 q 446 142 393 102 m 565 848 q 538 780 565 809 q 463 750 511 750 q 400 775 422 750 q 377 837 377 801 q 405 905 377 876 q 480 934 432 934 q 543 909 521 934 q 565 848 565 884 m 297 848 q 270 780 297 809 q 195 750 243 750 q 133 775 155 750 q 110 837 110 801 q 137 905 110 876 q 212 934 164 934 q 275 909 253 934 q 297 848 297 884 z "},"ā":{"ha":682,"x_min":50,"x_max":627,"o":"m 627 1 l 467 -5 q 456 47 456 24 l 448 47 q 246 -17 373 -17 q 105 30 161 -17 q 50 155 50 77 q 137 324 50 258 q 442 394 224 390 q 444 417 444 406 q 408 514 444 490 q 279 537 373 537 q 79 510 176 537 l 94 635 q 354 667 186 667 q 544 615 477 667 q 610 435 610 564 q 608 331 610 406 q 606 231 606 256 q 627 1 606 90 m 446 142 q 442 300 442 233 q 211 182 211 300 q 313 102 211 102 q 446 142 393 102 m 509 905 l 501 787 l 173 787 l 180 905 l 509 905 z "},"ă":{"ha":682,"x_min":50,"x_max":627,"o":"m 627 1 l 467 -5 q 456 47 456 24 l 448 47 q 246 -17 373 -17 q 105 30 161 -17 q 50 155 50 77 q 137 324 50 258 q 442 394 224 390 q 444 417 444 406 q 408 514 444 490 q 279 537 373 537 q 79 510 176 537 l 94 635 q 354 667 186 667 q 544 615 477 667 q 610 435 610 564 q 608 331 610 406 q 606 231 606 256 q 627 1 606 90 m 446 142 q 442 300 442 233 q 211 182 211 300 q 313 102 211 102 q 446 142 393 102 m 571 922 q 349 728 507 728 q 126 922 182 728 l 216 963 q 349 840 278 840 q 481 963 416 840 l 571 922 z "},"å":{"ha":682,"x_min":50,"x_max":627,"o":"m 627 1 l 467 -5 q 456 47 456 24 l 448 47 q 246 -17 373 -17 q 105 30 161 -17 q 50 155 50 77 q 137 324 50 258 q 442 394 224 390 q 444 417 444 406 q 408 514 444 490 q 279 537 373 537 q 79 510 176 537 l 94 635 q 354 667 186 667 q 544 615 477 667 q 610 435 610 564 q 608 331 610 406 q 606 231 606 256 q 627 1 606 90 m 446 142 q 442 300 442 233 q 211 182 211 300 q 313 102 211 102 q 446 142 393 102 m 504 874 q 451 750 504 796 q 331 705 399 705 q 225 744 270 705 q 181 854 181 783 q 234 977 181 932 q 354 1021 286 1021 q 459 983 415 1021 q 504 874 504 945 m 427 868 q 404 930 427 909 q 349 952 381 952 q 286 927 313 952 q 259 859 259 902 q 282 796 259 818 q 337 774 304 774 q 399 799 372 774 q 427 868 427 825 z "},"ǻ":{"ha":682,"x_min":50,"x_max":627,"o":"m 627 1 l 467 -5 q 456 47 456 24 l 448 47 q 246 -17 373 -17 q 105 30 161 -17 q 50 155 50 77 q 137 324 50 258 q 442 394 224 390 q 444 417 444 406 q 408 514 444 490 q 279 537 373 537 q 79 510 176 537 l 94 635 q 354 667 186 667 q 544 615 477 667 q 610 435 610 564 q 608 331 610 406 q 606 231 606 256 q 627 1 606 90 m 446 142 q 442 300 442 233 q 211 182 211 300 q 313 102 211 102 q 446 142 393 102 m 504 861 q 451 738 504 783 q 331 692 399 692 q 225 731 270 692 q 181 842 181 770 q 234 964 181 919 q 354 1008 286 1008 q 459 970 415 1008 q 504 861 504 932 m 427 855 q 404 918 427 896 q 349 939 381 939 q 286 914 313 939 q 259 846 259 889 q 282 783 259 805 q 337 761 304 761 q 399 786 372 761 q 427 855 427 812 m 601 1215 q 511 1124 601 1207 q 414 1029 420 1040 l 295 1029 q 349 1124 295 1040 q 404 1215 404 1208 l 601 1215 z "},"ą":{"ha":682,"x_min":50,"x_max":640,"o":"m 627 0 q 486 -137 486 -21 q 567 -223 486 -223 q 621 -216 588 -223 l 640 -317 q 545 -330 597 -330 q 404 -290 448 -330 q 359 -183 359 -250 q 467 -4 359 -72 q 456 47 456 24 l 448 47 q 246 -17 373 -17 q 105 30 161 -17 q 50 155 50 77 q 137 324 50 258 q 442 394 224 390 q 444 417 444 406 q 408 514 444 490 q 279 537 373 537 q 79 510 176 537 l 94 635 q 354 667 186 667 q 544 615 477 667 q 610 435 610 564 q 608 331 610 406 q 606 231 606 256 q 627 0 606 90 m 446 142 q 442 300 442 233 q 211 182 211 300 q 313 102 211 102 q 446 142 393 102 z "},"æ":{"ha":1093,"x_min":50,"x_max":1046,"o":"m 1046 391 q 1042 301 1046 357 l 608 294 q 672 166 617 216 q 818 115 726 115 q 1035 146 920 115 l 1021 14 q 789 -20 927 -20 q 524 91 618 -20 l 513 91 q 394 7 447 32 q 246 -17 342 -17 q 105 30 161 -17 q 50 155 50 77 q 137 324 50 258 q 442 394 224 390 q 444 417 444 406 q 408 514 444 490 q 278 537 372 537 q 78 510 176 537 l 93 635 q 353 667 185 667 q 551 597 494 667 l 562 597 q 763 672 646 672 q 976 594 907 672 q 1046 391 1046 516 m 472 159 q 439 300 439 229 q 210 182 210 300 q 312 102 210 102 q 472 159 392 102 m 887 397 q 755 553 887 553 q 606 392 623 553 l 887 397 z "},"ǽ":{"ha":1093,"x_min":50,"x_max":1046,"o":"m 1046 391 q 1042 301 1046 357 l 608 294 q 672 166 617 216 q 818 115 726 115 q 1035 146 920 115 l 1021 14 q 789 -20 927 -20 q 524 91 618 -20 l 513 91 q 394 7 447 32 q 246 -17 342 -17 q 105 30 161 -17 q 50 155 50 77 q 137 324 50 258 q 442 394 224 390 q 444 417 444 406 q 408 514 444 490 q 278 537 372 537 q 78 510 176 537 l 93 635 q 353 667 185 667 q 551 597 494 667 l 562 597 q 763 672 646 672 q 976 594 907 672 q 1046 391 1046 516 m 472 159 q 439 300 439 229 q 210 182 210 300 q 312 102 210 102 q 472 159 392 102 m 887 397 q 755 553 887 553 q 606 392 623 553 l 887 397 m 806 956 q 712 848 806 948 q 618 736 618 747 l 500 736 q 561 848 500 747 q 622 956 622 949 l 806 956 z "},"ć":{"ha":618,"x_min":47,"x_max":623,"o":"m 589 142 l 577 13 q 410 -20 515 -20 q 141 78 235 -20 q 47 313 47 176 q 145 561 47 455 q 414 667 243 667 q 563 648 498 667 l 540 510 q 400 536 477 536 q 271 478 318 536 q 223 335 223 420 q 279 179 223 243 q 439 115 336 115 q 589 142 499 115 m 623 956 q 530 848 623 948 q 436 736 436 747 l 317 736 q 378 848 317 747 q 439 956 439 949 l 623 956 z "},"ĉ":{"ha":618,"x_min":47,"x_max":589,"o":"m 589 142 l 577 13 q 410 -20 515 -20 q 141 78 235 -20 q 47 313 47 176 q 145 561 47 455 q 414 667 243 667 q 563 648 498 667 l 540 510 q 400 536 477 536 q 271 478 318 536 q 223 335 223 420 q 279 179 223 243 q 439 115 336 115 q 589 142 499 115 m 585 736 l 480 736 q 368 868 480 747 q 255 736 255 747 l 150 736 q 214 848 150 747 q 279 956 279 949 l 456 956 q 521 848 456 949 q 585 736 585 747 z "},"č":{"ha":618,"x_min":47,"x_max":612,"o":"m 589 142 l 577 13 q 410 -20 515 -20 q 141 78 235 -20 q 47 313 47 176 q 145 561 47 455 q 414 667 243 667 q 563 648 498 667 l 540 510 q 400 536 477 536 q 271 478 318 536 q 223 335 223 420 q 279 179 223 243 q 439 115 336 115 q 589 142 499 115 m 612 956 q 547 845 612 945 q 483 736 483 744 l 305 736 q 241 845 305 744 q 176 956 176 945 l 281 956 q 394 825 281 945 q 507 956 507 945 l 612 956 z "},"ċ":{"ha":618,"x_min":47,"x_max":589,"o":"m 589 142 l 577 13 q 410 -20 515 -20 q 141 78 235 -20 q 47 313 47 176 q 145 561 47 455 q 414 667 243 667 q 563 648 498 667 l 540 510 q 400 536 477 536 q 271 478 318 536 q 223 335 223 420 q 279 179 223 243 q 439 115 336 115 q 589 142 499 115 m 510 849 q 478 768 510 803 q 391 734 447 734 q 316 764 343 734 q 290 836 290 793 q 321 916 290 882 q 410 949 353 949 q 484 920 458 949 q 510 849 510 890 z "},"ç":{"ha":618,"x_min":47,"x_max":589,"o":"m 589 142 l 577 13 q 410 -20 509 -20 q 366 -18 386 -20 l 359 -62 q 487 -195 487 -94 q 320 -349 487 -349 l 304 -273 q 351 -253 331 -273 q 370 -208 370 -233 q 283 -123 370 -140 l 302 -8 q 124 95 202 14 q 47 313 47 176 q 145 561 47 455 q 414 667 243 667 q 563 648 498 667 l 540 510 q 400 536 477 536 q 271 478 318 536 q 223 335 223 420 q 279 179 223 243 q 439 115 336 115 q 589 142 499 115 z "},"ď":{"ha":910,"x_min":47,"x_max":939,"o":"m 696 1 l 536 -5 q 531 45 531 19 l 521 45 q 330 -20 446 -20 q 123 75 200 -20 q 47 298 47 169 q 130 557 47 447 q 362 667 214 667 q 507 631 458 667 l 516 631 q 500 954 516 791 l 692 959 q 682 505 682 801 q 696 1 682 204 m 526 155 q 516 513 526 371 q 404 545 469 545 q 271 479 315 545 q 228 316 228 412 q 270 169 228 231 q 387 106 312 106 q 526 155 486 106 m 939 798 q 800 560 939 648 l 755 597 q 792 715 792 658 q 738 797 738 742 q 767 870 738 839 q 848 901 796 901 q 915 869 890 901 q 939 798 939 838 z "},"đ":{"ha":770,"x_min":47,"x_max":768,"o":"m 768 840 l 762 743 l 684 743 q 682 505 682 637 q 696 1 682 204 l 536 -6 q 531 45 531 19 l 521 45 q 330 -20 446 -20 q 123 70 200 -20 q 47 288 47 159 q 131 536 47 425 q 362 647 215 647 q 507 611 458 647 l 516 611 q 514 743 516 667 l 345 743 l 349 840 l 509 840 q 500 949 506 897 l 692 959 q 686 840 688 907 l 768 840 m 526 155 q 516 492 526 371 q 404 525 469 525 q 271 458 314 525 q 228 306 228 391 q 270 163 228 220 q 387 106 312 106 q 526 155 486 106 z "},"è":{"ha":711,"x_min":47,"x_max":665,"o":"m 665 391 q 661 301 665 357 l 224 294 q 290 166 233 217 q 437 115 346 115 q 654 146 539 115 l 640 14 q 408 -20 547 -20 q 140 79 233 -20 q 47 315 47 177 q 135 566 47 460 q 381 672 224 672 q 595 594 525 672 q 665 391 665 516 m 506 397 q 373 553 506 553 q 222 392 246 553 l 506 397 m 456 736 l 337 736 q 243 848 337 747 q 150 956 150 948 l 334 956 q 395 848 334 949 q 456 736 456 747 z "},"é":{"ha":711,"x_min":47,"x_max":665,"o":"m 665 391 q 661 301 665 357 l 224 294 q 290 166 233 217 q 437 115 346 115 q 654 146 539 115 l 640 14 q 408 -20 547 -20 q 140 79 233 -20 q 47 315 47 177 q 135 566 47 460 q 381 672 224 672 q 595 594 525 672 q 665 391 665 516 m 506 397 q 373 553 506 553 q 222 392 246 553 l 506 397 m 614 956 q 520 848 614 948 q 427 736 427 747 l 308 736 q 369 848 308 747 q 430 956 430 949 l 614 956 z "},"ê":{"ha":711,"x_min":47,"x_max":665,"o":"m 665 391 q 661 301 665 357 l 224 294 q 290 166 233 217 q 437 115 346 115 q 654 146 539 115 l 640 14 q 408 -20 547 -20 q 140 79 233 -20 q 47 315 47 177 q 135 566 47 460 q 381 672 224 672 q 595 594 525 672 q 665 391 665 516 m 506 397 q 373 553 506 553 q 222 392 246 553 l 506 397 m 594 736 l 489 736 q 376 868 489 747 q 264 736 264 747 l 159 736 q 223 848 159 747 q 288 956 288 949 l 465 956 q 530 848 465 949 q 594 736 594 747 z "},"ě":{"ha":711,"x_min":47,"x_max":665,"o":"m 665 391 q 661 301 665 357 l 224 294 q 290 166 233 217 q 437 115 346 115 q 654 146 539 115 l 640 14 q 408 -20 547 -20 q 140 79 233 -20 q 47 315 47 177 q 135 566 47 460 q 381 672 224 672 q 595 594 525 672 q 665 391 665 516 m 506 397 q 373 553 506 553 q 222 392 246 553 l 506 397 m 614 956 q 550 845 614 945 q 486 736 486 744 l 308 736 q 243 845 308 744 q 179 956 179 945 l 284 956 q 397 825 284 945 q 509 956 509 945 l 614 956 z "},"ë":{"ha":711,"x_min":47,"x_max":665,"o":"m 665 391 q 661 301 665 357 l 224 294 q 290 166 233 217 q 437 115 346 115 q 654 146 539 115 l 640 14 q 408 -20 547 -20 q 140 79 233 -20 q 47 315 47 177 q 135 566 47 460 q 381 672 224 672 q 595 594 525 672 q 665 391 665 516 m 506 397 q 373 553 506 553 q 222 392 246 553 l 506 397 m 606 848 q 579 780 606 809 q 504 750 552 750 q 440 775 463 750 q 418 837 418 801 q 445 905 418 876 q 521 934 473 934 q 584 909 562 934 q 606 848 606 884 m 338 848 q 311 780 338 809 q 236 750 284 750 q 173 775 196 750 q 151 837 151 801 q 178 905 151 876 q 253 934 205 934 q 316 909 294 934 q 338 848 338 884 z "},"ē":{"ha":711,"x_min":47,"x_max":665,"o":"m 665 391 q 661 301 665 357 l 224 294 q 290 166 233 217 q 437 115 346 115 q 654 146 539 115 l 640 14 q 408 -20 547 -20 q 140 79 233 -20 q 47 315 47 177 q 135 566 47 460 q 381 672 224 672 q 595 594 525 672 q 665 391 665 516 m 506 397 q 373 553 506 553 q 222 392 246 553 l 506 397 m 558 905 l 550 787 l 222 787 l 229 905 l 558 905 z "},"ĕ":{"ha":711,"x_min":47,"x_max":665,"o":"m 665 391 q 661 301 665 357 l 224 294 q 290 166 233 217 q 437 115 346 115 q 654 146 539 115 l 640 14 q 408 -20 547 -20 q 140 79 233 -20 q 47 315 47 177 q 135 566 47 460 q 381 672 224 672 q 595 594 525 672 q 665 391 665 516 m 506 397 q 373 553 506 553 q 222 392 246 553 l 506 397 m 613 922 q 391 728 549 728 q 168 922 224 728 l 258 963 q 391 840 320 840 q 524 963 458 840 l 613 922 z "},"ė":{"ha":711,"x_min":47,"x_max":665,"o":"m 665 391 q 661 301 665 357 l 224 294 q 290 166 233 217 q 437 115 346 115 q 654 146 539 115 l 640 14 q 408 -20 547 -20 q 140 79 233 -20 q 47 315 47 177 q 135 566 47 460 q 381 672 224 672 q 595 594 525 672 q 665 391 665 516 m 506 397 q 373 553 506 553 q 222 392 246 553 l 506 397 m 497 849 q 466 768 497 803 q 378 734 434 734 q 303 764 330 734 q 277 836 277 793 q 308 916 277 882 q 397 949 340 949 q 471 920 445 949 q 497 849 497 890 z "},"ę":{"ha":711,"x_min":47,"x_max":665,"o":"m 665 391 q 661 301 665 357 l 224 294 q 290 166 233 217 q 437 115 346 115 q 654 146 539 115 l 640 14 q 496 -137 496 -39 q 577 -223 496 -223 q 631 -216 598 -223 l 650 -317 q 555 -330 608 -330 q 414 -290 458 -330 q 370 -183 370 -250 q 467 -24 370 -72 l 467 -18 q 408 -20 439 -20 q 140 79 233 -20 q 47 315 47 177 q 135 566 47 460 q 381 672 224 672 q 595 594 525 672 q 665 391 665 516 m 506 397 q 373 553 506 553 q 222 392 246 553 l 506 397 z "},"ĝ":{"ha":765,"x_min":20,"x_max":752,"o":"m 752 738 l 737 612 q 605 581 631 612 l 605 572 q 645 458 645 522 q 573 293 645 361 q 360 224 502 224 q 247 235 291 224 q 211 193 211 219 q 254 135 211 151 q 454 118 297 118 q 726 -67 726 118 q 613 -274 726 -197 q 338 -351 500 -351 q 20 -151 20 -351 q 56 -46 20 -90 q 138 6 92 -3 l 138 16 q 81 126 81 52 q 159 251 81 201 l 159 260 q 50 432 50 315 q 125 599 50 532 q 359 666 201 666 q 534 625 467 666 l 543 625 q 675 753 563 753 q 752 738 719 753 m 559 -117 q 520 -45 559 -67 q 389 -22 482 -22 q 235 -16 313 -22 q 176 -121 176 -51 q 349 -251 176 -251 q 503 -214 446 -251 q 559 -117 559 -178 m 479 441 q 439 534 479 502 q 349 566 400 566 q 260 535 298 566 q 222 444 222 504 q 261 353 222 384 q 353 321 300 321 q 440 352 402 321 q 479 441 479 382 m 565 736 l 460 736 q 347 868 460 747 q 235 736 235 747 l 130 736 q 194 848 130 747 q 258 956 258 949 l 436 956 q 500 848 436 949 q 565 736 565 747 z "},"ğ":{"ha":765,"x_min":20,"x_max":752,"o":"m 752 738 l 737 612 q 605 581 631 612 l 605 572 q 645 458 645 522 q 573 293 645 361 q 360 224 502 224 q 247 235 291 224 q 211 193 211 219 q 254 135 211 151 q 454 118 297 118 q 726 -67 726 118 q 613 -274 726 -197 q 338 -351 500 -351 q 20 -151 20 -351 q 56 -46 20 -90 q 138 6 92 -3 l 138 16 q 81 126 81 52 q 159 251 81 201 l 159 260 q 50 432 50 315 q 125 599 50 532 q 359 666 201 666 q 534 625 467 666 l 543 625 q 675 753 563 753 q 752 738 719 753 m 559 -117 q 520 -45 559 -67 q 389 -22 482 -22 q 235 -16 313 -22 q 176 -121 176 -51 q 349 -251 176 -251 q 503 -214 446 -251 q 559 -117 559 -178 m 479 441 q 439 534 479 502 q 349 566 400 566 q 260 535 298 566 q 222 444 222 504 q 261 353 222 384 q 353 321 300 321 q 440 352 402 321 q 479 441 479 382 m 588 922 q 366 728 524 728 q 143 922 199 728 l 233 963 q 366 840 295 840 q 498 963 433 840 l 588 922 z "},"ġ":{"ha":765,"x_min":20,"x_max":752,"o":"m 752 738 l 737 612 q 605 581 631 612 l 605 572 q 645 458 645 522 q 573 293 645 361 q 360 224 502 224 q 247 235 291 224 q 211 193 211 219 q 254 135 211 151 q 454 118 297 118 q 726 -67 726 118 q 613 -274 726 -197 q 338 -351 500 -351 q 20 -151 20 -351 q 56 -46 20 -90 q 138 6 92 -3 l 138 16 q 81 126 81 52 q 159 251 81 201 l 159 260 q 50 432 50 315 q 125 599 50 532 q 359 666 201 666 q 534 625 467 666 l 543 625 q 675 753 563 753 q 752 738 719 753 m 559 -117 q 520 -45 559 -67 q 389 -22 482 -22 q 235 -16 313 -22 q 176 -121 176 -51 q 349 -251 176 -251 q 503 -214 446 -251 q 559 -117 559 -178 m 479 441 q 439 534 479 502 q 349 566 400 566 q 260 535 298 566 q 222 444 222 504 q 261 353 222 384 q 353 321 300 321 q 440 352 402 321 q 479 441 479 382 m 474 849 q 443 768 474 803 q 355 734 411 734 q 280 764 307 734 q 254 836 254 793 q 285 916 254 882 q 374 949 317 949 q 448 920 422 949 q 474 849 474 890 z "},"ģ":{"ha":765,"x_min":20,"x_max":752,"o":"m 752 738 l 737 612 q 605 581 631 612 l 605 572 q 645 458 645 522 q 573 293 645 361 q 360 224 502 224 q 247 235 291 224 q 211 193 211 219 q 254 135 211 151 q 454 118 297 118 q 726 -67 726 118 q 613 -274 726 -197 q 338 -351 500 -351 q 20 -151 20 -351 q 56 -46 20 -90 q 138 6 92 -3 l 138 16 q 81 126 81 52 q 159 251 81 201 l 159 260 q 50 432 50 315 q 125 599 50 532 q 359 666 201 666 q 534 625 467 666 l 543 625 q 675 753 563 753 q 752 738 719 753 m 559 -117 q 520 -45 559 -67 q 389 -22 482 -22 q 235 -16 313 -22 q 176 -121 176 -51 q 349 -251 176 -251 q 503 -214 446 -251 q 559 -117 559 -178 m 479 441 q 439 534 479 502 q 349 566 400 566 q 260 535 298 566 q 222 444 222 504 q 261 353 222 384 q 353 321 300 321 q 440 352 402 321 q 479 441 479 382 m 469 838 q 440 765 469 795 q 359 734 411 734 q 293 765 317 734 q 269 836 269 796 q 407 1074 269 987 l 450 1038 q 417 930 417 993 q 469 838 469 896 z "},"ĥ":{"ha":764,"x_min":-62,"x_max":688,"o":"m 688 0 l 508 0 q 523 334 523 172 q 492 492 523 454 q 392 530 462 530 q 247 480 318 530 q 254 0 247 192 l 73 0 q 81 504 81 210 q 60 954 81 774 l 252 964 q 241 585 241 746 l 250 585 q 455 667 340 667 q 626 617 564 667 q 688 443 688 568 q 687 390 688 430 q 685 338 685 351 q 688 0 685 224 m 374 960 l 269 960 q 156 1051 262 971 q 43 960 50 971 l -62 960 q 6 1055 -62 971 q 74 1146 74 1139 l 238 1146 q 306 1055 238 1139 q 374 960 374 971 z "},"ħ":{"ha":764,"x_min":4,"x_max":688,"o":"m 688 0 l 508 0 q 523 334 523 172 q 487 477 523 437 q 392 509 458 509 q 247 460 318 509 q 254 0 247 192 l 73 0 q 81 504 81 210 q 76 743 81 634 l 4 743 l 8 840 l 70 840 q 60 954 66 901 l 252 964 q 246 840 248 899 l 454 840 l 450 743 l 243 743 q 241 564 241 658 l 250 564 q 448 646 341 646 q 621 602 563 646 q 688 422 688 548 q 687 377 688 410 q 685 324 685 344 q 688 0 685 224 z "},"ì":{"ha":346,"x_min":-39,"x_max":268,"o":"m 268 0 l 85 0 q 95 322 95 140 q 72 638 95 503 l 267 658 q 258 322 258 526 q 268 0 258 148 m 267 736 l 148 736 q 54 848 148 747 q -39 956 -39 948 l 144 956 q 205 848 144 949 q 267 736 267 747 z "},"í":{"ha":346,"x_min":72,"x_max":412,"o":"m 268 0 l 85 0 q 95 322 95 140 q 72 638 95 503 l 267 658 q 258 322 258 526 q 268 0 258 148 m 412 956 q 319 848 412 948 q 225 736 225 747 l 106 736 q 168 848 106 747 q 229 956 229 949 l 412 956 z "},"î":{"ha":346,"x_min":-41,"x_max":395,"o":"m 268 0 l 85 0 q 95 322 95 140 q 72 638 95 503 l 267 658 q 258 322 258 526 q 268 0 258 148 m 395 736 l 290 736 q 177 868 290 747 q 64 736 64 747 l -41 736 q 24 848 -41 747 q 88 956 88 949 l 266 956 q 330 848 266 949 q 395 736 395 747 z "},"ĩ":{"ha":346,"x_min":-75,"x_max":439,"o":"m 268 0 l 85 0 q 95 322 95 140 q 72 638 95 503 l 267 658 q 258 322 258 526 q 268 0 258 148 m 439 919 q 266 766 363 766 q 183 781 235 766 q 105 797 132 797 q -14 724 43 797 l -75 775 q 99 928 1 928 q 183 913 133 928 q 260 897 233 897 q 379 970 321 897 l 439 919 z "},"ï":{"ha":346,"x_min":-48,"x_max":407,"o":"m 268 0 l 85 0 q 95 322 95 140 q 72 638 95 503 l 267 658 q 258 322 258 526 q 268 0 258 148 m 407 848 q 380 780 407 809 q 305 750 353 750 q 242 775 264 750 q 219 837 219 801 q 247 905 219 876 q 322 934 274 934 q 385 909 363 934 q 407 848 407 884 m 139 848 q 112 780 139 809 q 37 750 85 750 q -25 775 -3 750 q -48 837 -48 801 q -21 905 -48 876 q 54 934 6 934 q 117 909 95 934 q 139 848 139 884 z "},"ī":{"ha":346,"x_min":7,"x_max":343,"o":"m 268 0 l 85 0 q 95 322 95 140 q 72 638 95 503 l 267 658 q 258 322 258 526 q 268 0 258 148 m 343 905 l 335 787 l 7 787 l 14 905 l 343 905 z "},"ĭ":{"ha":346,"x_min":-43,"x_max":402,"o":"m 268 0 l 85 0 q 95 322 95 140 q 72 638 95 503 l 267 658 q 258 322 258 526 q 268 0 258 148 m 402 922 q 180 728 338 728 q -43 922 14 728 l 47 963 q 180 840 109 840 q 313 963 248 840 l 402 922 z "},"į":{"ha":346,"x_min":-1,"x_max":299,"o":"m 279 -317 q 185 -330 237 -330 q 45 -291 88 -330 q -1 -183 -1 -250 q 85 0 -1 -72 q 95 322 95 140 q 72 638 95 503 l 267 658 q 258 322 258 526 q 268 0 258 148 l 267 0 q 126 -137 126 -21 q 207 -223 126 -223 q 260 -216 228 -223 l 279 -317 m 299 849 q 269 770 299 803 q 180 734 236 734 q 104 765 132 734 q 79 836 79 793 q 109 913 79 882 q 199 949 142 949 q 274 919 247 949 q 299 849 299 890 z "},"ı":{"ha":346,"x_min":72,"x_max":268,"o":"m 268 0 l 85 0 q 95 322 95 140 q 72 638 95 503 l 267 658 q 258 322 258 526 q 268 0 258 148 z "},"ĳ":{"ha":692,"x_min":72,"x_max":643,"o":"m 268 0 l 85 0 q 95 322 95 140 q 72 638 95 503 l 267 658 q 258 322 258 526 q 268 0 258 148 m 299 849 q 268 768 299 803 q 180 734 236 734 q 105 764 132 734 q 79 836 79 793 q 110 916 79 882 q 199 949 142 949 q 273 920 247 949 q 299 849 299 890 m 613 659 q 604 250 604 453 q 606 105 604 197 q 609 -19 609 12 q 409 -309 609 -269 l 359 -214 q 425 -101 408 -176 q 442 215 442 -26 q 418 640 442 488 l 613 659 m 643 850 q 611 769 643 804 q 523 734 579 734 q 449 764 475 734 q 422 836 422 794 q 454 916 422 882 q 543 950 486 950 q 617 921 591 950 q 643 850 643 891 z "},"ĵ":{"ha":346,"x_min":-39,"x_max":396,"o":"m 267 659 q 258 250 258 453 q 260 105 258 197 q 263 -19 263 12 q 63 -309 263 -269 l 14 -214 q 77 -111 62 -176 q 96 215 96 -26 q 72 640 96 488 l 267 659 m 396 736 l 291 736 q 178 868 291 747 q 66 736 66 747 l -39 736 q 25 848 -39 747 q 90 956 90 949 l 267 956 q 332 848 267 949 q 396 736 396 747 z "},"ķ":{"ha":709,"x_min":62,"x_max":698,"o":"m 698 0 l 490 0 q 387 170 490 25 q 256 315 284 315 l 247 315 q 255 0 247 176 l 75 0 q 83 504 83 317 q 62 954 83 763 l 255 964 q 245 504 245 707 q 246 404 245 478 l 256 404 q 363 513 275 404 q 452 644 452 623 l 654 644 q 562 527 654 623 q 413 394 470 431 l 413 384 q 587 183 476 340 q 698 0 698 27 m 458 -142 q 323 -355 458 -270 l 279 -319 q 319 -213 319 -268 q 275 -144 275 -187 q 300 -76 275 -102 q 370 -49 326 -49 q 435 -76 411 -49 q 458 -142 458 -103 z "},"ĸ":{"ha":709,"x_min":62,"x_max":698,"o":"m 698 0 l 490 0 q 389 168 490 25 q 256 315 284 315 l 249 315 q 255 0 249 176 l 75 0 q 83 384 83 146 q 62 641 83 491 l 255 652 q 248 404 248 545 l 256 404 q 363 513 275 404 q 452 644 452 623 l 654 644 q 562 527 654 623 q 413 394 470 431 l 413 384 q 590 179 476 340 q 698 0 698 27 z "},"ĺ":{"ha":358,"x_min":82,"x_max":395,"o":"m 278 0 l 93 0 q 103 504 103 233 q 82 954 103 768 l 278 964 q 268 504 268 772 q 278 0 268 231 m 395 1214 q 305 1122 395 1206 q 208 1028 215 1039 l 90 1028 q 144 1123 90 1039 q 198 1214 198 1206 l 395 1214 z "},"ľ":{"ha":495,"x_min":82,"x_max":524,"o":"m 278 0 l 93 0 q 103 504 103 233 q 82 954 103 768 l 278 964 q 268 504 268 772 q 278 0 268 231 m 524 798 q 385 560 524 648 l 340 597 q 377 715 377 658 q 323 797 323 742 q 352 870 323 839 q 433 901 381 901 q 499 869 475 901 q 524 798 524 838 z "},"ļ":{"ha":358,"x_min":82,"x_max":278,"o":"m 278 0 l 93 0 q 103 504 103 233 q 82 954 103 768 l 278 964 q 268 504 268 772 q 278 0 268 231 m 277 -142 q 142 -355 277 -270 l 98 -319 q 138 -213 138 -268 q 94 -144 94 -187 q 119 -76 94 -102 q 189 -49 144 -49 q 254 -76 230 -49 q 277 -142 277 -103 z "},"ł":{"ha":434,"x_min":-3,"x_max":486,"o":"m 486 633 l 301 496 q 311 0 301 283 l 125 0 q 135 365 129 83 l 52 290 l -3 355 l 136 465 q 115 954 136 810 l 311 964 q 300 602 306 886 l 414 703 l 486 633 z "},"ŀ":{"ha":528,"x_min":82,"x_max":555,"o":"m 278 0 l 93 0 q 103 504 103 233 q 82 954 103 768 l 278 964 q 268 504 268 772 q 278 0 268 231 m 555 416 q 524 335 555 370 q 436 300 492 300 q 362 330 389 300 q 335 402 335 360 q 367 482 335 448 q 455 516 398 516 q 529 487 503 516 q 555 416 555 457 z "},"ń":{"ha":764,"x_min":49,"x_max":688,"o":"m 688 0 l 508 0 q 523 347 523 172 q 491 492 523 454 q 395 530 460 530 q 249 477 318 530 q 252 0 252 212 l 70 0 q 82 334 82 212 q 49 640 82 496 l 222 659 l 234 587 l 245 587 q 458 667 338 667 q 626 617 563 667 q 688 436 688 568 q 687 384 688 416 q 685 316 685 351 q 688 0 685 224 m 659 956 q 565 848 659 948 q 471 736 471 747 l 353 736 q 414 848 353 747 q 475 956 475 949 l 659 956 z "},"ň":{"ha":764,"x_min":49,"x_max":688,"o":"m 688 0 l 508 0 q 523 347 523 172 q 491 492 523 454 q 395 530 460 530 q 249 477 318 530 q 252 0 252 212 l 70 0 q 82 334 82 212 q 49 640 82 496 l 222 659 l 234 587 l 245 587 q 458 667 338 667 q 626 617 563 667 q 688 436 688 568 q 687 384 688 416 q 685 316 685 351 q 688 0 685 224 m 631 956 q 566 845 631 945 q 502 736 502 744 l 324 736 q 260 845 324 744 q 195 956 195 945 l 300 956 q 413 825 300 945 q 526 956 526 945 l 631 956 z "},"ñ":{"ha":764,"x_min":49,"x_max":688,"o":"m 688 0 l 508 0 q 523 347 523 172 q 491 492 523 454 q 395 530 460 530 q 249 477 318 530 q 252 0 252 212 l 70 0 q 82 334 82 212 q 49 640 82 496 l 222 659 l 234 587 l 245 587 q 458 667 338 667 q 626 617 563 667 q 688 436 688 568 q 687 384 688 416 q 685 316 685 351 q 688 0 685 224 m 651 919 q 477 766 575 766 q 395 781 446 766 q 317 797 344 797 q 197 724 255 797 l 137 775 q 311 928 213 928 q 395 913 345 928 q 471 897 445 897 q 591 970 533 897 l 651 919 z "},"ņ":{"ha":764,"x_min":49,"x_max":688,"o":"m 688 0 l 508 0 q 523 347 523 172 q 491 492 523 454 q 395 530 460 530 q 249 477 318 530 q 252 0 252 212 l 70 0 q 82 334 82 212 q 49 640 82 496 l 222 659 l 234 587 l 245 587 q 458 667 338 667 q 626 617 563 667 q 688 436 688 568 q 687 384 688 416 q 685 316 685 351 q 688 0 685 224 m 470 -142 q 334 -355 470 -270 l 291 -319 q 330 -213 330 -268 q 287 -144 287 -187 q 312 -76 287 -102 q 381 -49 337 -49 q 446 -76 422 -49 q 470 -142 470 -103 z "},"ŉ":{"ha":981,"x_min":4,"x_max":905,"o":"m 905 0 l 725 0 q 740 347 740 172 q 708 492 740 454 q 612 530 677 530 q 466 477 535 530 q 469 0 469 212 l 287 0 q 299 334 299 212 q 266 640 299 496 l 439 659 l 451 587 l 462 587 q 675 667 555 667 q 843 617 780 667 q 905 436 905 568 q 904 384 905 416 q 902 316 902 351 q 905 0 902 224 m 281 850 q 64 473 281 672 l 4 525 q 96 748 96 627 q 45 848 45 779 q 79 933 45 897 q 174 970 113 970 q 253 933 224 970 q 281 850 281 897 m 159 737 z "},"ò":{"ha":776,"x_min":47,"x_max":729,"o":"m 729 337 q 624 70 729 166 q 376 -26 519 -26 q 144 61 241 -26 q 47 309 47 149 q 153 577 47 480 q 401 674 258 674 q 632 586 536 674 q 729 337 729 497 m 552 317 q 506 482 552 415 q 386 549 460 549 q 269 486 314 549 q 224 330 224 424 q 270 165 224 232 q 390 98 316 98 q 507 161 462 98 q 552 317 552 223 m 476 736 l 357 736 q 264 848 357 747 q 170 956 170 948 l 354 956 q 415 848 354 949 q 476 736 476 747 z "},"ó":{"ha":776,"x_min":47,"x_max":729,"o":"m 729 337 q 624 70 729 166 q 376 -26 519 -26 q 144 61 241 -26 q 47 309 47 149 q 153 577 47 480 q 401 674 258 674 q 632 586 536 674 q 729 337 729 497 m 552 317 q 506 482 552 415 q 386 549 460 549 q 269 486 314 549 q 224 330 224 424 q 270 165 224 232 q 390 98 316 98 q 507 161 462 98 q 552 317 552 223 m 627 956 q 534 848 627 948 q 440 736 440 747 l 321 736 q 382 848 321 747 q 444 956 444 949 l 627 956 z "},"ô":{"ha":776,"x_min":47,"x_max":729,"o":"m 729 337 q 624 70 729 166 q 376 -26 519 -26 q 144 61 241 -26 q 47 309 47 149 q 153 577 47 480 q 401 674 258 674 q 632 586 536 674 q 729 337 729 497 m 552 317 q 506 482 552 415 q 386 549 460 549 q 269 486 314 549 q 224 330 224 424 q 270 165 224 232 q 390 98 316 98 q 507 161 462 98 q 552 317 552 223 m 618 736 l 513 736 q 400 868 513 747 q 288 736 288 747 l 182 736 q 247 848 182 747 q 311 956 311 949 l 489 956 q 553 848 489 949 q 618 736 618 747 z "},"õ":{"ha":776,"x_min":47,"x_max":729,"o":"m 729 337 q 624 70 729 166 q 376 -26 519 -26 q 144 61 241 -26 q 47 309 47 149 q 153 577 47 480 q 401 674 258 674 q 632 586 536 674 q 729 337 729 497 m 552 317 q 506 482 552 415 q 386 549 460 549 q 269 486 314 549 q 224 330 224 424 q 270 165 224 232 q 390 98 316 98 q 507 161 462 98 q 552 317 552 223 m 678 919 q 505 766 602 766 q 422 781 473 766 q 344 797 371 797 q 224 724 282 797 l 164 775 q 338 928 240 928 q 422 913 372 928 q 498 897 472 897 q 618 970 560 897 l 678 919 z "},"ö":{"ha":776,"x_min":47,"x_max":729,"o":"m 729 337 q 624 70 729 166 q 376 -26 519 -26 q 144 61 241 -26 q 47 309 47 149 q 153 577 47 480 q 401 674 258 674 q 632 586 536 674 q 729 337 729 497 m 552 317 q 506 482 552 415 q 386 549 460 549 q 269 486 314 549 q 224 330 224 424 q 270 165 224 232 q 390 98 316 98 q 507 161 462 98 q 552 317 552 223 m 633 848 q 606 780 633 809 q 531 750 579 750 q 468 775 490 750 q 445 837 445 801 q 472 905 445 876 q 548 934 500 934 q 611 909 589 934 q 633 848 633 884 m 365 848 q 338 780 365 809 q 263 750 311 750 q 200 775 223 750 q 178 837 178 801 q 205 905 178 876 q 280 934 232 934 q 343 909 321 934 q 365 848 365 884 z "},"ō":{"ha":776,"x_min":47,"x_max":729,"o":"m 729 337 q 624 70 729 166 q 376 -26 519 -26 q 144 61 241 -26 q 47 309 47 149 q 153 577 47 480 q 401 674 258 674 q 632 586 536 674 q 729 337 729 497 m 552 317 q 506 482 552 415 q 386 549 460 549 q 269 486 314 549 q 224 330 224 424 q 270 165 224 232 q 390 98 316 98 q 507 161 462 98 q 552 317 552 223 m 574 905 l 566 787 l 238 787 l 245 905 l 574 905 z "},"ŏ":{"ha":776,"x_min":47,"x_max":729,"o":"m 729 337 q 624 70 729 166 q 376 -26 519 -26 q 144 61 241 -26 q 47 309 47 149 q 153 577 47 480 q 401 674 258 674 q 632 586 536 674 q 729 337 729 497 m 552 317 q 506 482 552 415 q 386 549 460 549 q 269 486 314 549 q 224 330 224 424 q 270 165 224 232 q 390 98 316 98 q 507 161 462 98 q 552 317 552 223 m 623 922 q 401 728 559 728 q 178 922 235 728 l 268 963 q 401 840 330 840 q 534 963 469 840 l 623 922 z "},"ő":{"ha":776,"x_min":47,"x_max":729,"o":"m 729 337 q 624 70 729 166 q 376 -26 519 -26 q 144 61 241 -26 q 47 309 47 149 q 153 577 47 480 q 401 674 258 674 q 632 586 536 674 q 729 337 729 497 m 552 317 q 506 482 552 415 q 386 549 460 549 q 269 486 314 549 q 224 330 224 424 q 270 165 224 232 q 390 98 316 98 q 507 161 462 98 q 552 317 552 223 m 437 956 q 375 844 437 941 q 313 736 313 747 l 212 736 q 235 845 212 747 q 259 956 259 942 l 437 956 m 700 956 q 637 844 700 941 q 575 736 575 747 l 474 736 q 498 845 474 747 q 522 956 522 942 l 700 956 z "},"ø":{"ha":776,"x_min":28,"x_max":746,"o":"m 746 665 q 667 547 746 640 q 729 337 729 463 q 624 70 729 165 q 376 -26 519 -26 q 184 31 267 -26 q 104 -77 104 -59 l 28 -49 q 125 82 28 -25 q 47 309 47 172 q 153 577 47 480 q 401 674 258 674 q 613 602 524 674 q 670 690 670 671 l 746 665 m 505 482 q 386 549 458 549 q 269 486 314 549 q 224 330 224 424 q 246 211 224 264 l 505 482 m 552 317 q 538 406 552 364 q 288 144 452 316 q 390 98 331 98 q 507 161 462 98 q 552 317 552 223 z "},"ǿ":{"ha":776,"x_min":28,"x_max":746,"o":"m 746 665 q 667 547 746 640 q 729 337 729 463 q 624 70 729 165 q 376 -26 519 -26 q 184 31 267 -26 q 104 -77 104 -59 l 28 -49 q 125 82 28 -25 q 47 309 47 172 q 153 577 47 480 q 401 674 258 674 q 613 602 524 674 q 670 690 670 671 l 746 665 m 505 482 q 386 549 458 549 q 269 486 314 549 q 224 330 224 424 q 246 211 224 264 l 505 482 m 552 317 q 538 406 552 364 q 288 144 452 316 q 390 98 331 98 q 507 161 462 98 q 552 317 552 223 m 640 956 q 547 848 640 948 q 453 736 453 747 l 334 736 q 395 848 334 747 q 456 956 456 949 l 640 956 z "},"œ":{"ha":1197,"x_min":47,"x_max":1150,"o":"m 1150 391 q 1146 301 1150 357 l 719 294 q 782 166 728 216 q 926 115 835 115 q 1139 146 1027 115 l 1126 14 q 897 -20 1035 -20 q 637 94 722 -20 l 627 94 q 373 -26 540 -26 q 142 61 238 -26 q 47 309 47 149 q 151 577 47 481 q 397 674 255 674 q 635 563 559 674 l 646 563 q 869 672 715 672 q 1082 594 1013 672 q 1150 391 1150 517 m 549 317 q 503 482 549 415 q 382 549 456 549 q 267 487 311 549 q 224 330 224 425 q 269 165 224 231 q 387 98 313 98 q 504 161 458 98 q 549 317 549 223 m 991 397 q 861 553 991 553 q 718 392 734 553 l 991 397 z "},"ŕ":{"ha":535,"x_min":52,"x_max":534,"o":"m 523 644 l 484 486 q 382 506 433 506 q 250 416 282 506 q 254 0 250 146 l 74 0 q 85 334 85 204 q 52 640 85 495 l 224 659 q 236 571 236 584 l 247 571 q 413 667 309 667 q 523 644 462 667 m 534 956 q 441 848 534 948 q 347 736 347 747 l 229 736 q 290 848 229 747 q 351 956 351 949 l 534 956 z "},"ř":{"ha":535,"x_min":52,"x_max":532,"o":"m 523 644 l 484 486 q 382 506 433 506 q 250 416 282 506 q 254 0 250 146 l 74 0 q 85 334 85 204 q 52 640 85 495 l 224 659 q 236 571 236 584 l 247 571 q 413 667 309 667 q 523 644 462 667 m 532 956 q 467 845 532 945 q 403 736 403 744 l 225 736 q 161 845 225 744 q 96 956 96 945 l 201 956 q 314 825 201 945 q 427 956 427 945 l 532 956 z "},"ŗ":{"ha":535,"x_min":52,"x_max":523,"o":"m 523 644 l 484 486 q 382 506 433 506 q 250 416 282 506 q 254 0 250 146 l 74 0 q 85 334 85 204 q 52 640 85 495 l 224 659 q 236 571 236 584 l 247 571 q 413 667 309 667 q 523 644 462 667 m 257 -142 q 121 -355 257 -270 l 78 -319 q 117 -213 117 -268 q 74 -144 74 -187 q 99 -76 74 -102 q 168 -49 124 -49 q 233 -76 210 -49 q 257 -142 257 -103 z "},"ś":{"ha":583,"x_min":43,"x_max":537,"o":"m 536 185 q 235 -18 536 -18 q 43 5 125 -18 l 66 139 q 235 109 151 109 q 348 122 317 109 q 380 168 380 136 q 266 262 380 217 q 121 339 166 301 q 58 469 58 392 q 125 614 58 559 q 321 669 193 669 q 509 648 441 669 l 486 513 q 321 543 410 543 q 212 488 212 543 q 235 442 212 459 q 330 398 258 425 q 473 324 428 362 q 536 185 536 270 m 537 956 q 444 848 537 948 q 350 736 350 747 l 231 736 q 292 848 231 747 q 353 956 353 949 l 537 956 z "},"ŝ":{"ha":583,"x_min":43,"x_max":536,"o":"m 536 185 q 235 -18 536 -18 q 43 5 125 -18 l 66 139 q 235 109 151 109 q 348 122 317 109 q 380 168 380 136 q 266 262 380 217 q 121 339 166 301 q 58 469 58 392 q 125 614 58 559 q 321 669 193 669 q 509 648 441 669 l 486 513 q 321 543 410 543 q 212 488 212 543 q 235 442 212 459 q 330 398 258 425 q 473 324 428 362 q 536 185 536 270 m 515 736 l 410 736 q 298 868 410 747 q 185 736 185 747 l 80 736 q 144 848 80 747 q 209 956 209 949 l 387 956 q 451 848 387 949 q 515 736 515 747 z "},"š":{"ha":583,"x_min":43,"x_max":536,"o":"m 536 185 q 235 -18 536 -18 q 43 5 125 -18 l 66 139 q 235 109 151 109 q 348 122 317 109 q 380 168 380 136 q 266 262 380 217 q 121 339 166 301 q 58 469 58 392 q 125 614 58 559 q 321 669 193 669 q 509 648 441 669 l 486 513 q 321 543 410 543 q 212 488 212 543 q 235 442 212 459 q 330 398 258 425 q 473 324 428 362 q 536 185 536 270 m 523 956 q 458 845 523 945 q 394 736 394 744 l 216 736 q 152 845 216 744 q 87 956 87 945 l 193 956 q 305 825 193 945 q 418 956 418 945 l 523 956 z "},"ş":{"ha":583,"x_min":43,"x_max":536,"o":"m 536 185 q 298 -16 536 4 l 292 -62 q 420 -195 420 -94 q 254 -349 420 -349 l 237 -273 q 284 -253 264 -273 q 304 -208 304 -233 q 216 -123 304 -140 l 235 -18 q 43 5 125 -18 l 66 139 q 235 109 151 109 q 349 123 317 109 q 380 168 380 136 q 266 262 380 217 q 121 339 166 301 q 58 469 58 392 q 123 612 58 559 q 321 669 193 669 q 509 648 441 669 l 486 513 q 321 543 410 543 q 212 488 212 543 q 235 442 212 459 q 330 398 258 425 q 473 324 428 362 q 536 185 536 270 z "},"ș":{"ha":583,"x_min":43,"x_max":536,"o":"m 536 185 q 235 -18 536 -18 q 43 5 125 -18 l 66 139 q 235 109 151 109 q 348 122 317 109 q 380 168 380 136 q 266 262 380 217 q 121 339 166 301 q 58 469 58 392 q 125 614 58 559 q 321 669 193 669 q 509 648 441 669 l 486 513 q 321 543 410 543 q 212 488 212 543 q 235 442 212 459 q 330 398 258 425 q 473 324 428 362 q 536 185 536 270 m 358 -142 q 222 -355 358 -270 l 179 -319 q 218 -213 218 -268 q 175 -144 175 -187 q 200 -76 175 -102 q 269 -49 225 -49 q 334 -76 311 -49 q 358 -142 358 -103 z "},"ß":{"ha":754,"x_min":67,"x_max":709,"o":"m 709 183 q 636 38 709 91 q 456 -15 564 -15 q 324 1 381 -15 l 338 121 q 451 102 390 102 q 544 164 544 102 q 455 290 544 206 q 355 467 355 383 q 399 584 355 525 q 481 676 440 630 q 526 766 526 727 q 397 854 526 854 q 283 799 329 854 q 237 622 237 743 q 247 0 237 270 l 67 0 q 74 608 74 225 q 177 881 74 789 q 414 974 281 974 q 596 925 528 974 q 665 785 665 876 q 623 674 665 729 q 547 591 585 632 q 505 509 505 545 q 586 395 505 467 q 709 183 709 287 z "},"ſ":{"ha":391,"x_min":67,"x_max":425,"o":"m 425 962 l 401 842 q 321 851 362 851 q 254 806 271 851 q 236 633 236 762 q 246 0 236 252 l 67 0 q 77 633 77 248 q 307 974 77 974 q 425 962 375 974 z "},"ť":{"ha":646,"x_min":33,"x_max":674,"o":"m 477 127 l 466 6 q 347 -14 418 -14 q 181 45 237 -14 q 125 275 125 105 q 127 507 125 378 q 33 503 92 507 l 38 637 q 135 633 90 633 q 140 822 136 669 l 301 842 q 291 633 291 707 q 461 638 348 633 l 456 503 q 288 507 353 507 q 287 318 287 417 q 311 156 287 197 q 397 115 336 115 q 477 127 435 115 m 222 644 m 674 798 q 536 560 674 648 l 491 597 q 528 715 528 658 q 473 797 473 742 q 503 870 473 839 q 583 901 532 901 q 650 869 626 901 q 674 798 674 838 z "},"ţ":{"ha":504,"x_min":33,"x_max":477,"o":"m 477 127 l 466 6 q 347 -14 418 -14 q 181 45 237 -14 q 125 275 125 105 q 127 507 125 378 q 33 503 92 507 l 38 637 q 135 633 90 633 q 140 822 136 669 l 301 842 q 291 633 291 707 q 461 638 348 633 l 456 503 q 288 507 353 507 q 287 318 287 417 q 311 156 287 197 q 397 115 336 115 q 477 127 435 115 m 222 644 m 378 -142 q 242 -355 378 -270 l 199 -319 q 238 -213 238 -268 q 195 -144 195 -187 q 220 -76 195 -102 q 289 -49 245 -49 q 354 -76 330 -49 q 378 -142 378 -103 z "},"ŧ":{"ha":504,"x_min":33,"x_max":477,"o":"m 477 127 l 466 6 q 353 -14 418 -14 q 181 45 237 -14 q 125 275 125 105 l 125 313 l 45 313 l 49 410 l 125 410 q 127 507 126 456 q 33 503 92 507 l 38 637 q 135 633 90 633 q 140 822 136 669 l 301 842 q 291 633 291 707 q 461 638 348 633 l 456 503 q 288 507 353 507 q 287 410 288 460 l 441 410 l 437 313 l 287 313 q 312 156 288 196 q 397 115 336 115 q 477 127 435 115 m 222 644 z "},"ù":{"ha":751,"x_min":58,"x_max":682,"o":"m 682 1 l 523 -5 q 512 54 512 32 l 501 54 q 294 -20 412 -20 q 125 39 182 -20 q 68 273 68 98 q 70 332 68 294 q 71 399 71 370 q 58 639 71 474 l 247 646 q 236 399 236 515 q 261 175 236 233 q 358 117 286 117 q 495 155 437 117 q 487 640 495 512 l 670 646 q 663 313 663 517 q 682 1 663 162 m 456 736 l 337 736 q 243 848 337 747 q 150 956 150 948 l 334 956 q 395 848 334 949 q 456 736 456 747 z "},"ú":{"ha":751,"x_min":58,"x_max":682,"o":"m 682 1 l 523 -5 q 512 54 512 32 l 501 54 q 294 -20 412 -20 q 125 39 182 -20 q 68 273 68 98 q 70 332 68 294 q 71 399 71 370 q 58 639 71 474 l 247 646 q 236 399 236 515 q 261 175 236 233 q 358 117 286 117 q 495 155 437 117 q 487 640 495 512 l 670 646 q 663 313 663 517 q 682 1 663 162 m 600 956 q 507 848 600 948 q 413 736 413 747 l 294 736 q 355 848 294 747 q 416 956 416 949 l 600 956 z "},"û":{"ha":751,"x_min":58,"x_max":682,"o":"m 682 1 l 523 -5 q 512 54 512 32 l 501 54 q 294 -20 412 -20 q 125 39 182 -20 q 68 273 68 98 q 70 332 68 294 q 71 399 71 370 q 58 639 71 474 l 247 646 q 236 399 236 515 q 261 175 236 233 q 358 117 286 117 q 495 155 437 117 q 487 640 495 512 l 670 646 q 663 313 663 517 q 682 1 663 162 m 601 736 l 496 736 q 383 868 496 747 q 271 736 271 747 l 165 736 q 230 848 165 747 q 294 956 294 949 l 472 956 q 536 848 472 949 q 601 736 601 747 z "},"ũ":{"ha":751,"x_min":58,"x_max":682,"o":"m 682 1 l 523 -5 q 512 54 512 32 l 501 54 q 294 -20 412 -20 q 125 39 182 -20 q 68 273 68 98 q 70 332 68 294 q 71 399 71 370 q 58 639 71 474 l 247 646 q 236 399 236 515 q 261 175 236 233 q 358 117 286 117 q 495 155 437 117 q 487 640 495 512 l 670 646 q 663 313 663 517 q 682 1 663 162 m 663 919 q 489 766 587 766 q 407 781 458 766 q 328 797 355 797 q 209 724 267 797 l 149 775 q 322 928 224 928 q 406 913 356 928 q 483 897 456 897 q 602 970 545 897 l 663 919 z "},"ü":{"ha":751,"x_min":58,"x_max":682,"o":"m 682 1 l 523 -5 q 512 54 512 32 l 501 54 q 294 -20 412 -20 q 125 39 182 -20 q 68 273 68 98 q 70 332 68 294 q 71 399 71 370 q 58 639 71 474 l 247 646 q 236 399 236 515 q 261 175 236 233 q 358 117 286 117 q 495 155 437 117 q 487 640 495 512 l 670 646 q 663 313 663 517 q 682 1 663 162 m 606 848 q 579 780 606 809 q 504 750 552 750 q 440 775 463 750 q 418 837 418 801 q 445 905 418 876 q 521 934 473 934 q 584 909 562 934 q 606 848 606 884 m 338 848 q 311 780 338 809 q 236 750 284 750 q 173 775 196 750 q 151 837 151 801 q 178 905 151 876 q 253 934 205 934 q 316 909 294 934 q 338 848 338 884 z "},"ū":{"ha":751,"x_min":58,"x_max":682,"o":"m 682 1 l 523 -5 q 512 54 512 32 l 501 54 q 294 -20 412 -20 q 125 39 182 -20 q 68 273 68 98 q 70 332 68 294 q 71 399 71 370 q 58 639 71 474 l 247 646 q 236 399 236 515 q 261 175 236 233 q 358 117 286 117 q 495 155 437 117 q 487 640 495 512 l 670 646 q 663 313 663 517 q 682 1 663 162 m 555 905 l 547 787 l 219 787 l 227 905 l 555 905 z "},"ŭ":{"ha":751,"x_min":58,"x_max":682,"o":"m 682 1 l 523 -5 q 512 54 512 32 l 501 54 q 294 -20 412 -20 q 125 39 182 -20 q 68 273 68 98 q 70 332 68 294 q 71 399 71 370 q 58 639 71 474 l 247 646 q 236 399 236 515 q 261 175 236 233 q 358 117 286 117 q 495 155 437 117 q 487 640 495 512 l 670 646 q 663 313 663 517 q 682 1 663 162 m 600 922 q 378 728 536 728 q 155 922 212 728 l 245 963 q 378 840 307 840 q 511 963 446 840 l 600 922 z "},"ů":{"ha":751,"x_min":58,"x_max":682,"o":"m 682 1 l 523 -5 q 512 54 512 32 l 501 54 q 294 -20 412 -20 q 125 39 182 -20 q 68 273 68 98 q 70 332 68 294 q 71 399 71 370 q 58 639 71 474 l 247 646 q 236 399 236 515 q 261 175 236 233 q 358 117 286 117 q 495 155 437 117 q 487 640 495 512 l 670 646 q 663 313 663 517 q 682 1 663 162 m 543 874 q 491 750 543 796 q 370 705 438 705 q 265 744 309 705 q 220 854 220 783 q 273 977 220 932 q 393 1021 326 1021 q 499 983 454 1021 q 543 874 543 945 m 466 868 q 443 930 466 909 q 388 952 420 952 q 326 927 353 952 q 298 859 298 902 q 321 796 298 818 q 376 774 344 774 q 439 799 412 774 q 466 868 466 825 z "},"ű":{"ha":751,"x_min":58,"x_max":686,"o":"m 682 1 l 523 -5 q 512 54 512 32 l 501 54 q 294 -20 412 -20 q 125 39 182 -20 q 68 273 68 98 q 70 332 68 294 q 71 399 71 370 q 58 639 71 474 l 247 646 q 236 399 236 515 q 261 175 236 233 q 358 117 286 117 q 495 155 437 117 q 487 640 495 512 l 670 646 q 663 313 663 517 q 682 1 663 162 m 423 956 q 361 844 423 941 q 298 736 298 747 l 197 736 q 221 845 197 747 q 245 956 245 942 l 423 956 m 686 956 q 623 844 686 941 q 561 736 561 747 l 460 736 q 484 845 460 747 q 507 956 507 942 l 686 956 z "},"ų":{"ha":751,"x_min":58,"x_max":694,"o":"m 694 -317 q 600 -330 652 -330 q 458 -290 503 -330 q 414 -183 414 -250 q 523 -4 414 -72 q 512 54 512 32 l 501 54 q 301 -20 412 -20 q 126 36 184 -20 q 68 267 68 91 q 70 329 68 288 q 71 385 71 370 q 58 640 71 474 l 247 645 q 236 399 236 515 q 261 175 236 233 q 358 117 286 117 q 495 155 437 117 q 487 640 495 512 l 670 645 q 663 313 663 517 q 682 0 663 162 q 541 -137 541 -21 q 621 -223 541 -223 q 675 -216 642 -223 l 694 -317 z "},"ẁ":{"ha":1094,"x_min":22,"x_max":1072,"o":"m 1072 644 q 959 327 1072 606 q 846 0 846 48 l 688 0 q 633 192 688 31 q 545 465 564 393 l 534 465 q 450 195 516 395 q 396 0 396 37 l 237 0 q 130 330 237 41 q 22 644 22 618 l 218 644 q 277 411 218 616 q 336 168 336 206 l 347 168 q 414 411 347 214 q 482 644 482 607 l 642 644 q 708 410 642 618 q 774 168 774 202 l 783 168 q 843 398 783 205 q 903 644 903 591 l 1072 644 m 609 736 l 490 736 q 397 848 490 747 q 303 956 303 948 l 487 956 q 548 848 487 949 q 609 736 609 747 z "},"ẃ":{"ha":1094,"x_min":22,"x_max":1072,"o":"m 1072 644 q 959 327 1072 606 q 846 0 846 48 l 688 0 q 633 192 688 31 q 545 465 564 393 l 534 465 q 450 195 516 395 q 396 0 396 37 l 237 0 q 130 330 237 41 q 22 644 22 618 l 218 644 q 277 411 218 616 q 336 168 336 206 l 347 168 q 414 411 347 214 q 482 644 482 607 l 642 644 q 708 410 642 618 q 774 168 774 202 l 783 168 q 843 398 783 205 q 903 644 903 591 l 1072 644 m 793 956 q 700 848 793 948 q 606 736 606 747 l 488 736 q 549 848 488 747 q 610 956 610 949 l 793 956 z "},"ŵ":{"ha":1094,"x_min":22,"x_max":1072,"o":"m 1072 644 q 959 327 1072 606 q 846 0 846 48 l 688 0 q 633 192 688 31 q 545 465 564 393 l 534 465 q 450 195 516 395 q 396 0 396 37 l 237 0 q 130 330 237 41 q 22 644 22 618 l 218 644 q 277 411 218 616 q 336 168 336 206 l 347 168 q 414 411 347 214 q 482 644 482 607 l 642 644 q 708 410 642 618 q 774 168 774 202 l 783 168 q 843 398 783 205 q 903 644 903 591 l 1072 644 m 773 736 l 668 736 q 555 868 668 747 q 443 736 443 747 l 338 736 q 402 848 338 747 q 467 956 467 949 l 644 956 q 709 848 644 949 q 773 736 773 747 z "},"ẅ":{"ha":1094,"x_min":22,"x_max":1072,"o":"m 1072 644 q 959 327 1072 606 q 846 0 846 48 l 688 0 q 633 192 688 31 q 545 465 564 393 l 534 465 q 450 195 516 395 q 396 0 396 37 l 237 0 q 130 330 237 41 q 22 644 22 618 l 218 644 q 277 411 218 616 q 336 168 336 206 l 347 168 q 414 411 347 214 q 482 644 482 607 l 642 644 q 708 410 642 618 q 774 168 774 202 l 783 168 q 843 398 783 205 q 903 644 903 591 l 1072 644 m 789 848 q 762 780 789 809 q 687 750 735 750 q 624 775 646 750 q 601 837 601 801 q 628 905 601 876 q 704 934 656 934 q 767 909 745 934 q 789 848 789 884 m 521 848 q 494 780 521 809 q 419 750 467 750 q 356 775 379 750 q 334 837 334 801 q 361 905 334 876 q 436 934 388 934 q 499 909 477 934 q 521 848 521 884 z "},"ỳ":{"ha":680,"x_min":24,"x_max":656,"o":"m 656 644 q 559 365 656 600 q 423 -4 449 94 q 304 -238 379 -174 q 89 -300 233 -300 l 75 -170 q 214 -122 159 -170 q 268 6 268 -74 q 146 359 268 87 q 24 644 24 631 l 233 644 q 295 414 233 621 q 357 162 357 208 l 366 162 q 422 394 366 201 q 478 644 478 587 l 656 644 m 447 736 l 328 736 q 235 848 328 747 q 141 956 141 948 l 325 956 q 386 848 325 949 q 447 736 447 747 z "},"ý":{"ha":680,"x_min":24,"x_max":656,"o":"m 656 644 q 559 365 656 600 q 423 -4 449 94 q 304 -238 379 -174 q 89 -300 233 -300 l 75 -170 q 214 -122 159 -170 q 268 6 268 -74 q 146 359 268 87 q 24 644 24 631 l 233 644 q 295 414 233 621 q 357 162 357 208 l 366 162 q 422 394 366 201 q 478 644 478 587 l 656 644 m 593 956 q 500 848 593 948 q 406 736 406 747 l 288 736 q 349 848 288 747 q 410 956 410 949 l 593 956 z "},"ŷ":{"ha":680,"x_min":24,"x_max":656,"o":"m 656 644 q 559 365 656 600 q 423 -4 449 94 q 304 -238 379 -174 q 89 -300 233 -300 l 75 -170 q 214 -122 159 -170 q 268 6 268 -74 q 146 359 268 87 q 24 644 24 631 l 233 644 q 295 414 233 621 q 357 162 357 208 l 366 162 q 422 394 366 201 q 478 644 478 587 l 656 644 m 568 736 l 463 736 q 351 868 463 747 q 238 736 238 747 l 133 736 q 197 848 133 747 q 262 956 262 949 l 439 956 q 504 848 439 949 q 568 736 568 747 z "},"ÿ":{"ha":680,"x_min":24,"x_max":656,"o":"m 656 644 q 559 365 656 600 q 423 -4 449 94 q 304 -238 379 -174 q 89 -300 233 -300 l 75 -170 q 214 -122 159 -170 q 268 6 268 -74 q 146 359 268 87 q 24 644 24 631 l 233 644 q 295 414 233 621 q 357 162 357 208 l 366 162 q 422 394 366 201 q 478 644 478 587 l 656 644 m 592 848 q 565 780 592 809 q 490 750 538 750 q 427 775 450 750 q 404 837 404 801 q 432 905 404 876 q 507 934 459 934 q 570 909 548 934 q 592 848 592 884 m 324 848 q 297 780 324 809 q 222 750 271 750 q 160 775 182 750 q 137 837 137 801 q 164 905 137 876 q 239 934 191 934 q 302 909 280 934 q 324 848 324 884 z "},"ź":{"ha":604,"x_min":50,"x_max":566,"o":"m 566 136 l 562 0 l 50 0 l 59 130 q 218 318 93 160 q 353 511 353 487 l 353 522 q 56 511 191 522 l 59 644 l 551 644 l 541 514 q 389 324 498 467 q 260 133 260 157 l 260 123 q 566 136 414 123 m 551 956 q 458 848 551 948 q 364 736 364 747 l 245 736 q 307 848 245 747 q 368 956 368 949 l 551 956 z "},"ž":{"ha":604,"x_min":50,"x_max":566,"o":"m 566 136 l 562 0 l 50 0 l 59 130 q 218 318 93 160 q 353 511 353 487 l 353 522 q 56 511 191 522 l 59 644 l 551 644 l 541 514 q 389 324 498 467 q 260 133 260 157 l 260 123 q 566 136 414 123 m 536 956 q 472 845 536 945 q 408 736 408 744 l 230 736 q 165 845 230 744 q 101 956 101 945 l 206 956 q 319 825 206 945 q 431 956 431 945 l 536 956 z "},"ż":{"ha":604,"x_min":50,"x_max":566,"o":"m 566 136 l 562 0 l 50 0 l 59 130 q 218 318 93 160 q 353 511 353 487 l 353 522 q 56 511 191 522 l 59 644 l 551 644 l 541 514 q 389 324 498 467 q 260 133 260 157 l 260 123 q 566 136 414 123 m 425 849 q 393 768 425 803 q 305 734 361 734 q 231 764 258 734 q 204 836 204 793 q 236 916 204 882 q 324 949 267 949 q 398 920 372 949 q 425 849 425 890 z "},"ŋ":{"ha":764,"x_min":49,"x_max":688,"o":"m 688 0 q 609 -220 688 -143 q 326 -300 530 -297 l 311 -165 q 459 -118 411 -161 q 515 48 507 -75 q 523 347 523 172 q 491 493 523 457 q 392 530 458 530 q 249 477 318 530 q 252 0 252 212 l 70 0 q 82 334 82 212 q 49 640 82 496 l 222 659 l 234 587 l 245 587 q 448 667 340 667 q 626 617 563 667 q 688 443 688 568 q 687 379 688 430 q 685 284 685 328 q 687 135 685 205 q 688 0 688 64 z "},"ð":{"ha":766,"x_min":49,"x_max":722,"o":"m 722 393 q 632 95 722 216 q 383 -26 543 -26 q 136 72 222 -26 q 49 309 49 170 q 134 538 49 435 q 370 641 218 641 q 509 597 438 641 l 519 597 q 438 772 495 705 q 328 703 378 740 l 268 800 q 386 846 295 811 q 296 921 336 890 l 383 989 q 492 911 421 970 q 605 987 543 943 l 665 888 q 563 842 637 877 q 722 393 722 673 m 548 335 q 537 471 548 423 q 390 513 471 513 q 270 450 312 513 q 229 306 229 387 q 269 161 229 221 q 383 101 310 101 q 503 169 458 101 q 548 335 548 237 z "},"þ":{"ha":770,"x_min":59,"x_max":724,"o":"m 724 350 q 639 92 724 203 q 408 -20 555 -20 q 257 23 302 -20 l 248 23 q 256 -310 248 -137 l 65 -310 q 81 476 81 33 q 59 954 81 744 l 254 964 q 247 607 247 806 l 255 607 q 448 667 327 667 q 650 574 577 667 q 724 350 724 481 m 543 332 q 500 479 543 417 q 381 541 456 541 q 244 486 288 541 q 248 137 244 254 q 358 104 290 104 q 496 171 449 104 q 543 332 543 239 z "},"ⁿ":{"ha":426,"x_min":24,"x_max":382,"o":"m 382 412 l 269 412 q 277 521 275 466 q 279 633 279 576 q 263 691 279 674 q 220 708 247 708 q 150 684 183 708 q 151 642 151 668 q 152 581 151 616 q 152 503 152 546 l 152 412 l 37 412 q 42 525 40 473 q 44 605 44 577 q 39 689 44 646 q 24 781 34 733 l 137 796 l 140 756 l 147 757 q 248 797 183 797 q 346 762 309 797 q 382 662 382 728 q 382 613 382 633 q 382 564 382 593 q 382 412 382 498 z "},"ﬀ":{"ha":913,"x_min":33,"x_max":910,"o":"m 910 962 l 886 842 q 806 851 846 851 q 740 806 758 850 q 722 633 722 762 q 888 638 782 633 l 882 503 q 722 507 777 507 q 732 0 722 252 l 553 0 q 563 507 563 248 l 311 507 q 321 0 311 252 l 142 0 q 151 507 151 249 q 33 503 113 507 l 39 637 q 151 633 111 633 q 222 886 151 812 q 449 960 294 960 q 648 920 564 960 q 791 974 710 974 q 910 962 861 974 m 584 814 q 455 844 524 844 q 341 802 372 844 q 311 633 311 759 l 563 633 q 584 814 563 743 z "},"ﬁ":{"ha":810,"x_min":33,"x_max":754,"o":"m 754 907 l 702 773 q 455 851 572 851 q 341 808 372 851 q 311 633 311 766 q 731 659 509 633 q 723 322 723 526 q 732 0 723 147 l 549 0 q 559 322 559 140 q 554 517 559 446 q 449 510 517 513 q 311 507 381 507 q 321 0 311 252 l 142 0 q 151 507 151 249 q 33 503 113 507 l 39 637 q 151 633 111 633 q 222 900 151 826 q 449 974 294 974 q 754 907 635 974 z "},"ﬃ":{"ha":1221,"x_min":33,"x_max":1164,"o":"m 1164 907 l 1112 773 q 865 851 982 851 q 752 808 782 851 q 722 633 722 766 q 1141 659 920 633 q 1133 322 1133 526 q 1143 0 1133 147 l 960 0 q 969 322 969 140 q 964 517 969 446 q 860 510 928 513 q 722 507 791 507 q 731 0 722 252 l 552 0 q 562 507 561 242 l 311 507 q 321 0 311 252 l 142 0 q 151 507 151 249 q 33 503 113 507 l 39 637 q 151 633 111 633 q 222 886 151 812 q 449 960 294 960 q 646 913 564 960 q 859 974 718 974 q 1164 907 1045 974 m 585 814 q 455 844 524 844 q 341 802 372 844 q 311 633 311 759 l 562 633 q 585 814 562 743 z "},"ﬂ":{"ha":812,"x_min":33,"x_max":732,"o":"m 732 0 l 547 0 q 557 504 557 233 q 546 844 557 694 q 420 858 487 858 q 329 810 347 858 q 311 633 311 762 q 477 638 371 633 l 471 503 q 311 507 366 507 q 321 0 311 252 l 142 0 q 152 507 152 248 q 33 503 112 507 l 39 637 q 152 633 111 633 q 216 899 152 824 q 400 974 281 974 q 536 954 477 974 l 732 964 q 722 504 722 772 q 732 0 722 231 z "},"ﬄ":{"ha":1223,"x_min":33,"x_max":1143,"o":"m 1143 0 l 958 0 q 968 504 968 233 q 957 844 968 694 q 831 858 898 858 q 740 810 758 858 q 722 633 722 762 q 888 638 782 633 l 882 503 q 722 507 777 507 q 732 0 722 252 l 553 0 q 563 507 563 248 l 311 507 q 321 0 311 252 l 142 0 q 151 507 151 249 q 33 503 113 507 l 39 637 q 151 633 111 633 q 222 886 151 812 q 449 960 294 960 q 648 920 564 960 q 811 974 710 974 q 947 954 888 974 l 1143 964 q 1133 504 1133 772 q 1143 0 1133 231 m 584 814 q 455 844 524 844 q 341 802 372 844 q 311 633 311 759 l 563 633 q 584 814 563 743 z "},"&":{"ha":947,"x_min":42,"x_max":931,"o":"m 931 0 l 730 0 q 699 74 730 20 q 644 153 668 127 l 634 153 q 315 -20 505 -20 q 116 44 189 -20 q 42 217 42 108 q 92 379 42 304 q 235 494 141 454 l 235 504 q 115 695 115 595 q 193 845 115 791 q 373 898 271 898 q 542 849 471 898 q 613 710 613 800 q 480 526 613 586 l 480 515 q 652 372 542 482 l 663 372 q 690 517 690 418 l 861 517 q 818 412 861 489 q 739 298 775 334 l 739 289 q 862 135 793 239 q 931 0 931 31 m 581 229 l 581 239 q 473 350 541 286 q 329 451 406 415 q 214 263 214 399 q 256 151 214 193 q 372 106 298 106 q 581 229 478 106 m 473 684 q 446 760 473 732 q 374 788 418 788 q 301 763 331 788 q 272 700 272 739 q 391 566 272 619 q 473 684 473 604 z "},"`":{"ha":381,"x_min":41,"x_max":347,"o":"m 347 736 l 229 736 q 135 848 229 747 q 41 956 41 948 l 225 956 q 286 848 225 949 q 347 736 347 747 z "},"̀":{"ha":0,"x_min":-576,"x_max":-270,"o":"m -270 736 l -389 736 q -482 848 -389 747 q -576 956 -576 948 l -392 956 q -331 848 -392 949 q -270 736 -270 747 z "},"´":{"ha":381,"x_min":40,"x_max":346,"o":"m 346 956 q 252 848 346 948 q 159 736 159 747 l 40 736 q 101 848 40 747 q 162 956 162 949 l 346 956 z "},"́":{"ha":0,"x_min":-422,"x_max":-117,"o":"m -117 956 q -210 848 -117 948 q -304 736 -304 747 l -422 736 q -361 848 -422 747 q -300 956 -300 949 l -117 956 z "},"ˆ":{"ha":530,"x_min":47,"x_max":482,"o":"m 482 736 l 377 736 q 264 868 377 747 q 152 736 152 747 l 47 736 q 111 848 47 747 q 176 956 176 949 l 353 956 q 418 848 353 949 q 482 736 482 747 z "},"̂":{"ha":0,"x_min":-552,"x_max":-117,"o":"m -117 736 l -222 736 q -334 868 -222 747 q -447 736 -447 747 l -552 736 q -488 848 -552 747 q -423 956 -423 949 l -245 956 q -181 848 -245 949 q -117 736 -117 747 z "},"ˇ":{"ha":530,"x_min":47,"x_max":482,"o":"m 482 956 q 418 845 482 945 q 353 736 353 744 l 176 736 q 111 845 176 744 q 47 956 47 945 l 152 956 q 264 825 152 945 q 377 956 377 945 l 482 956 z "},"̌":{"ha":0,"x_min":-549,"x_max":-113,"o":"m -113 956 q -178 845 -113 945 q -242 736 -242 744 l -420 736 q -484 845 -420 744 q -549 956 -549 945 l -444 956 q -331 825 -444 945 q -218 956 -218 945 l -113 956 z "},"̕":{"ha":113,"x_min":-41,"x_max":160,"o":"m 160 798 q 22 560 160 648 l -23 597 q 14 715 14 658 q -41 797 -41 742 q -12 870 -41 839 q 69 901 18 901 q 136 869 112 901 q 160 798 160 838 z "},"˜":{"ha":600,"x_min":42,"x_max":556,"o":"m 556 919 q 382 766 480 766 q 300 781 351 766 q 222 797 249 797 q 102 724 160 797 l 42 775 q 216 928 118 928 q 300 913 250 928 q 376 897 350 897 q 496 970 438 897 l 556 919 z "},"̃":{"ha":0,"x_min":-600,"x_max":-86,"o":"m -86 919 q -260 766 -162 766 q -342 781 -291 766 q -420 797 -393 797 q -540 724 -482 797 l -600 775 q -427 928 -524 928 q -342 913 -393 928 q -266 897 -292 897 q -146 970 -204 897 l -86 919 z "},"¨":{"ha":567,"x_min":56,"x_max":511,"o":"m 511 848 q 484 780 511 809 q 409 750 457 750 q 346 775 368 750 q 323 837 323 801 q 350 905 323 876 q 426 934 378 934 q 489 909 467 934 q 511 848 511 884 m 243 848 q 216 780 243 809 q 141 750 189 750 q 78 775 101 750 q 56 837 56 801 q 83 905 56 876 q 158 934 110 934 q 221 909 199 934 q 243 848 243 884 z "},"̈":{"ha":0,"x_min":-553,"x_max":-98,"o":"m -98 848 q -125 780 -98 809 q -200 750 -152 750 q -263 775 -241 750 q -286 837 -286 801 q -259 905 -286 876 q -183 934 -231 934 q -120 909 -142 934 q -98 848 -98 884 m -366 848 q -393 780 -366 809 q -468 750 -420 750 q -531 775 -508 750 q -553 837 -553 801 q -526 905 -553 876 q -451 934 -499 934 q -388 909 -410 934 q -366 848 -366 884 z "},"¯":{"ha":339,"x_min":1,"x_max":337,"o":"m 337 905 l 329 787 l 1 787 l 8 905 l 337 905 z "},"̄":{"ha":0,"x_min":-508,"x_max":-172,"o":"m -172 905 l -180 787 l -508 787 l -500 905 l -172 905 z "},"˘":{"ha":530,"x_min":43,"x_max":488,"o":"m 488 922 q 266 728 424 728 q 43 922 99 728 l 132 963 q 265 840 195 840 q 398 963 333 840 l 488 922 z "},"̆":{"ha":0,"x_min":-559,"x_max":-114,"o":"m -114 922 q -336 728 -178 728 q -559 922 -503 728 l -469 963 q -336 840 -407 840 q -203 963 -269 840 l -114 922 z "},"˚":{"ha":414,"x_min":45,"x_max":368,"o":"m 368 874 q 316 750 368 796 q 195 705 263 705 q 90 744 134 705 q 45 854 45 783 q 98 977 45 932 q 218 1021 151 1021 q 324 983 279 1021 q 368 874 368 945 m 291 868 q 268 930 291 909 q 213 952 245 952 q 151 927 178 952 q 123 859 123 902 q 146 796 123 818 q 201 774 169 774 q 264 799 237 774 q 291 868 291 825 z "},"̊":{"ha":0,"x_min":-506,"x_max":-183,"o":"m -183 874 q -236 750 -183 796 q -356 705 -288 705 q -461 744 -417 705 q -506 854 -506 783 q -453 977 -506 932 q -333 1021 -401 1021 q -228 983 -272 1021 q -183 874 -183 945 m -260 868 q -283 930 -260 909 q -338 952 -306 952 q -401 927 -374 952 q -428 859 -428 902 q -405 796 -428 818 q -350 774 -382 774 q -288 799 -315 774 q -260 868 -260 825 z "},"˝":{"ha":598,"x_min":56,"x_max":544,"o":"m 281 956 q 219 844 281 941 q 157 736 157 747 l 56 736 q 79 845 56 747 q 103 956 103 942 l 281 956 m 544 956 q 481 844 544 941 q 419 736 419 747 l 318 736 q 342 845 318 747 q 366 956 366 942 l 544 956 z "},"̋":{"ha":0,"x_min":-536,"x_max":-47,"o":"m -310 956 q -372 844 -310 941 q -435 736 -435 747 l -536 736 q -512 845 -536 747 q -488 956 -488 942 l -310 956 m -47 956 q -110 844 -47 941 q -172 736 -172 747 l -273 736 q -250 845 -273 747 q -226 956 -226 942 l -47 956 z "},"˙":{"ha":357,"x_min":79,"x_max":299,"o":"m 299 849 q 268 768 299 803 q 180 734 236 734 q 105 764 132 734 q 79 836 79 793 q 110 916 79 882 q 199 949 142 949 q 273 920 247 949 q 299 849 299 890 z "},"̇":{"ha":0,"x_min":-446,"x_max":-225,"o":"m -225 849 q -257 768 -225 803 q -345 734 -288 734 q -419 764 -392 734 q -446 836 -446 793 q -414 916 -446 882 q -326 949 -382 949 q -251 920 -277 949 q -225 849 -225 890 z "},"¸":{"ha":319,"x_min":81,"x_max":286,"o":"m 286 -195 q 119 -349 286 -349 l 102 -273 q 149 -253 130 -273 q 169 -208 169 -233 q 81 -123 169 -140 l 109 35 l 168 26 l 157 -62 q 286 -195 286 -94 z "},"̧":{"ha":0,"x_min":-241,"x_max":-37,"o":"m -37 -195 q -204 -349 -37 -349 l -220 -273 q -174 -253 -193 -273 q -154 -208 -154 -233 q -241 -123 -154 -140 l -214 35 l -155 26 l -165 -62 q -37 -195 -37 -94 z "},"˛":{"ha":319,"x_min":-1,"x_max":279,"o":"m 279 -317 q 185 -330 237 -330 q 44 -290 88 -330 q -1 -183 -1 -250 q 85 14 -1 -72 l 213 14 q 126 -137 126 -35 q 207 -223 126 -223 q 260 -216 228 -223 l 279 -317 z "},"̨":{"ha":0,"x_min":-301,"x_max":-21,"o":"m -21 -317 q -115 -330 -63 -330 q -257 -290 -212 -330 q -301 -183 -301 -250 q -215 14 -301 -72 l -87 14 q -174 -137 -174 -35 q -94 -223 -174 -223 q -40 -216 -73 -223 l -21 -317 z "},"̦":{"ha":0,"x_min":-420,"x_max":-237,"o":"m -237 -142 q -373 -355 -237 -270 l -416 -319 q -377 -213 -377 -268 q -420 -144 -420 -187 q -395 -76 -420 -102 q -326 -49 -370 -49 q -261 -76 -285 -49 q -237 -142 -237 -103 z "},"̒":{"ha":0,"x_min":-475,"x_max":-274,"o":"m -274 838 q -303 765 -274 795 q -384 734 -332 734 q -451 765 -427 734 q -475 836 -475 796 q -336 1074 -475 987 l -293 1038 q -326 930 -326 993 q -274 838 -274 896 z "},",":{"ha":350,"x_min":13,"x_max":290,"o":"m 290 106 q 73 -271 290 -71 l 13 -219 q 105 3 105 -117 q 54 104 54 34 q 88 189 54 153 q 184 226 123 226 q 262 189 234 226 q 290 106 290 153 m 163 -7 z "},";":{"ha":350,"x_min":13,"x_max":292,"o":"m 290 106 q 73 -271 290 -71 l 13 -219 q 105 3 105 -117 q 54 104 54 34 q 88 189 54 153 q 184 226 123 226 q 262 189 234 226 q 290 106 290 153 m 163 -7 m 292 541 q 257 454 292 492 q 163 416 223 416 q 83 449 112 416 q 55 527 55 481 q 89 613 55 576 q 184 649 123 649 q 264 617 236 649 q 292 541 292 586 z "},":":{"ha":350,"x_min":55,"x_max":292,"o":"m 292 118 q 257 31 292 68 q 163 -7 223 -7 q 83 26 112 -7 q 55 104 55 58 q 89 190 55 153 q 184 226 123 226 q 264 194 236 226 q 292 118 292 163 m 292 541 q 257 454 292 492 q 163 416 223 416 q 83 449 112 416 q 55 527 55 481 q 89 613 55 576 q 184 649 123 649 q 264 617 236 649 q 292 541 292 586 z "},".":{"ha":350,"x_min":55,"x_max":292,"o":"m 292 118 q 257 31 292 68 q 163 -7 223 -7 q 83 26 112 -7 q 55 104 55 58 q 89 190 55 153 q 184 226 123 226 q 264 194 236 226 q 292 118 292 163 z "},"…":{"ha":1389,"x_min":55,"x_max":1130,"o":"m 292 118 q 257 31 292 68 q 163 -7 223 -7 q 83 26 112 -7 q 55 104 55 58 q 89 190 55 153 q 184 226 123 226 q 264 194 236 226 q 292 118 292 163 m 711 118 q 676 31 711 68 q 582 -7 642 -7 q 503 26 531 -7 q 474 104 474 58 q 508 190 474 153 q 604 226 543 226 q 683 194 655 226 q 711 118 711 163 m 1130 118 q 1096 31 1130 68 q 1001 -7 1061 -7 q 922 26 950 -7 q 893 104 893 58 q 927 190 893 153 q 1023 226 962 226 q 1102 194 1074 226 q 1130 118 1130 163 z "},"-":{"ha":350,"x_min":26,"x_max":325,"o":"m 325 410 l 317 288 l 26 278 l 33 400 l 325 410 z "},"!":{"ha":350,"x_min":55,"x_max":292,"o":"m 290 783 q 210 364 290 650 l 141 364 q 83 779 83 659 q 191 907 83 907 q 290 783 290 907 m 292 118 q 257 31 292 68 q 163 -7 223 -7 q 83 26 112 -7 q 55 104 55 58 q 89 190 55 153 q 184 226 123 226 q 264 194 236 226 q 292 118 292 163 z "},"¡":{"ha":350,"x_min":58,"x_max":295,"o":"m 267 -123 q 159 -252 267 -252 q 60 -127 60 -252 q 140 292 60 5 l 209 292 q 267 -123 267 -3 m 295 552 q 261 467 295 503 q 165 430 227 430 q 86 461 114 430 q 58 538 58 493 q 93 625 58 588 q 187 663 127 663 q 267 630 238 663 q 295 552 295 597 z "},"?":{"ha":490,"x_min":37,"x_max":462,"o":"m 462 701 q 273 467 462 554 l 258 364 l 168 364 l 142 509 q 288 650 288 551 q 37 777 288 770 l 52 905 q 362 861 263 905 q 462 701 462 817 m 320 118 q 286 31 320 68 q 191 -7 252 -7 q 112 26 140 -7 q 83 104 83 58 q 118 190 83 153 q 213 226 152 226 q 292 194 264 226 q 320 118 320 163 z "},"¿":{"ha":490,"x_min":28,"x_max":454,"o":"m 454 -117 l 438 -245 q 128 -200 227 -245 q 28 -40 28 -156 q 218 194 28 106 l 232 296 l 322 296 l 348 152 q 202 11 202 110 q 454 -117 202 -109 m 407 557 q 373 471 407 508 q 277 435 338 435 q 198 466 226 435 q 170 543 170 498 q 204 630 170 593 q 299 667 238 667 q 378 635 350 667 q 407 557 407 602 z "},"‘":{"ha":350,"x_min":37,"x_max":314,"o":"m 314 925 q 222 702 222 823 q 273 602 273 671 q 239 516 273 553 q 144 480 205 480 q 65 517 94 480 q 37 600 37 553 q 254 977 37 778 l 314 925 m 152 713 z "},"’":{"ha":350,"x_min":37,"x_max":314,"o":"m 314 850 q 98 473 314 672 l 37 525 q 130 748 130 627 q 78 848 78 779 q 112 933 78 897 q 208 970 146 970 q 286 933 258 970 q 314 850 314 897 m 193 737 z "},"“":{"ha":701,"x_min":37,"x_max":659,"o":"m 314 925 q 222 702 222 823 q 273 602 273 671 q 239 516 273 553 q 144 480 205 480 q 65 517 94 480 q 37 600 37 553 q 254 977 37 778 l 314 925 m 152 713 m 659 925 q 567 702 567 823 q 618 602 618 671 q 584 516 618 553 q 489 480 550 480 q 411 517 439 480 q 382 600 382 553 q 599 977 382 778 l 659 925 m 497 713 z "},"”":{"ha":701,"x_min":37,"x_max":659,"o":"m 314 850 q 98 473 314 672 l 37 525 q 130 748 130 627 q 78 848 78 779 q 112 933 78 897 q 208 970 146 970 q 286 933 258 970 q 314 850 314 897 m 193 737 m 659 850 q 443 473 659 672 l 382 525 q 475 748 475 627 q 423 848 423 779 q 457 933 423 897 q 553 970 492 970 q 631 933 603 970 q 659 850 659 897 m 538 737 z "},"‚":{"ha":350,"x_min":13,"x_max":290,"o":"m 290 106 q 73 -271 290 -71 l 13 -219 q 105 3 105 -117 q 54 104 54 34 q 88 189 54 153 q 184 226 123 226 q 262 189 234 226 q 290 106 290 153 m 163 -7 z "},"„":{"ha":701,"x_min":13,"x_max":651,"o":"m 290 106 q 73 -271 290 -71 l 13 -219 q 105 3 105 -117 q 54 104 54 34 q 88 189 54 153 q 184 226 123 226 q 262 189 234 226 q 290 106 290 153 m 163 -7 m 651 106 q 434 -271 651 -71 l 374 -219 q 466 3 466 -117 q 414 104 414 34 q 449 189 414 153 q 545 226 484 226 q 623 189 595 226 q 651 106 651 153 m 524 -7 z "},"‹":{"ha":350,"x_min":47,"x_max":302,"o":"m 302 165 l 247 85 l 47 262 l 47 399 l 247 574 l 302 495 l 166 331 l 302 165 z "},"›":{"ha":350,"x_min":47,"x_max":302,"o":"m 302 262 l 104 85 l 47 165 l 184 330 l 47 495 l 104 574 l 302 399 l 302 262 z "},"«":{"ha":630,"x_min":47,"x_max":583,"o":"m 302 165 l 247 85 l 47 262 l 47 399 l 247 574 l 302 495 l 166 331 l 302 165 m 583 165 l 527 85 l 328 262 l 328 399 l 527 574 l 583 495 l 446 331 l 583 165 z "},"»":{"ha":630,"x_min":47,"x_max":583,"o":"m 302 262 l 104 85 l 47 165 l 184 330 l 47 495 l 104 574 l 302 399 l 302 262 m 583 262 l 384 85 l 328 165 l 465 330 l 328 495 l 384 574 l 583 399 l 583 262 z "},"/":{"ha":371,"x_min":3,"x_max":368,"o":"m 368 987 q 247 425 368 940 q 126 -205 126 -90 l 3 -205 q 125 349 3 -161 q 246 987 246 859 l 368 987 z "},"|":{"ha":350,"x_min":103,"x_max":248,"o":"m 248 -351 l 103 -351 q 112 319 112 33 q 103 1051 112 601 l 248 1051 q 239 319 239 614 q 248 -351 239 26 z "},"–":{"ha":694,"x_min":39,"x_max":655,"o":"m 655 278 l 39 278 l 39 400 l 655 400 l 655 278 z "},"—":{"ha":1389,"x_min":0,"x_max":1389,"o":"m 1389 278 l 0 278 l 0 400 l 1389 400 l 1389 278 z "},"―":{"ha":1389,"x_min":36,"x_max":1353,"o":"m 1353 278 l 36 278 l 36 414 l 1353 414 l 1353 278 z "},"•":{"ha":916,"x_min":254,"x_max":666,"o":"m 666 434 q 605 271 666 330 q 460 213 545 213 q 316 271 377 213 q 254 433 254 329 q 316 597 254 538 q 460 656 377 656 q 605 597 544 656 q 666 434 666 538 z "},"·":{"ha":350,"x_min":55,"x_max":292,"o":"m 292 416 q 257 329 292 366 q 163 291 223 291 q 83 323 112 291 q 55 401 55 356 q 89 487 55 451 q 184 524 123 524 q 264 492 236 524 q 292 416 292 460 z "},"(":{"ha":490,"x_min":54,"x_max":441,"o":"m 441 -237 l 392 -330 q 223 -204 293 -284 q 54 319 54 -12 q 227 890 54 676 q 399 1031 298 979 l 434 939 q 317 810 366 888 q 201 319 201 620 q 321 -113 201 61 q 441 -237 371 -186 z "},")":{"ha":490,"x_min":54,"x_max":441,"o":"m 441 382 q 269 -188 441 26 q 95 -330 196 -277 l 60 -237 q 178 -107 129 -186 q 294 382 294 82 q 174 816 294 641 q 54 939 124 889 l 102 1031 q 272 906 201 986 q 441 382 441 714 z "},"[":{"ha":490,"x_min":80,"x_max":406,"o":"m 406 -186 l 399 -330 l 80 -322 q 88 319 88 18 q 80 1023 88 636 l 406 1031 l 399 888 q 222 892 277 892 q 216 319 216 570 q 222 -198 216 131 q 406 -186 273 -197 z "},"]":{"ha":490,"x_min":81,"x_max":407,"o":"m 407 -320 l 81 -329 l 87 -186 q 264 -190 210 -190 q 271 383 271 132 q 264 901 271 572 q 81 888 214 899 l 87 1032 l 407 1025 q 399 383 399 685 q 407 -320 399 66 z "},"{":{"ha":490,"x_min":31,"x_max":469,"o":"m 469 -224 l 423 -332 q 130 -116 130 -271 q 160 50 130 -66 q 189 196 189 165 q 138 268 189 243 q 31 297 87 293 l 31 398 q 195 503 195 422 q 162 645 195 534 q 130 802 130 756 q 281 996 130 935 q 432 1031 344 1022 l 463 926 q 263 739 263 900 q 295 617 263 704 q 327 506 327 530 q 264 387 327 429 q 172 355 218 355 l 172 345 q 272 308 218 345 q 327 196 327 272 q 295 76 327 169 q 263 -48 263 -18 q 469 -224 263 -175 z "},"}":{"ha":490,"x_min":34,"x_max":469,"o":"m 469 299 q 310 196 310 259 q 340 51 310 165 q 370 -112 370 -63 q 222 -290 370 -225 q 75 -332 161 -317 l 34 -224 q 228 -48 228 -185 q 200 76 228 -16 q 173 195 173 169 q 236 313 173 271 q 329 342 282 342 l 329 352 q 228 390 283 352 q 173 505 173 429 q 200 617 173 530 q 228 739 228 705 q 37 925 228 888 l 71 1031 q 221 993 159 1019 q 370 806 370 930 q 339 647 370 759 q 307 503 307 534 q 360 431 307 456 q 469 400 412 405 l 469 299 z "},"*":{"ha":701,"x_min":64,"x_max":637,"o":"m 637 718 q 582 663 637 675 q 490 659 560 659 q 414 660 461 659 l 409 642 q 543 489 543 528 q 513 434 543 461 q 454 406 483 406 q 351 604 398 406 l 332 604 q 212 426 260 426 q 152 450 183 426 q 121 502 121 474 q 278 647 121 551 l 273 667 q 91 698 205 675 q 64 748 64 707 q 80 808 64 781 q 123 836 96 836 q 301 730 163 836 l 317 741 q 288 925 288 879 q 311 959 288 946 q 364 972 334 972 q 431 925 431 972 q 383 737 431 871 l 398 724 q 574 808 534 808 q 619 777 600 808 q 637 718 637 746 z "},"†":{"ha":490,"x_min":5,"x_max":485,"o":"m 485 639 l 478 509 q 334 513 433 511 q 277 -280 334 189 l 214 -280 q 170 513 170 191 q 5 509 136 513 l 14 639 q 181 632 77 635 q 149 953 175 770 l 343 967 q 321 632 333 877 q 485 639 369 633 z "},"‡":{"ha":490,"x_min":5,"x_max":485,"o":"m 485 359 l 478 224 q 338 229 389 229 q 277 -280 339 75 l 214 -280 q 165 229 165 78 q 5 224 132 229 l 14 359 q 191 352 151 352 q 170 513 170 486 q 5 509 132 513 l 14 639 q 181 632 144 632 q 149 953 178 770 l 343 967 q 321 632 332 877 q 485 639 370 632 l 478 509 q 334 513 385 513 q 314 352 334 486 q 485 359 362 352 z "},"§":{"ha":583,"x_min":43,"x_max":536,"o":"m 536 -74 q 235 -294 536 -294 q 43 -271 125 -294 l 66 -137 q 235 -168 151 -168 q 380 -94 380 -168 q 296 24 380 -51 q 142 163 153 152 q 58 335 58 254 q 193 514 58 471 q 58 741 58 633 q 123 896 58 834 q 313 958 188 958 q 509 938 433 958 l 486 803 q 313 833 402 833 q 214 761 214 833 q 297 646 214 717 q 453 512 434 532 q 536 332 536 422 q 410 155 536 196 q 536 -74 536 41 m 393 307 q 286 441 393 356 q 225 417 246 441 q 203 360 203 394 q 313 231 203 313 q 372 253 352 231 q 393 307 393 276 z "},"¶":{"ha":930,"x_min":85,"x_max":813,"o":"m 813 -280 l 629 -280 q 635 485 635 72 q 629 819 635 663 q 538 823 607 821 q 531 245 531 465 q 540 -336 531 -92 l 414 -336 q 422 245 422 -89 q 421 383 422 303 q 170 454 254 385 q 85 682 85 522 q 176 885 85 813 q 392 957 267 957 q 519 955 442 957 q 631 953 597 953 l 813 953 q 804 471 804 766 q 813 -280 804 64 z "},"Α":{"ha":875,"x_min":7,"x_max":867,"o":"m 867 0 l 650 0 q 589 254 650 45 l 275 254 q 212 0 212 48 l 7 0 q 166 434 7 26 q 324 883 324 842 l 581 883 q 724 440 581 844 q 867 0 867 37 m 554 383 q 438 762 438 733 l 427 762 q 307 383 427 735 l 554 383 z "},"Β":{"ha":830,"x_min":98,"x_max":778,"o":"m 778 266 q 336 -4 778 -4 q 98 0 260 -4 q 106 462 106 205 q 98 883 106 709 l 208 883 q 312 885 239 883 q 427 887 386 887 q 728 692 728 887 q 574 492 728 541 l 574 482 q 717 418 656 469 q 778 266 778 367 m 595 258 q 358 393 595 393 q 277 390 311 393 q 283 129 277 248 q 353 123 307 123 q 536 154 478 123 q 595 258 595 184 m 545 638 q 393 760 545 760 q 269 749 323 760 q 277 514 277 681 q 331 513 302 513 q 545 638 545 513 z "},"Γ":{"ha":673,"x_min":98,"x_max":658,"o":"m 658 883 l 653 734 q 270 745 441 745 q 279 488 279 629 q 285 0 279 172 l 98 0 q 106 462 106 205 q 98 883 106 709 l 658 883 z "},"Δ":{"ha":847,"x_min":7,"x_max":840,"o":"m 840 0 l 7 0 q 159 435 7 28 q 311 883 311 842 l 566 883 q 703 440 566 844 q 840 0 840 37 m 600 138 q 493 500 578 228 q 424 762 424 724 l 414 762 q 342 499 414 722 q 235 138 257 231 l 600 138 z "},"Ε":{"ha":732,"x_min":98,"x_max":680,"o":"m 680 149 l 675 0 l 98 0 q 106 462 106 205 q 98 883 106 709 l 648 883 l 641 734 q 272 745 437 745 q 279 523 279 651 q 582 530 420 523 l 582 389 q 279 395 423 395 q 284 138 279 258 q 680 149 470 138 z "},"Ζ":{"ha":715,"x_min":52,"x_max":663,"o":"m 663 153 l 658 0 l 52 0 l 62 139 q 281 463 136 237 q 439 739 439 709 l 439 750 q 64 734 277 750 l 68 883 l 648 883 l 639 743 q 430 424 564 640 q 278 148 278 180 l 278 138 q 663 153 420 138 z "},"Η":{"ha":907,"x_min":98,"x_max":810,"o":"m 810 0 l 618 0 q 625 389 625 224 l 283 389 q 290 0 283 241 l 98 0 q 106 462 106 224 q 98 883 106 703 l 290 883 q 281 530 281 692 l 626 530 q 618 883 626 673 l 810 883 q 800 462 800 711 q 810 0 800 202 z "},"Θ":{"ha":968,"x_min":52,"x_max":916,"o":"m 916 458 q 788 113 916 250 q 473 -24 661 -24 q 173 101 294 -24 q 52 421 52 227 q 180 766 52 629 q 495 903 307 903 q 795 778 674 903 q 916 458 916 652 m 728 438 q 656 668 728 580 q 477 756 583 756 q 309 667 378 756 q 239 443 239 578 q 312 213 239 302 q 491 125 385 125 q 659 214 590 125 q 728 438 728 303 m 612 382 q 485 389 558 389 q 356 382 420 389 l 356 528 q 488 522 424 522 q 612 528 557 522 l 612 382 z "},"Ι":{"ha":387,"x_min":98,"x_max":290,"o":"m 290 0 l 98 0 q 106 462 106 210 q 98 883 106 709 l 290 883 q 281 462 281 712 q 290 0 281 206 z "},"Κ":{"ha":819,"x_min":98,"x_max":811,"o":"m 811 0 l 589 0 q 475 215 589 31 q 302 411 353 411 l 281 411 q 289 0 281 256 l 98 0 q 106 462 106 205 q 98 883 106 709 l 289 883 q 281 530 281 695 l 296 530 q 447 697 326 530 q 564 883 564 859 l 766 883 q 642 714 766 861 q 455 522 514 563 l 455 511 q 673 243 524 475 q 811 0 811 28 z "},"Λ":{"ha":847,"x_min":7,"x_max":840,"o":"m 840 0 l 622 0 q 523 396 622 71 q 424 762 424 722 l 414 762 q 313 400 414 720 q 212 0 212 80 l 7 0 q 159 435 7 28 q 311 883 311 842 l 566 883 q 703 440 566 844 q 840 0 840 37 z "},"Μ":{"ha":1200,"x_min":67,"x_max":1117,"o":"m 1117 0 l 920 0 q 905 389 920 115 q 890 730 891 663 l 880 730 q 844 580 873 690 q 735 256 815 470 q 654 0 654 42 l 505 0 q 428 258 505 43 q 327 559 351 473 q 289 730 303 646 l 279 730 q 262 367 278 646 q 246 0 246 88 l 67 0 q 116 408 67 20 q 165 883 165 795 l 428 883 q 511 548 428 807 q 594 216 594 289 l 604 216 q 699 549 604 290 q 793 883 793 808 l 1054 883 q 1085 382 1054 743 q 1117 0 1117 22 z "},"Ν":{"ha":923,"x_min":98,"x_max":825,"o":"m 825 0 l 658 0 q 471 294 658 28 q 249 677 276 574 l 238 677 q 255 408 255 528 q 264 0 255 241 l 98 0 q 108 462 108 210 q 98 883 108 709 l 299 883 q 467 596 299 847 q 671 235 645 330 l 682 235 q 665 506 665 386 q 656 883 665 690 l 825 883 q 816 462 816 715 q 825 0 816 207 z "},"Ξ":{"ha":732,"x_min":45,"x_max":687,"o":"m 687 161 l 682 0 l 45 0 l 50 161 q 374 149 212 149 q 687 161 528 149 m 677 883 l 671 724 q 361 735 498 735 q 59 724 221 735 l 64 883 l 677 883 m 594 382 q 374 388 492 388 q 141 382 257 388 l 141 534 q 372 526 268 526 q 594 534 475 526 l 594 382 z "},"Ο":{"ha":968,"x_min":52,"x_max":916,"o":"m 916 458 q 788 113 916 250 q 473 -24 661 -24 q 173 101 294 -24 q 52 421 52 227 q 180 766 52 629 q 495 903 307 903 q 795 778 674 903 q 916 458 916 652 m 728 438 q 656 668 728 580 q 477 756 583 756 q 309 667 378 756 q 239 443 239 578 q 312 213 239 302 q 491 125 385 125 q 659 214 590 125 q 728 438 728 303 z "},"Π":{"ha":892,"x_min":98,"x_max":794,"o":"m 794 0 l 604 0 q 611 448 611 193 q 623 741 611 594 l 269 741 q 281 456 281 600 q 288 0 281 199 l 98 0 q 106 465 106 234 q 98 883 106 687 l 794 883 q 786 465 786 696 q 794 0 786 229 z "},"Ρ":{"ha":772,"x_min":98,"x_max":742,"o":"m 742 652 q 622 412 742 490 q 326 335 501 335 q 281 336 294 335 q 288 0 281 209 l 98 0 q 106 462 106 196 q 98 883 106 706 l 216 883 q 312 885 241 883 q 435 887 383 887 q 653 829 564 887 q 742 652 742 770 m 567 614 q 374 760 567 760 q 273 749 326 760 q 280 459 280 621 q 319 458 297 458 q 567 614 567 458 z "},"Σ":{"ha":741,"x_min":15,"x_max":703,"o":"m 703 172 l 697 0 l 15 0 q 335 456 15 52 l 335 467 q 31 883 31 814 l 671 883 l 665 734 q 320 750 465 750 l 321 738 q 533 492 322 709 q 269 168 269 200 l 269 157 q 703 172 530 157 z "},"Τ":{"ha":730,"x_min":15,"x_max":715,"o":"m 715 883 l 711 737 q 455 747 575 747 q 454 462 454 619 q 461 0 454 218 l 271 0 q 280 462 280 216 q 277 747 280 616 q 15 736 182 747 l 20 883 l 715 883 z "},"Υ":{"ha":766,"x_min":7,"x_max":759,"o":"m 759 883 q 682 733 759 855 q 537 501 563 547 q 460 297 460 363 q 468 0 460 148 l 275 0 q 283 299 283 149 q 212 509 283 368 q 79 741 178 574 q 7 883 7 861 l 220 883 q 306 677 220 859 q 391 443 391 496 l 401 443 q 485 665 401 492 q 568 883 568 839 l 759 883 z "},"Φ":{"ha":977,"x_min":37,"x_max":940,"o":"m 940 469 q 842 212 940 322 q 581 72 743 102 q 585 -27 583 12 l 393 -27 q 398 70 395 -9 q 135 194 232 91 q 37 441 37 296 q 135 702 37 591 q 397 842 233 812 l 393 910 l 585 910 q 581 844 585 898 q 844 719 747 822 q 940 469 940 616 m 406 462 q 401 726 406 584 q 210 471 210 679 q 262 287 210 359 q 401 187 315 214 q 406 462 406 328 m 767 458 q 576 725 767 669 q 573 462 573 589 q 576 186 573 336 q 767 458 767 237 z "},"Χ":{"ha":816,"x_min":7,"x_max":808,"o":"m 808 0 l 581 0 q 504 174 581 24 q 396 366 429 321 l 385 366 q 288 178 356 326 q 217 0 217 27 l 7 0 q 139 229 7 20 q 309 473 271 437 l 309 484 q 164 690 272 526 q 53 883 53 861 l 271 883 q 334 737 271 861 q 423 582 397 613 l 434 582 q 519 737 459 614 q 579 883 579 861 l 780 883 q 664 695 780 864 q 515 494 547 526 l 515 484 q 684 230 559 435 q 808 0 808 25 z "},"Ψ":{"ha":998,"x_min":45,"x_max":954,"o":"m 954 857 q 930 640 930 760 q 587 292 930 349 q 594 0 588 125 l 402 0 q 410 290 406 57 q 163 377 243 311 q 68 614 68 455 q 45 857 68 742 l 183 878 q 229 681 216 821 q 277 500 240 558 q 412 416 318 433 q 402 883 412 686 l 594 883 q 585 416 585 690 q 720 494 680 429 q 765 681 753 549 q 811 878 778 821 l 954 857 z "},"Ω":{"ha":979,"x_min":45,"x_max":935,"o":"m 935 150 l 928 0 l 558 0 q 629 212 558 122 q 726 490 726 340 q 656 681 726 607 q 484 754 587 754 q 318 689 382 754 q 254 515 254 625 q 357 212 254 349 q 422 0 422 115 l 52 0 l 45 150 q 258 130 167 130 l 257 140 q 202 209 257 157 q 107 329 146 262 q 68 501 68 395 q 187 792 68 680 q 498 905 306 905 q 795 800 680 905 q 911 530 911 695 q 869 348 911 422 q 768 214 827 273 q 710 141 710 155 l 709 130 q 935 150 816 130 z "},"Ά":{"ha":932,"x_min":43,"x_max":924,"o":"m 924 0 l 707 0 q 646 254 707 45 l 332 254 q 269 0 269 48 l 64 0 q 223 434 64 26 q 381 883 381 842 l 637 883 q 781 440 637 844 q 924 0 924 37 m 611 383 q 495 762 495 733 l 484 762 q 364 383 484 735 l 611 383 m 345 1024 q 253 892 345 1009 q 162 757 162 774 l 43 757 q 97 895 43 779 q 151 1024 151 1010 l 345 1024 z "},"Έ":{"ha":970,"x_min":43,"x_max":918,"o":"m 918 149 l 913 0 l 336 0 q 345 462 345 205 q 336 883 345 709 l 886 883 l 879 734 q 510 745 675 745 q 517 523 517 651 q 820 530 659 523 l 820 389 q 517 395 661 395 q 522 138 517 258 q 918 149 708 138 m 345 1024 q 253 892 345 1009 q 162 757 162 774 l 43 757 q 97 895 43 779 q 151 1024 151 1010 l 345 1024 z "},"Ή":{"ha":1153,"x_min":43,"x_max":1055,"o":"m 1055 0 l 863 0 q 870 389 870 224 l 528 389 q 535 0 528 241 l 343 0 q 352 462 352 224 q 343 883 352 703 l 535 883 q 527 530 527 692 l 871 530 q 863 883 871 673 l 1055 883 q 1046 462 1046 711 q 1055 0 1046 202 m 345 1024 q 253 892 345 1009 q 162 757 162 774 l 43 757 q 97 895 43 779 q 151 1024 151 1010 l 345 1024 z "},"Ί":{"ha":626,"x_min":43,"x_max":528,"o":"m 528 0 l 336 0 q 345 462 345 210 q 336 883 345 709 l 528 883 q 519 462 519 712 q 528 0 519 206 m 345 1024 q 253 892 345 1009 q 162 757 162 774 l 43 757 q 97 895 43 779 q 151 1024 151 1010 l 345 1024 z "},"Ϊ":{"ha":387,"x_min":-33,"x_max":422,"o":"m 290 0 l 98 0 q 106 462 106 210 q 98 883 106 709 l 290 883 q 281 462 281 712 q 290 0 281 206 m 422 1063 q 395 994 422 1023 q 320 964 368 964 q 257 990 279 964 q 234 1051 234 1015 q 261 1119 234 1090 q 337 1148 289 1148 q 400 1123 378 1148 q 422 1063 422 1098 m 154 1063 q 127 994 154 1023 q 52 964 100 964 q -11 990 12 964 q -33 1051 -33 1015 q -6 1119 -33 1090 q 69 1148 21 1148 q 132 1123 110 1148 q 154 1063 154 1098 z "},"Ό":{"ha":1126,"x_min":43,"x_max":1074,"o":"m 1074 458 q 946 113 1074 250 q 631 -24 819 -24 q 331 101 452 -24 q 210 421 210 227 q 338 766 210 629 q 653 903 465 903 q 953 778 832 903 q 1074 458 1074 652 m 886 438 q 814 668 886 580 q 635 756 741 756 q 467 667 536 756 q 397 443 397 578 q 470 213 397 302 q 649 125 543 125 q 817 214 748 125 q 886 438 886 303 m 345 1024 q 253 892 345 1009 q 162 757 162 774 l 43 757 q 97 895 43 779 q 151 1024 151 1010 l 345 1024 z "},"Ύ":{"ha":1052,"x_min":43,"x_max":1044,"o":"m 1044 883 q 967 733 1044 855 q 823 501 848 547 q 745 297 745 363 q 753 0 745 148 l 561 0 q 568 299 568 149 q 497 509 568 368 q 364 741 464 574 q 293 883 293 861 l 506 883 q 591 677 506 859 q 676 443 676 496 l 687 443 q 770 665 687 492 q 853 883 853 839 l 1044 883 m 345 1024 q 253 892 345 1009 q 162 757 162 774 l 43 757 q 97 895 43 779 q 151 1024 151 1010 l 345 1024 z "},"Ϋ":{"ha":766,"x_min":7,"x_max":759,"o":"m 759 883 q 682 733 759 855 q 537 501 563 547 q 460 297 460 363 q 468 0 460 148 l 275 0 q 283 299 283 149 q 212 509 283 368 q 79 741 178 574 q 7 883 7 861 l 220 883 q 306 677 220 859 q 391 443 391 496 l 401 443 q 485 665 401 492 q 568 883 568 839 l 759 883 m 622 1063 q 595 994 622 1023 q 520 964 568 964 q 457 990 479 964 q 434 1051 434 1015 q 461 1119 434 1090 q 537 1148 489 1148 q 600 1123 578 1148 q 622 1063 622 1098 m 354 1063 q 327 994 354 1023 q 252 964 300 964 q 190 990 212 964 q 167 1051 167 1015 q 194 1119 167 1090 q 269 1148 221 1148 q 332 1123 310 1148 q 354 1063 354 1098 z "},"Ώ":{"ha":1145,"x_min":43,"x_max":1100,"o":"m 345 1024 q 253 892 345 1009 q 162 757 162 774 l 43 757 q 97 895 43 779 q 151 1024 151 1010 l 345 1024 m 1100 150 l 1093 0 l 724 0 q 795 212 724 122 q 891 490 891 340 q 822 681 891 607 q 649 754 753 754 q 484 689 548 754 q 420 515 420 625 q 522 212 420 349 q 588 0 588 115 l 218 0 l 210 150 q 423 130 332 130 l 422 140 q 367 209 422 157 q 273 329 312 262 q 234 501 234 395 q 353 792 234 680 q 663 905 471 905 q 961 800 846 905 q 1076 530 1076 695 q 1034 348 1076 422 q 934 214 992 273 q 876 141 876 155 l 875 130 q 1100 150 981 130 z "},"α":{"ha":805,"x_min":46,"x_max":791,"o":"m 791 127 l 781 5 q 671 -14 722 -14 q 521 139 549 -14 l 510 139 q 426 22 480 68 q 302 -24 372 -24 q 105 69 165 -24 q 46 304 46 161 q 127 565 46 463 q 348 668 208 668 q 516 547 460 668 l 526 547 q 551 659 532 602 l 704 644 q 664 300 664 514 q 681 155 664 194 q 735 116 698 116 q 791 127 763 116 m 506 406 q 359 540 451 540 q 258 483 292 540 q 224 329 224 427 q 256 170 224 233 q 342 107 288 107 q 506 406 479 107 z "},"β":{"ha":747,"x_min":67,"x_max":711,"o":"m 711 312 q 622 75 711 167 q 396 -18 532 -18 q 261 12 304 -18 l 252 12 q 296 -294 259 -153 l 105 -323 q 67 521 67 -208 q 145 871 67 768 q 395 974 224 974 q 585 927 507 974 q 663 776 663 880 q 501 587 663 628 l 501 577 q 711 312 711 521 m 538 294 q 482 458 538 399 q 356 513 431 513 q 303 510 329 513 l 316 613 q 363 608 337 608 q 461 642 421 608 q 501 739 501 675 q 469 822 501 791 q 384 853 437 853 q 261 790 288 853 q 233 532 233 727 q 244 129 233 329 q 376 102 293 102 q 493 155 447 102 q 538 294 538 207 z "},"γ":{"ha":693,"x_min":9,"x_max":680,"o":"m 680 644 q 545 237 680 490 q 406 -34 410 -17 q 421 -299 421 -184 l 265 -324 q 241 -168 241 -262 q 265 0 241 -83 q 164 372 246 216 q 9 608 82 528 l 177 659 q 291 467 232 606 q 376 138 351 328 l 385 138 q 449 301 386 142 q 512 659 512 460 l 680 644 z "},"δ":{"ha":763,"x_min":47,"x_max":716,"o":"m 716 317 q 617 63 716 153 q 372 -26 519 -26 q 137 51 228 -26 q 47 266 47 128 q 123 483 47 397 q 292 597 200 568 l 292 607 q 146 806 146 711 q 425 982 146 982 q 688 935 591 982 l 659 802 q 415 863 536 863 q 299 814 299 863 q 407 714 299 785 q 608 559 549 621 q 716 317 716 448 m 541 291 q 372 545 541 433 q 224 292 224 462 q 269 149 224 201 q 386 98 314 98 q 497 148 454 98 q 541 291 541 198 z "},"ε":{"ha":637,"x_min":52,"x_max":586,"o":"m 586 162 l 574 33 q 335 -18 475 -18 q 52 168 52 -18 q 94 275 52 236 q 195 323 137 314 l 195 334 q 62 480 62 370 q 136 616 62 566 q 338 665 210 665 q 563 642 472 665 l 541 518 q 355 549 448 549 q 231 477 231 549 q 397 393 231 393 q 496 399 440 393 l 482 280 q 397 286 435 286 q 223 195 223 286 q 363 104 223 104 q 586 162 463 104 z "},"ζ":{"ha":606,"x_min":47,"x_max":593,"o":"m 593 -48 q 496 -249 593 -157 l 425 -223 q 444 -107 444 -174 q 306 -1 444 -31 q 130 74 186 25 q 47 292 47 146 q 198 662 47 481 q 349 805 260 737 l 349 816 q 133 800 266 800 l 149 941 q 537 970 390 941 l 563 854 q 392 727 463 799 q 220 329 220 555 q 261 196 220 236 q 385 144 294 165 q 593 -48 593 98 z "},"η":{"ha":758,"x_min":26,"x_max":690,"o":"m 690 -294 l 517 -316 q 503 71 503 -183 q 506 198 503 106 q 509 347 509 290 q 486 492 509 456 q 408 528 462 528 q 259 439 325 528 q 249 -3 259 156 l 70 3 q 96 334 96 157 q 26 612 96 505 l 185 659 q 217 610 201 641 q 238 549 233 580 l 248 549 q 461 667 334 667 q 677 443 677 667 q 672 299 677 395 q 667 142 667 203 q 690 -294 667 -127 z "},"θ":{"ha":798,"x_min":47,"x_max":751,"o":"m 751 492 q 650 109 751 244 q 389 -27 549 -27 q 140 95 233 -27 q 47 452 47 217 q 149 836 47 699 q 411 972 250 972 q 658 849 565 972 q 751 492 751 726 m 576 420 l 225 420 q 399 98 243 98 q 576 420 572 98 m 570 553 q 399 847 545 847 q 224 553 237 847 l 570 553 z "},"ι":{"ha":354,"x_min":66,"x_max":354,"o":"m 354 127 l 343 6 q 241 -14 290 -14 q 106 39 145 -14 q 66 275 66 92 q 79 644 66 466 l 242 659 q 227 318 227 513 q 242 153 227 190 q 298 116 257 116 q 354 127 321 116 z "},"κ":{"ha":758,"x_min":62,"x_max":715,"o":"m 715 7 l 524 -14 q 365 234 524 26 l 355 234 q 215 -13 295 172 l 62 5 q 101 334 101 146 q 79 637 101 499 l 274 659 q 267 382 267 545 q 259 262 267 327 l 269 262 q 399 455 276 281 q 522 659 522 630 l 711 644 q 476 364 711 605 l 476 354 q 715 7 715 61 z "},"λ":{"ha":715,"x_min":18,"x_max":711,"o":"m 711 39 l 532 -24 q 378 463 415 77 l 369 463 q 287 247 369 433 q 204 -7 204 60 l 18 7 q 179 331 18 71 q 351 624 340 590 q 305 779 343 747 q 195 811 267 811 q 99 803 153 811 l 115 944 q 231 960 180 960 q 398 899 349 960 q 471 661 448 839 q 711 39 534 168 z "},"μ":{"ha":812,"x_min":80,"x_max":803,"o":"m 803 127 l 792 5 q 694 -14 740 -14 q 544 68 578 -14 l 532 68 q 371 -14 460 -14 q 202 68 256 -14 l 192 68 q 296 -279 192 -131 l 138 -327 q 90 -168 90 -267 q 98 -8 90 -130 q 107 179 107 113 q 80 647 107 434 l 273 659 q 264 399 264 542 q 293 173 264 232 q 397 115 323 115 q 517 184 468 115 q 506 644 517 520 l 693 659 q 680 326 680 482 q 694 154 680 192 q 744 115 708 115 q 803 127 769 115 z "},"ν":{"ha":693,"x_min":17,"x_max":646,"o":"m 646 493 q 601 322 646 406 q 474 119 556 238 q 409 0 412 28 l 265 0 q 158 363 250 162 q 17 619 65 564 l 196 662 q 292 452 224 636 q 372 147 360 268 l 381 147 q 435 270 386 162 q 485 637 485 378 l 610 659 q 646 493 646 600 z "},"ξ":{"ha":621,"x_min":54,"x_max":600,"o":"m 600 -48 q 503 -249 600 -157 l 431 -223 q 450 -111 450 -166 q 313 -1 450 -33 q 139 68 194 27 q 54 254 54 132 q 107 403 54 340 q 229 479 160 466 l 229 490 q 114 627 114 521 q 291 809 114 741 l 291 819 q 92 803 191 803 l 108 944 q 537 973 372 944 l 563 854 q 275 669 275 786 q 319 593 275 613 q 412 581 348 581 q 524 587 458 581 l 508 436 q 412 445 460 445 q 277 403 328 445 q 226 294 226 361 q 267 190 226 224 q 391 141 302 161 q 544 78 488 119 q 600 -48 600 37 z "},"ο":{"ha":776,"x_min":47,"x_max":729,"o":"m 729 337 q 624 70 729 166 q 376 -26 519 -26 q 144 61 241 -26 q 47 309 47 149 q 153 577 47 480 q 401 674 258 674 q 632 586 536 674 q 729 337 729 497 m 552 317 q 506 482 552 415 q 386 549 460 549 q 269 486 314 549 q 224 330 224 424 q 270 165 224 232 q 390 98 316 98 q 507 161 462 98 q 552 317 552 223 z "},"π":{"ha":857,"x_min":3,"x_max":812,"o":"m 812 652 l 808 507 q 647 511 726 511 q 643 323 643 421 q 726 115 643 115 q 789 127 754 115 l 779 5 q 672 -14 723 -14 q 533 37 584 -14 q 483 233 483 89 q 510 502 483 380 l 510 511 l 346 511 q 272 -7 324 112 l 92 7 q 142 144 120 71 q 205 511 194 321 l 152 511 q 37 481 98 511 l 3 559 q 230 644 68 644 q 812 652 581 644 z "},"ρ":{"ha":749,"x_min":60,"x_max":702,"o":"m 702 340 q 623 88 702 197 q 406 -20 545 -20 q 250 62 291 -20 l 241 62 q 290 -294 248 -103 l 100 -323 q 60 296 60 -128 q 143 588 60 502 q 385 674 226 674 q 623 581 543 674 q 702 340 702 487 m 526 322 q 486 481 526 414 q 371 547 446 547 q 231 330 231 547 q 237 188 231 266 q 380 106 286 106 q 489 169 452 106 q 526 322 526 233 z "},"σ":{"ha":804,"x_min":47,"x_max":770,"o":"m 770 556 q 574 523 670 523 l 574 509 q 692 289 692 432 q 598 55 692 136 q 362 -26 505 -26 q 137 61 228 -26 q 47 309 47 149 q 149 568 47 481 q 382 655 251 655 q 736 669 623 655 l 770 556 m 522 303 q 452 523 522 423 q 382 528 424 528 q 224 330 224 528 q 263 163 224 226 q 376 100 303 100 q 522 303 522 100 z "},"ς":{"ha":553,"x_min":47,"x_max":559,"o":"m 559 -62 q 452 -249 559 -188 l 387 -223 q 410 -121 410 -170 q 383 -56 410 -83 q 282 3 356 -29 q 110 122 174 49 q 47 330 47 195 q 145 580 47 496 q 399 664 244 664 q 549 654 488 664 l 526 514 q 391 536 467 536 q 260 489 310 536 q 211 356 211 443 q 246 227 211 272 q 361 148 281 181 q 516 55 474 101 q 559 -62 559 8 z "},"τ":{"ha":672,"x_min":3,"x_max":640,"o":"m 640 652 l 635 509 q 386 511 540 511 q 382 323 382 421 q 472 115 382 115 q 564 127 510 115 l 553 5 q 406 -14 480 -14 q 270 40 318 -14 q 222 239 222 95 q 249 502 222 380 l 249 511 l 166 511 q 37 481 93 511 l 3 559 q 209 644 58 644 q 640 652 456 644 z "},"υ":{"ha":743,"x_min":37,"x_max":696,"o":"m 696 404 q 597 84 696 191 q 368 -22 499 -22 q 162 44 233 -22 q 92 277 92 111 q 37 631 92 503 l 220 659 q 264 376 264 543 q 294 166 264 222 q 388 111 325 111 q 519 380 519 111 q 479 642 519 528 l 568 659 q 696 404 696 576 z "},"φ":{"ha":1042,"x_min":44,"x_max":999,"o":"m 999 387 q 892 123 999 241 q 599 -20 785 4 q 600 -97 600 -62 q 560 -332 600 -245 l 427 -326 q 443 -122 443 -229 q 439 -20 443 -68 q 44 332 44 22 q 127 561 44 474 q 353 677 211 648 l 393 578 q 263 496 305 548 q 220 353 220 444 q 435 100 220 131 q 423 340 423 233 q 502 593 423 512 q 701 674 581 674 q 926 595 853 674 q 999 387 999 517 m 822 362 q 701 549 822 549 q 576 341 576 549 q 589 100 576 189 q 763 192 704 121 q 822 362 822 263 z "},"χ":{"ha":700,"x_min":13,"x_max":697,"o":"m 697 -154 l 682 -309 q 587 -328 640 -328 q 482 -255 528 -328 q 345 70 433 -178 l 333 70 l 261 -101 q 195 -323 195 -258 l 13 -310 q 275 214 13 -198 q 153 454 195 401 q 62 498 117 498 q 24 493 41 498 l 39 647 q 120 663 69 663 q 233 597 189 663 q 353 313 277 532 l 361 313 q 427 459 395 389 q 488 659 488 591 l 666 644 q 425 178 666 525 q 572 -104 521 -34 q 652 -159 612 -159 q 697 -154 677 -159 z "},"ψ":{"ha":1011,"x_min":60,"x_max":962,"o":"m 962 368 q 862 113 962 211 q 590 -5 762 15 q 595 -296 591 -176 l 433 -323 q 438 -8 435 -262 q 173 77 262 1 q 85 321 85 152 q 60 630 85 529 l 203 658 q 256 380 256 552 q 294 183 256 245 q 439 107 332 121 q 441 360 441 231 q 433 955 441 719 l 595 965 q 587 360 587 735 q 589 109 587 274 q 745 203 705 128 q 785 446 785 278 q 750 642 785 535 l 854 662 q 962 368 962 556 z "},"ω":{"ha":1046,"x_min":51,"x_max":996,"o":"m 996 313 q 703 -22 996 -22 q 588 9 646 -22 q 514 79 530 41 l 500 79 q 427 8 478 40 q 320 -23 375 -23 q 51 281 51 -23 q 224 659 51 506 l 323 596 q 230 342 230 469 q 263 165 230 220 q 367 111 296 111 q 464 184 432 111 l 464 199 q 441 382 441 275 q 476 568 441 515 l 566 574 q 606 376 606 522 q 585 197 606 264 l 585 184 q 684 111 616 111 q 818 338 818 111 q 720 589 818 470 l 808 652 q 996 313 996 516 z "},"ά":{"ha":805,"x_min":46,"x_max":791,"o":"m 791 127 l 781 5 q 671 -14 722 -14 q 521 139 549 -14 l 510 139 q 426 22 480 68 q 302 -24 372 -24 q 105 69 165 -24 q 46 304 46 161 q 127 565 46 463 q 348 668 208 668 q 516 547 460 668 l 526 547 q 551 659 532 602 l 704 644 q 664 300 664 514 q 681 155 664 194 q 735 116 698 116 q 791 127 763 116 m 506 406 q 359 540 451 540 q 258 483 292 540 q 224 329 224 427 q 256 170 224 233 q 342 107 288 107 q 506 406 479 107 m 625 1024 q 534 892 625 1009 q 443 757 443 774 l 323 757 q 377 895 323 779 q 431 1024 431 1010 l 625 1024 z "},"έ":{"ha":637,"x_min":52,"x_max":610,"o":"m 586 162 l 574 33 q 335 -18 475 -18 q 52 168 52 -18 q 94 275 52 236 q 195 323 137 314 l 195 334 q 62 480 62 370 q 136 616 62 566 q 338 665 210 665 q 563 642 472 665 l 541 518 q 355 549 448 549 q 231 477 231 549 q 397 393 231 393 q 496 399 440 393 l 482 280 q 397 286 435 286 q 223 195 223 286 q 363 104 223 104 q 586 162 463 104 m 610 1024 q 519 892 610 1009 q 428 757 428 774 l 309 757 q 362 895 309 779 q 416 1024 416 1010 l 610 1024 z "},"ή":{"ha":758,"x_min":26,"x_max":690,"o":"m 690 -294 l 517 -316 q 503 71 503 -183 q 506 198 503 106 q 509 347 509 290 q 486 492 509 456 q 408 528 462 528 q 259 439 325 528 q 249 -3 259 156 l 70 3 q 96 334 96 157 q 26 612 96 505 l 185 659 q 217 610 201 641 q 238 549 233 580 l 248 549 q 461 667 334 667 q 677 443 677 667 q 672 299 677 395 q 667 142 667 203 q 690 -294 667 -127 m 635 1024 q 544 892 635 1009 q 452 757 452 774 l 333 757 q 387 895 333 779 q 441 1024 441 1010 l 635 1024 z "},"ί":{"ha":354,"x_min":66,"x_max":397,"o":"m 354 127 l 343 6 q 241 -14 290 -14 q 106 39 145 -14 q 66 275 66 92 q 79 644 66 466 l 242 659 q 227 318 227 513 q 242 153 227 190 q 298 116 257 116 q 354 127 321 116 m 397 1024 q 306 892 397 1009 q 214 757 214 774 l 95 757 q 149 895 95 779 q 203 1024 203 1010 l 397 1024 z "},"ϊ":{"ha":354,"x_min":-52,"x_max":403,"o":"m 354 127 l 343 6 q 241 -14 290 -14 q 106 39 145 -14 q 66 275 66 92 q 79 644 66 466 l 242 659 q 227 318 227 513 q 242 153 227 190 q 298 116 257 116 q 354 127 321 116 m 403 848 q 376 780 403 809 q 301 750 349 750 q 238 775 260 750 q 215 837 215 801 q 242 905 215 876 q 318 934 270 934 q 381 909 359 934 q 403 848 403 884 m 135 848 q 108 780 135 809 q 33 750 81 750 q -30 775 -7 750 q -52 837 -52 801 q -25 905 -52 876 q 50 934 2 934 q 113 909 91 934 q 135 848 135 884 z "},"ΐ":{"ha":354,"x_min":-104,"x_max":453,"o":"m 354 127 l 343 6 q 241 -14 290 -14 q 106 39 145 -14 q 66 275 66 92 q 79 644 66 466 l 242 659 q 227 318 227 513 q 242 153 227 190 q 298 116 257 116 q 354 127 321 116 m 402 1119 q 308 987 402 1104 q 213 852 213 869 l 107 852 q 158 989 107 874 q 208 1119 208 1105 l 402 1119 m 453 852 q 427 784 453 813 q 353 755 400 755 q 290 780 313 755 q 268 840 268 805 q 295 907 268 879 q 370 936 322 936 q 431 911 410 936 q 453 852 453 887 m 81 852 q 55 784 81 813 q -20 755 28 755 q -82 780 -60 755 q -104 840 -104 805 q -77 907 -104 879 q -3 936 -50 936 q 59 911 37 936 q 81 852 81 887 z "},"ό":{"ha":776,"x_min":47,"x_max":729,"o":"m 729 337 q 624 70 729 166 q 376 -26 519 -26 q 144 61 241 -26 q 47 309 47 149 q 153 577 47 480 q 401 674 258 674 q 632 586 536 674 q 729 337 729 497 m 552 317 q 506 482 552 415 q 386 549 460 549 q 269 486 314 549 q 224 330 224 424 q 270 165 224 232 q 390 98 316 98 q 507 161 462 98 q 552 317 552 223 m 648 1024 q 557 892 648 1009 q 466 757 466 774 l 347 757 q 400 895 347 779 q 454 1024 454 1010 l 648 1024 z "},"ύ":{"ha":743,"x_min":37,"x_max":696,"o":"m 696 404 q 597 84 696 191 q 368 -22 499 -22 q 162 44 233 -22 q 92 277 92 111 q 37 631 92 503 l 220 659 q 264 376 264 543 q 294 166 264 222 q 388 111 325 111 q 519 380 519 111 q 479 642 519 528 l 568 659 q 696 404 696 576 m 615 1024 q 524 892 615 1009 q 433 757 433 774 l 313 757 q 367 895 313 779 q 421 1024 421 1010 l 615 1024 z "},"ϋ":{"ha":743,"x_min":37,"x_max":696,"o":"m 696 404 q 597 84 696 191 q 368 -22 499 -22 q 162 44 233 -22 q 92 277 92 111 q 37 631 92 503 l 220 659 q 264 376 264 543 q 294 166 264 222 q 388 111 325 111 q 519 380 519 111 q 479 642 519 528 l 568 659 q 696 404 696 576 m 619 848 q 592 780 619 809 q 517 750 566 750 q 454 775 477 750 q 431 837 431 801 q 459 905 431 876 q 534 934 486 934 q 597 909 575 934 q 619 848 619 884 m 351 848 q 325 780 351 809 q 250 750 298 750 q 187 775 210 750 q 164 837 164 801 q 191 905 164 876 q 267 934 218 934 q 329 909 307 934 q 351 848 351 884 z "},"ΰ":{"ha":743,"x_min":37,"x_max":696,"o":"m 696 404 q 597 84 696 191 q 368 -22 499 -22 q 162 44 233 -22 q 92 277 92 111 q 37 631 92 503 l 220 659 q 264 376 264 543 q 294 166 264 222 q 388 111 325 111 q 519 380 519 111 q 479 642 519 528 l 568 659 q 696 404 696 576 m 597 1119 q 502 987 597 1104 q 408 852 408 869 l 302 852 q 352 989 302 874 q 403 1119 403 1105 l 597 1119 m 648 852 q 621 784 648 813 q 547 755 595 755 q 485 780 507 755 q 463 840 463 805 q 490 907 463 879 q 564 936 517 936 q 626 911 604 936 q 648 852 648 887 m 276 852 q 249 784 276 813 q 175 755 222 755 q 113 780 135 755 q 91 840 91 805 q 118 907 91 879 q 192 936 144 936 q 254 911 232 936 q 276 852 276 887 z "},"ώ":{"ha":1046,"x_min":51,"x_max":996,"o":"m 996 313 q 703 -22 996 -22 q 588 9 646 -22 q 514 79 530 41 l 500 79 q 427 8 478 40 q 320 -23 375 -23 q 51 281 51 -23 q 224 659 51 506 l 323 596 q 230 342 230 469 q 263 165 230 220 q 367 111 296 111 q 464 184 432 111 l 464 199 q 441 382 441 275 q 476 568 441 515 l 566 574 q 606 376 606 522 q 585 197 606 264 l 585 184 q 684 111 616 111 q 818 338 818 111 q 720 589 818 470 l 808 652 q 996 313 996 516 m 778 1024 q 687 892 778 1009 q 595 757 595 774 l 476 757 q 530 895 476 779 q 584 1024 584 1010 l 778 1024 z "},"΄":{"ha":381,"x_min":43,"x_max":345,"o":"m 345 1024 q 253 892 345 1009 q 162 757 162 774 l 43 757 q 97 895 43 779 q 151 1024 151 1010 l 345 1024 z "},"΅":{"ha":567,"x_min":5,"x_max":562,"o":"m 511 1119 q 416 987 511 1104 q 321 852 321 869 l 216 852 q 266 989 216 874 q 317 1119 317 1105 l 511 1119 m 562 852 q 535 784 562 813 q 461 755 509 755 q 399 780 421 755 q 376 840 376 805 q 404 907 376 879 q 478 936 431 936 q 540 911 518 936 q 562 852 562 887 m 190 852 q 163 784 190 813 q 89 755 136 755 q 27 780 49 755 q 5 840 5 805 q 32 907 5 879 q 106 936 58 936 q 168 911 146 936 q 190 852 190 887 z "},"̈́":{"ha":0,"x_min":-443,"x_max":114,"o":"m 63 1119 q -32 987 63 1104 q -126 852 -126 869 l -232 852 q -181 989 -232 874 q -131 1119 -131 1105 l 63 1119 m 114 852 q 87 784 114 813 q 14 755 61 755 q -49 780 -26 755 q -71 840 -71 805 q -44 907 -71 879 q 31 936 -17 936 q 92 911 71 936 q 114 852 114 887 m -258 852 q -284 784 -258 813 q -359 755 -311 755 q -421 780 -399 755 q -443 840 -443 805 q -416 907 -443 879 q -342 936 -389 936 q -280 911 -302 936 q -258 852 -258 887 z "},"·":{"ha":350,"x_min":55,"x_max":292,"o":"m 292 554 q 257 467 292 505 q 163 429 223 429 q 83 462 112 429 q 55 540 55 494 q 89 626 55 589 q 184 662 123 662 q 264 630 236 662 q 292 554 292 599 z "},";":{"ha":351,"x_min":13,"x_max":292,"o":"m 290 106 q 73 -271 290 -71 l 13 -219 q 105 3 105 -117 q 54 104 54 34 q 88 189 54 153 q 184 226 123 226 q 262 189 234 226 q 290 106 290 153 m 163 -7 m 292 541 q 257 454 292 492 q 163 416 223 416 q 83 449 112 416 q 55 527 55 481 q 89 613 55 576 q 184 649 123 649 q 264 617 236 649 q 292 541 292 586 z "},"ʹ":{"ha":279,"x_min":0,"x_max":279,"o":"m 279 956 q 199 848 279 948 q 119 736 119 747 l 0 736 q 47 848 0 747 q 95 956 95 949 l 279 956 z "},"͵":{"ha":279,"x_min":0,"x_max":279,"o":"m 279 -68 q 231 -179 279 -79 q 184 -288 184 -280 l 0 -288 q 80 -179 0 -279 q 160 -68 160 -79 l 279 -68 z "},"А":{"ha":875,"x_min":7,"x_max":867,"o":"m 867 0 l 650 0 q 589 254 650 45 l 275 254 q 212 0 212 48 l 7 0 q 166 434 7 26 q 324 883 324 842 l 581 883 q 724 440 581 844 q 867 0 867 37 m 554 383 q 438 762 438 733 l 427 762 q 307 383 427 735 l 554 383 z "},"Б":{"ha":814,"x_min":98,"x_max":777,"o":"m 777 266 q 336 -4 777 -4 q 98 0 260 -4 q 106 462 106 208 q 98 883 106 730 l 717 883 l 711 734 q 269 745 459 745 q 277 524 277 659 q 373 527 332 527 q 777 266 777 527 m 595 258 q 358 393 595 393 q 277 390 311 393 q 283 129 277 248 q 353 123 307 123 q 536 154 478 123 q 595 258 595 184 z "},"В":{"ha":830,"x_min":98,"x_max":778,"o":"m 778 266 q 336 -4 778 -4 q 98 0 260 -4 q 106 462 106 205 q 98 883 106 709 l 208 883 q 312 885 239 883 q 427 887 386 887 q 728 692 728 887 q 574 492 728 541 l 574 482 q 717 418 656 469 q 778 266 778 367 m 595 258 q 358 393 595 393 q 277 390 311 393 q 283 129 277 248 q 353 123 307 123 q 536 154 478 123 q 595 258 595 184 m 545 638 q 393 760 545 760 q 269 749 323 760 q 277 514 277 681 q 331 513 302 513 q 545 638 545 513 z "},"Г":{"ha":676,"x_min":98,"x_max":661,"o":"m 661 883 l 656 728 q 269 739 438 739 q 280 416 280 631 q 286 0 280 134 l 98 0 q 106 439 106 184 q 98 883 106 736 l 661 883 z "},"Д":{"ha":922,"x_min":7,"x_max":907,"o":"m 907 138 q 888 -53 907 104 q 869 -281 869 -210 l 734 -281 q 732 5 734 -195 q 444 12 620 12 q 178 5 295 12 q 141 -281 141 -199 l 12 -281 q 9 -70 12 -216 q 7 138 7 75 l 90 138 q 392 883 221 519 l 778 883 q 770 481 770 688 q 781 138 770 296 l 907 138 m 603 138 q 595 453 595 256 q 592 749 595 632 l 480 749 q 245 138 317 374 l 603 138 z "},"Е":{"ha":732,"x_min":98,"x_max":680,"o":"m 680 149 l 675 0 l 98 0 q 106 462 106 205 q 98 883 106 709 l 648 883 l 641 734 q 272 745 437 745 q 279 523 279 651 q 582 530 420 523 l 582 389 q 279 395 423 395 q 284 138 279 258 q 680 149 470 138 z "},"Ж":{"ha":1185,"x_min":30,"x_max":1155,"o":"m 1155 0 l 941 0 q 924 46 936 10 q 822 318 870 252 q 688 384 774 384 q 677 381 682 384 q 684 0 677 185 l 500 0 q 508 381 508 185 q 489 384 496 384 q 356 318 404 384 q 254 46 308 252 q 236 0 248 23 l 30 0 q 60 75 39 22 q 184 364 135 296 q 323 461 233 432 l 323 469 q 185 575 235 506 q 89 809 136 644 q 62 883 81 839 l 250 883 q 266 841 256 875 q 497 516 325 516 q 508 517 503 516 q 500 883 508 682 l 684 883 q 677 517 677 682 q 689 516 683 516 q 924 841 865 516 q 939 883 928 865 l 1122 883 q 1096 809 1114 862 q 1000 578 1051 650 q 862 469 949 505 l 862 461 q 1001 364 952 432 q 1125 75 1049 296 q 1155 0 1135 46 z "},"З":{"ha":753,"x_min":37,"x_max":708,"o":"m 708 254 q 601 46 708 117 q 307 -24 493 -24 q 37 18 158 -24 l 56 170 q 307 116 178 116 q 472 146 420 116 q 525 249 525 176 q 261 385 525 385 q 146 381 210 385 l 163 522 q 283 518 225 518 q 489 648 489 518 q 443 730 489 701 q 322 760 397 760 q 80 720 180 760 l 98 863 q 381 898 217 898 q 591 844 510 898 q 671 690 671 789 q 511 489 671 546 l 511 479 q 651 409 593 465 q 708 254 708 353 z "},"И":{"ha":942,"x_min":98,"x_max":844,"o":"m 844 0 l 652 0 q 662 338 662 112 q 669 597 662 430 l 659 597 q 430 293 635 536 q 244 0 244 72 l 98 0 q 109 419 109 180 q 98 883 109 663 l 289 883 q 279 511 279 711 q 270 287 279 421 l 280 287 q 514 594 309 354 q 696 883 696 808 l 844 883 q 834 419 834 663 q 844 0 834 180 z "},"Й":{"ha":942,"x_min":98,"x_max":844,"o":"m 844 0 l 652 0 q 662 338 662 112 q 669 597 662 430 l 659 597 q 430 293 635 536 q 244 0 244 72 l 98 0 q 109 419 109 180 q 98 883 109 663 l 289 883 q 279 511 279 711 q 270 287 279 421 l 280 287 q 514 594 309 354 q 696 883 696 808 l 844 883 q 834 419 834 663 q 844 0 834 180 m 732 1128 q 491 919 732 919 q 300 985 362 919 q 248 1128 248 1040 l 399 1146 q 492 1017 399 1017 q 571 1050 553 1017 q 588 1146 588 1083 l 732 1128 z "},"К":{"ha":828,"x_min":98,"x_max":798,"o":"m 798 0 l 585 0 q 567 46 579 10 q 463 322 511 260 q 323 384 414 384 q 281 381 297 384 q 289 0 281 185 l 98 0 q 106 462 106 205 q 98 883 106 709 l 289 883 q 281 517 281 682 q 323 516 309 516 q 567 841 509 516 q 583 883 571 865 l 766 883 q 739 809 758 862 q 643 578 694 650 q 505 469 592 505 l 505 461 q 644 364 595 432 q 768 75 692 296 q 798 0 778 46 z "},"Л":{"ha":852,"x_min":6,"x_max":754,"o":"m 754 883 q 746 471 746 703 q 754 0 746 214 l 564 0 q 572 453 572 195 q 568 749 572 632 l 462 749 q 436 637 452 696 q 399 514 420 577 q 352 389 378 452 q 297 269 327 327 q 235 161 268 211 q 166 73 202 111 q 92 13 130 35 q 13 -12 53 -9 l 6 158 q 63 197 32 163 q 128 288 94 232 q 194 416 161 344 q 256 567 227 488 q 308 727 285 646 q 342 883 330 808 l 754 883 z "},"М":{"ha":1200,"x_min":67,"x_max":1117,"o":"m 1117 0 l 920 0 q 905 389 920 115 q 890 730 891 663 l 880 730 q 844 580 873 690 q 735 256 815 470 q 654 0 654 42 l 505 0 q 428 258 505 43 q 327 559 351 473 q 289 730 303 646 l 279 730 q 262 367 278 646 q 246 0 246 88 l 67 0 q 116 408 67 20 q 165 883 165 795 l 428 883 q 511 548 428 807 q 594 216 594 289 l 604 216 q 699 549 604 290 q 793 883 793 808 l 1054 883 q 1085 382 1054 743 q 1117 0 1117 22 z "},"Н":{"ha":907,"x_min":98,"x_max":810,"o":"m 810 0 l 618 0 q 625 389 625 224 l 283 389 q 290 0 283 241 l 98 0 q 106 462 106 224 q 98 883 106 703 l 290 883 q 281 530 281 692 l 626 530 q 618 883 626 673 l 810 883 q 800 462 800 711 q 810 0 800 202 z "},"О":{"ha":968,"x_min":52,"x_max":916,"o":"m 916 458 q 788 113 916 250 q 473 -24 661 -24 q 173 101 294 -24 q 52 421 52 227 q 180 766 52 629 q 495 903 307 903 q 795 778 674 903 q 916 458 916 652 m 728 438 q 656 668 728 580 q 477 756 583 756 q 309 667 378 756 q 239 443 239 578 q 312 213 239 302 q 491 125 385 125 q 659 214 590 125 q 728 438 728 303 z "},"П":{"ha":872,"x_min":98,"x_max":774,"o":"m 774 0 l 585 0 q 591 448 591 193 q 602 741 591 594 l 269 741 q 281 456 281 600 q 288 0 281 199 l 98 0 q 106 465 106 234 q 98 883 106 687 l 774 883 q 766 465 766 696 q 774 0 766 229 z "},"Р":{"ha":772,"x_min":98,"x_max":742,"o":"m 742 652 q 622 412 742 490 q 326 335 501 335 q 281 336 294 335 q 288 0 281 209 l 98 0 q 106 462 106 196 q 98 883 106 706 l 216 883 q 312 885 241 883 q 435 887 383 887 q 653 829 564 887 q 742 652 742 770 m 567 614 q 374 760 567 760 q 273 749 326 760 q 280 459 280 621 q 319 458 297 458 q 567 614 567 458 z "},"С":{"ha":752,"x_min":52,"x_max":730,"o":"m 730 161 l 718 5 q 528 -18 622 -18 q 174 110 296 -18 q 52 422 52 239 q 181 754 52 613 q 536 895 311 895 q 692 876 618 895 l 669 720 q 515 745 589 745 q 311 658 378 745 q 243 446 243 571 q 323 225 243 319 q 547 132 403 132 q 730 161 631 132 z "},"Т":{"ha":730,"x_min":15,"x_max":715,"o":"m 715 883 l 711 737 q 455 747 575 747 q 454 462 454 619 q 461 0 454 218 l 271 0 q 280 462 280 216 q 277 747 280 616 q 15 736 182 747 l 20 883 l 715 883 z "},"У":{"ha":740,"x_min":16,"x_max":755,"o":"m 755 883 q 668 615 755 845 q 498 237 581 385 q 328 31 416 89 q 81 -27 241 -27 l 68 115 q 249 141 191 115 q 340 250 307 167 q 178 582 340 295 q 16 883 16 868 l 230 883 q 329 653 230 864 q 427 414 427 443 l 435 414 q 572 883 572 798 l 755 883 z "},"Ф":{"ha":990,"x_min":45,"x_max":945,"o":"m 945 488 q 854 256 945 349 q 576 142 763 162 q 581 0 578 62 l 410 0 q 414 142 414 91 q 134 243 223 157 q 45 461 45 328 q 136 692 45 600 q 414 805 227 785 l 410 918 l 581 918 q 576 805 579 898 q 856 705 767 789 q 945 488 945 621 m 419 461 q 417 696 419 557 q 208 471 208 671 q 417 251 208 282 q 419 461 419 372 m 782 475 q 573 696 782 665 q 571 486 571 576 q 573 251 571 391 q 782 475 782 276 z "},"Х":{"ha":816,"x_min":7,"x_max":808,"o":"m 808 0 l 581 0 q 504 174 581 24 q 396 366 429 321 l 385 366 q 288 178 356 326 q 217 0 217 27 l 7 0 q 139 229 7 20 q 309 473 271 437 l 309 484 q 164 690 272 526 q 53 883 53 861 l 271 883 q 334 737 271 861 q 423 582 397 613 l 434 582 q 519 737 459 614 q 579 883 579 861 l 780 883 q 664 695 780 864 q 515 494 547 526 l 515 484 q 684 230 559 435 q 808 0 808 25 z "},"Ц":{"ha":897,"x_min":98,"x_max":882,"o":"m 882 138 q 866 -52 882 105 q 850 -281 850 -210 l 710 -281 q 708 0 710 -195 l 98 0 q 106 437 106 205 q 98 883 106 673 l 288 883 q 280 449 280 704 l 280 138 l 573 138 l 573 443 q 566 883 573 700 l 756 883 q 748 437 748 667 q 753 138 748 277 l 882 138 z "},"Ч":{"ha":829,"x_min":60,"x_max":754,"o":"m 754 0 l 562 0 q 572 374 572 159 q 372 355 499 355 q 136 428 206 355 q 65 702 65 501 q 60 883 65 781 l 250 883 q 241 748 241 810 q 282 537 241 587 q 431 487 322 487 q 572 505 516 487 q 562 883 572 734 l 754 883 q 745 462 745 712 q 754 0 745 206 z "},"Ш":{"ha":1238,"x_min":98,"x_max":1140,"o":"m 1140 0 l 98 0 q 106 437 106 205 q 98 883 106 673 l 286 883 q 278 449 278 704 l 278 138 l 532 138 l 532 443 q 525 883 532 705 l 713 883 q 706 449 706 704 l 706 138 l 958 138 l 958 443 q 951 883 958 700 l 1140 883 q 1132 437 1132 671 q 1140 0 1132 208 z "},"Щ":{"ha":1284,"x_min":98,"x_max":1270,"o":"m 1270 138 q 1254 -54 1270 102 q 1238 -281 1238 -210 l 1098 -281 q 1096 0 1098 -195 l 98 0 q 106 437 106 205 q 98 883 106 673 l 286 883 q 278 449 278 704 l 278 138 l 532 138 l 532 443 q 525 883 532 705 l 713 883 q 706 449 706 704 l 706 138 l 958 138 l 958 443 q 951 883 958 700 l 1140 883 q 1132 437 1132 671 q 1137 138 1132 330 l 1270 138 z "},"Ъ":{"ha":955,"x_min":15,"x_max":918,"o":"m 918 290 q 803 70 918 144 q 501 -4 689 -4 q 270 0 420 -4 q 279 462 279 208 q 290 746 279 633 q 15 738 182 746 l 20 883 l 464 883 q 453 557 459 839 q 539 561 502 561 q 918 290 918 561 m 735 283 q 523 428 735 428 q 453 425 491 428 q 457 129 453 283 q 517 123 494 123 q 735 283 735 123 z "},"Ы":{"ha":1102,"x_min":98,"x_max":1004,"o":"m 739 287 q 625 70 739 143 q 323 -4 511 -4 q 98 0 246 -4 q 106 462 106 208 q 98 883 106 730 l 290 883 q 281 557 286 839 q 360 561 324 561 q 631 497 524 561 q 739 287 739 433 m 1004 0 l 812 0 q 821 462 821 210 q 812 883 821 709 l 1004 883 q 995 462 995 712 q 1004 0 995 206 m 557 280 q 493 394 557 359 q 344 428 429 428 q 281 425 310 428 q 285 129 281 283 q 338 123 313 123 q 557 280 557 123 z "},"Ь":{"ha":805,"x_min":98,"x_max":768,"o":"m 768 287 q 651 68 768 140 q 344 -4 534 -4 q 98 0 272 -4 q 106 462 106 208 q 98 883 106 730 l 290 883 q 281 557 286 839 q 382 561 342 561 q 768 287 768 561 m 585 280 q 366 428 585 428 q 281 425 326 428 q 286 129 281 283 q 360 123 327 123 q 585 280 585 123 z "},"Э":{"ha":779,"x_min":37,"x_max":726,"o":"m 726 454 q 611 112 726 243 q 271 -18 496 -18 q 37 1 165 -18 l 56 155 q 285 125 173 125 q 477 198 413 125 q 547 393 542 271 q 184 389 387 393 l 184 530 q 547 524 391 524 q 271 751 517 751 q 52 719 170 751 l 67 872 q 289 895 178 895 q 726 454 726 895 z "},"Ю":{"ha":1276,"x_min":98,"x_max":1224,"o":"m 1224 458 q 1108 111 1224 247 q 799 -24 991 -24 q 508 97 609 -24 q 400 399 408 218 l 281 399 q 290 0 282 176 l 98 0 q 106 462 106 210 q 98 883 106 709 l 290 883 q 281 527 286 819 l 410 527 q 547 802 437 700 q 821 903 656 903 q 1114 779 1004 903 q 1224 458 1224 654 m 1041 438 q 975 669 1041 581 q 804 758 909 758 q 642 669 705 758 q 578 442 578 580 q 644 210 578 297 q 817 123 709 123 q 979 212 917 123 q 1041 438 1041 302 z "},"Я":{"ha":827,"x_min":15,"x_max":730,"o":"m 730 0 l 541 0 q 547 354 547 158 q 464 356 512 356 q 334 298 380 356 q 231 41 288 240 q 213 0 224 16 l 15 0 q 51 89 25 22 q 156 330 113 271 q 269 407 198 388 l 269 418 q 69 639 69 459 q 414 887 69 887 q 530 885 465 887 q 612 883 595 883 l 730 883 q 720 461 720 708 q 730 0 720 205 m 547 485 q 541 749 547 627 q 402 759 462 759 q 242 640 242 759 q 471 483 242 483 q 547 485 513 483 z "},"Ѓ":{"ha":676,"x_min":98,"x_max":661,"o":"m 661 883 l 656 728 q 269 739 438 739 q 280 416 280 631 q 286 0 280 134 l 98 0 q 106 439 106 184 q 98 883 106 736 l 661 883 m 620 1146 q 530 1055 620 1138 q 433 960 439 971 l 314 960 q 368 1055 314 971 q 422 1146 422 1139 l 620 1146 z "},"Ґ":{"ha":668,"x_min":98,"x_max":653,"o":"m 653 732 q 269 742 438 742 q 280 419 280 635 q 286 0 280 137 l 98 0 q 106 439 106 184 q 98 883 106 736 l 517 883 q 530 1065 530 1005 l 650 1065 q 651 898 650 1015 q 653 732 653 781 z "},"Ђ":{"ha":892,"x_min":15,"x_max":854,"o":"m 854 275 q 759 62 854 135 q 506 -11 664 -11 l 492 117 q 675 264 675 117 q 479 398 675 398 q 424 391 450 398 q 430 0 424 250 l 241 0 q 250 462 250 218 q 246 747 250 628 q 15 736 151 747 l 20 883 l 695 883 l 690 737 q 427 747 553 747 q 424 526 424 671 q 494 532 455 532 q 854 275 854 532 z "},"Є":{"ha":771,"x_min":52,"x_max":734,"o":"m 734 159 l 722 5 q 486 -18 574 -18 q 52 422 52 -18 q 165 764 52 632 q 505 895 278 895 q 721 876 610 895 l 698 725 q 488 752 589 752 q 235 526 266 752 q 596 530 387 526 l 596 389 q 237 395 395 395 q 308 192 247 258 q 504 126 369 126 q 734 159 601 126 z "},"Ѕ":{"ha":726,"x_min":52,"x_max":674,"o":"m 674 241 q 293 -24 674 -24 q 52 7 163 -24 l 85 158 q 293 120 195 120 q 449 141 401 120 q 496 212 496 162 q 452 298 496 263 q 295 380 413 330 q 136 480 188 426 q 70 649 70 549 q 156 831 70 766 q 405 897 243 897 q 628 875 538 897 l 603 724 q 405 758 511 758 q 245 672 245 758 q 282 598 245 627 q 424 530 315 574 q 597 427 540 483 q 674 241 674 351 z "},"Ѐ":{"ha":732,"x_min":98,"x_max":680,"o":"m 680 149 l 675 0 l 98 0 q 106 462 106 205 q 98 883 106 709 l 648 883 l 641 734 q 272 745 437 745 q 279 523 279 651 q 582 530 420 523 l 582 389 q 279 395 423 395 q 284 138 279 258 q 680 149 470 138 m 500 960 l 381 960 q 284 1055 374 971 q 194 1146 194 1138 l 391 1146 q 446 1055 391 1139 q 500 960 500 971 z "},"Ё":{"ha":732,"x_min":98,"x_max":680,"o":"m 680 149 l 675 0 l 98 0 q 106 462 106 205 q 98 883 106 709 l 648 883 l 641 734 q 272 745 437 745 q 279 523 279 651 q 582 530 420 523 l 582 389 q 279 395 423 395 q 284 138 279 258 q 680 149 470 138 m 606 1063 q 579 994 606 1023 q 505 964 553 964 q 441 990 464 964 q 418 1051 418 1015 q 446 1119 418 1090 q 522 1148 473 1148 q 584 1123 562 1148 q 606 1063 606 1098 m 338 1063 q 312 994 338 1023 q 237 964 285 964 q 174 990 197 964 q 151 1051 151 1015 q 178 1119 151 1090 q 254 1148 205 1148 q 316 1123 294 1148 q 338 1063 338 1098 z "},"І":{"ha":387,"x_min":98,"x_max":290,"o":"m 290 0 l 98 0 q 106 462 106 210 q 98 883 106 709 l 290 883 q 281 462 281 712 q 290 0 281 206 z "},"Ї":{"ha":387,"x_min":-38,"x_max":417,"o":"m 290 0 l 98 0 q 106 462 106 210 q 98 883 106 709 l 290 883 q 281 462 281 712 q 290 0 281 206 m 417 1063 q 390 994 417 1023 q 315 964 363 964 q 252 990 275 964 q 229 1051 229 1015 q 257 1119 229 1090 q 332 1148 284 1148 q 395 1123 373 1148 q 417 1063 417 1098 m 149 1063 q 122 994 149 1023 q 47 964 96 964 q -15 990 7 964 q -38 1051 -38 1015 q -11 1119 -38 1090 q 64 1148 16 1148 q 127 1123 105 1148 q 149 1063 149 1098 z "},"Ј":{"ha":555,"x_min":7,"x_max":472,"o":"m 472 883 q 464 384 464 681 q 371 63 464 158 q 126 -18 292 -18 q 7 -4 66 -18 l 20 142 q 111 121 65 121 q 239 160 199 121 q 297 370 297 216 q 287 883 297 680 l 472 883 z "},"Ѝ":{"ha":942,"x_min":98,"x_max":844,"o":"m 844 0 l 652 0 q 662 338 662 112 q 669 597 662 430 l 659 597 q 430 293 635 536 q 244 0 244 72 l 98 0 q 109 419 109 180 q 98 883 109 663 l 289 883 q 279 511 279 711 q 270 287 279 421 l 280 287 q 514 594 309 354 q 696 883 696 808 l 844 883 q 834 419 834 663 q 844 0 834 180 m 572 960 l 453 960 q 356 1055 446 971 q 266 1146 266 1138 l 463 1146 q 517 1055 463 1139 q 572 960 572 971 z "},"Ќ":{"ha":828,"x_min":98,"x_max":798,"o":"m 798 0 l 585 0 q 567 46 579 10 q 463 322 511 260 q 323 384 414 384 q 281 381 297 384 q 289 0 281 185 l 98 0 q 106 462 106 205 q 98 883 106 709 l 289 883 q 281 517 281 682 q 323 516 309 516 q 567 841 509 516 q 583 883 571 865 l 766 883 q 739 809 758 862 q 643 578 694 650 q 505 469 592 505 l 505 461 q 644 364 595 432 q 768 75 692 296 q 798 0 778 46 m 666 1146 q 576 1055 666 1138 q 479 960 486 971 l 360 960 q 414 1055 360 971 q 469 1146 469 1139 l 666 1146 z "},"Љ":{"ha":1190,"x_min":6,"x_max":1152,"o":"m 973 264 q 777 398 973 398 q 722 391 748 398 q 727 125 722 250 q 772 120 750 120 q 973 264 973 120 m 1152 275 q 1044 66 1152 136 q 753 -4 937 -4 q 542 0 639 -4 q 549 453 549 195 q 557 749 549 595 l 462 749 q 436 637 452 696 q 399 514 420 577 q 352 389 378 452 q 297 269 327 327 q 235 161 268 211 q 166 73 202 111 q 92 13 130 35 q 13 -12 53 -9 l 6 158 q 63 197 32 163 q 128 288 94 232 q 194 416 161 344 q 256 567 227 488 q 308 727 285 646 q 342 883 330 808 l 731 883 q 722 526 722 733 q 792 532 753 532 q 1152 275 1152 532 z "},"Њ":{"ha":1211,"x_min":98,"x_max":1173,"o":"m 1173 275 q 1065 66 1173 136 q 774 -4 958 -4 q 561 0 660 -4 q 568 389 568 224 l 283 389 q 290 0 283 241 l 98 0 q 106 462 106 224 q 98 883 106 703 l 290 883 q 281 530 281 692 l 569 530 q 560 883 569 673 l 752 883 q 743 526 743 730 q 813 532 774 532 q 1173 275 1173 532 m 994 264 q 798 398 994 398 q 743 391 769 398 q 748 125 743 250 q 793 120 771 120 q 994 264 994 120 z "},"Ћ":{"ha":927,"x_min":15,"x_max":860,"o":"m 860 0 l 669 0 q 675 298 675 123 q 541 398 675 398 q 424 385 464 398 q 430 0 424 250 l 241 0 q 250 462 250 218 q 246 747 250 628 q 15 736 151 747 l 20 883 l 695 883 l 690 737 q 427 747 553 747 q 424 519 424 671 q 569 532 469 532 q 854 336 854 532 q 860 0 854 168 z "},"Ў":{"ha":740,"x_min":16,"x_max":755,"o":"m 755 883 q 668 615 755 845 q 498 237 581 385 q 328 31 416 89 q 81 -27 241 -27 l 68 115 q 249 141 191 115 q 340 250 307 167 q 178 582 340 295 q 16 883 16 868 l 230 883 q 329 653 230 864 q 427 414 427 443 l 435 414 q 572 883 572 798 l 755 883 m 652 1128 q 412 919 652 919 q 220 985 283 919 q 169 1128 169 1040 l 319 1146 q 412 1017 319 1017 q 491 1050 474 1017 q 509 1146 509 1083 l 652 1128 z "},"Џ":{"ha":882,"x_min":98,"x_max":784,"o":"m 784 0 l 528 0 q 511 -281 511 -196 l 374 -281 q 358 0 374 -195 l 98 0 q 106 437 106 205 q 98 883 106 673 l 288 883 q 279 449 279 704 l 279 138 l 602 138 l 602 443 q 594 883 602 700 l 784 883 q 776 437 776 671 q 784 0 776 208 z "},"Ѣ":{"ha":926,"x_min":15,"x_max":889,"o":"m 889 273 q 772 62 889 128 q 462 -4 655 -4 q 244 0 385 -4 q 254 462 254 205 q 250 646 254 591 q 15 635 149 644 l 20 781 l 248 781 q 245 967 248 891 l 437 967 q 434 781 434 924 l 702 781 l 697 635 q 432 646 618 640 q 428 536 427 581 q 498 540 465 540 q 889 273 889 540 m 707 266 q 484 407 707 407 q 427 404 450 407 q 431 129 427 262 q 478 123 453 123 q 707 266 707 123 z "},"Ѳ":{"ha":968,"x_min":52,"x_max":916,"o":"m 916 458 q 788 113 916 250 q 473 -24 661 -24 q 173 101 294 -24 q 52 421 52 227 q 180 766 52 629 q 495 903 307 903 q 795 778 674 903 q 916 458 916 652 m 736 389 l 231 389 q 315 193 243 262 q 492 125 387 125 q 657 195 591 125 q 736 389 724 265 m 734 517 q 646 694 715 633 q 477 756 576 756 q 317 693 382 756 q 233 517 252 630 l 734 517 z "},"Ѵ":{"ha":889,"x_min":7,"x_max":874,"o":"m 430 189 q 459 331 430 232 q 520 507 489 429 q 589 655 551 584 q 671 782 627 727 q 764 871 715 838 q 867 908 814 905 l 874 739 q 813 699 849 734 q 744 608 778 664 q 676 481 710 553 q 612 330 642 409 q 553 151 583 251 q 524 0 524 50 l 307 0 q 157 443 307 50 q 7 883 7 836 l 222 883 q 320 532 222 834 q 418 189 418 232 l 430 189 z "},"а":{"ha":682,"x_min":50,"x_max":627,"o":"m 627 1 l 467 -5 q 456 47 456 24 l 448 47 q 246 -17 373 -17 q 105 30 161 -17 q 50 155 50 77 q 137 324 50 258 q 442 394 224 390 q 444 417 444 406 q 408 514 444 490 q 279 537 373 537 q 79 510 176 537 l 94 635 q 354 667 186 667 q 544 615 477 667 q 610 435 610 564 q 608 331 610 406 q 606 231 606 256 q 627 1 606 90 m 446 142 q 442 300 442 233 q 211 182 211 300 q 313 102 211 102 q 446 142 393 102 z "},"б":{"ha":776,"x_min":50,"x_max":736,"o":"m 736 324 q 630 64 736 155 q 373 -26 523 -26 q 121 83 193 -26 q 50 437 50 193 q 77 656 50 566 q 158 805 103 746 q 298 896 214 864 q 500 939 383 927 q 579 949 536 942 q 680 964 623 956 l 671 812 q 605 804 654 810 q 482 788 556 798 q 369 767 419 780 q 284 727 319 753 q 230 656 250 701 q 208 542 211 612 l 215 542 q 424 631 292 631 q 648 557 560 631 q 736 324 736 482 m 561 303 q 517 449 561 391 q 391 506 473 506 q 212 426 275 506 q 254 171 212 244 q 384 98 296 98 q 513 157 465 98 q 561 303 561 215 z "},"в":{"ha":707,"x_min":60,"x_max":658,"o":"m 658 191 q 571 41 658 87 q 356 -4 484 -4 q 197 -2 296 -4 q 75 0 98 0 q 83 323 83 119 q 60 644 83 507 l 180 644 q 387 652 275 652 q 628 505 628 652 q 519 357 628 401 l 519 347 q 658 191 658 320 m 496 195 q 457 264 496 245 q 332 283 417 283 q 239 279 292 283 q 241 113 239 180 q 364 106 302 106 q 496 195 496 106 m 472 467 q 351 545 472 545 q 234 540 294 545 q 239 380 239 458 q 347 378 302 378 q 472 467 472 378 z "},"г":{"ha":568,"x_min":80,"x_max":555,"o":"m 555 644 l 551 500 q 248 511 503 505 q 252 315 252 395 q 260 0 252 140 l 80 0 q 90 322 90 140 q 80 644 90 503 l 555 644 z "},"д":{"ha":768,"x_min":12,"x_max":757,"o":"m 757 122 q 739 -57 757 95 q 722 -281 722 -209 l 601 -281 q 598 5 601 -195 q 372 9 511 9 q 171 5 264 9 q 136 -281 136 -195 l 16 -281 q 14 -86 16 -218 q 12 122 12 45 l 93 122 q 307 644 151 340 l 519 644 l 642 658 q 633 322 633 526 q 644 122 633 227 l 757 122 m 481 122 q 475 322 475 224 q 470 524 475 428 l 392 524 q 237 122 270 271 l 481 122 z "},"е":{"ha":711,"x_min":47,"x_max":665,"o":"m 665 391 q 661 301 665 357 l 224 294 q 290 166 233 217 q 437 115 346 115 q 654 146 539 115 l 640 14 q 408 -20 547 -20 q 140 79 233 -20 q 47 315 47 177 q 135 566 47 460 q 381 672 224 672 q 595 594 525 672 q 665 391 665 516 m 506 397 q 373 553 506 553 q 222 392 246 553 l 506 397 z "},"ж":{"ha":994,"x_min":28,"x_max":966,"o":"m 966 0 l 785 0 q 768 37 779 9 q 692 219 730 168 q 595 271 653 271 q 574 270 584 271 q 584 0 574 140 l 410 0 q 420 270 420 140 q 393 271 405 271 q 297 219 336 271 q 220 37 258 168 q 203 0 216 20 l 28 0 q 58 75 36 18 q 141 252 98 191 q 248 331 184 312 l 248 338 q 75 587 152 374 q 52 644 66 611 l 224 644 q 240 610 231 635 q 402 380 296 380 q 420 382 413 380 q 411 644 420 545 l 583 644 q 574 382 574 545 q 594 380 583 380 q 758 610 703 380 q 773 644 762 626 l 943 644 q 920 587 937 629 q 746 338 842 374 l 746 331 q 853 252 810 312 q 937 75 897 191 q 966 0 949 39 z "},"з":{"ha":614,"x_min":39,"x_max":572,"o":"m 572 194 q 485 35 572 87 q 251 -18 398 -18 q 39 12 130 -18 l 55 136 q 251 100 142 100 q 406 188 406 100 q 233 275 406 275 q 107 270 161 275 l 120 387 q 234 383 172 383 q 391 469 391 383 q 259 543 391 543 q 64 513 159 543 l 79 636 q 298 667 164 667 q 553 517 553 667 q 441 363 553 407 l 441 352 q 527 309 492 342 q 572 194 572 265 z "},"и":{"ha":751,"x_min":61,"x_max":683,"o":"m 683 0 l 504 0 q 513 269 513 120 q 520 419 513 330 l 510 419 q 349 201 492 368 q 216 0 216 46 l 75 0 q 84 322 84 148 q 61 638 84 518 l 254 658 q 245 399 245 528 q 238 224 245 331 l 248 224 q 402 436 261 267 q 535 638 535 595 l 682 658 q 674 322 674 528 q 683 0 674 159 z "},"й":{"ha":751,"x_min":61,"x_max":683,"o":"m 683 0 l 504 0 q 513 269 513 120 q 520 419 513 330 l 510 419 q 349 201 492 368 q 216 0 216 46 l 75 0 q 84 322 84 148 q 61 638 84 518 l 254 658 q 245 399 245 528 q 238 224 245 331 l 248 224 q 402 436 261 267 q 535 638 535 595 l 682 658 q 674 322 674 528 q 683 0 674 159 m 636 951 q 395 739 636 739 q 204 805 267 739 q 153 949 153 860 l 303 968 q 396 836 303 836 q 475 871 458 836 q 492 968 492 907 l 636 951 z "},"к":{"ha":709,"x_min":62,"x_max":677,"o":"m 677 0 l 495 0 q 479 37 490 9 q 398 222 439 173 q 293 271 356 271 q 248 270 277 271 q 258 0 248 140 l 77 0 q 87 310 87 136 q 62 639 87 506 l 257 657 q 248 382 248 545 q 293 380 277 380 q 469 610 413 380 q 484 644 473 627 l 654 644 q 630 587 647 629 q 456 338 553 374 l 456 331 q 564 252 521 312 q 647 75 607 191 q 677 0 659 39 z "},"л":{"ha":709,"x_min":6,"x_max":633,"o":"m 633 0 l 454 0 q 463 309 463 127 q 457 524 463 415 l 380 524 q 344 399 366 462 q 295 277 322 336 q 235 167 267 218 q 168 76 203 115 q 93 14 132 37 q 13 -12 54 -9 l 6 151 q 48 176 25 155 q 96 232 71 197 q 146 313 121 267 q 195 412 171 359 q 239 525 218 466 q 276 644 260 584 l 509 644 l 633 658 q 624 322 624 526 q 633 0 624 148 z "},"м":{"ha":937,"x_min":48,"x_max":882,"o":"m 882 0 l 707 0 q 705 288 707 106 q 703 514 703 470 l 691 514 q 602 267 677 465 q 526 0 526 69 l 372 0 q 316 238 372 77 q 229 514 260 399 l 218 514 q 210 268 218 469 q 203 0 203 66 l 48 0 q 73 289 48 20 q 98 644 98 557 l 347 644 q 408 377 347 566 q 468 150 468 188 l 475 150 q 539 378 475 189 q 603 644 603 567 l 855 644 q 869 293 855 557 q 882 0 882 29 z "},"н":{"ha":744,"x_min":62,"x_max":675,"o":"m 675 0 l 496 0 q 505 281 505 121 l 246 281 q 256 0 246 130 l 77 0 q 86 322 86 140 q 62 638 86 503 l 255 658 q 246 403 251 614 l 503 403 q 481 638 501 539 l 674 658 q 666 322 666 526 q 675 0 666 148 z "},"о":{"ha":776,"x_min":47,"x_max":729,"o":"m 729 337 q 624 70 729 166 q 376 -26 519 -26 q 144 61 241 -26 q 47 309 47 149 q 153 577 47 480 q 401 674 258 674 q 632 586 536 674 q 729 337 729 497 m 552 317 q 506 482 552 415 q 386 549 460 549 q 269 486 314 549 q 224 330 224 424 q 270 165 224 232 q 390 98 316 98 q 507 161 462 98 q 552 317 552 223 z "},"п":{"ha":723,"x_min":62,"x_max":654,"o":"m 654 0 l 473 0 q 482 322 482 140 q 481 523 482 418 l 250 523 q 248 322 248 436 q 257 0 248 148 l 77 0 q 86 322 86 140 q 62 638 86 503 l 252 644 l 522 644 l 653 658 q 645 322 645 526 q 654 0 645 148 z "},"р":{"ha":777,"x_min":56,"x_max":730,"o":"m 730 350 q 646 92 730 203 q 416 -20 562 -20 q 267 26 307 -20 l 258 26 q 263 -310 258 -140 l 79 -310 q 91 139 91 -115 q 56 640 91 467 l 229 659 l 239 600 l 250 600 q 448 667 323 667 q 654 573 578 667 q 730 350 730 479 m 549 332 q 507 479 549 418 q 389 541 464 541 q 252 486 295 541 q 262 137 262 296 q 372 104 304 104 q 506 171 463 104 q 549 332 549 237 z "},"с":{"ha":618,"x_min":47,"x_max":589,"o":"m 589 142 l 577 13 q 410 -20 515 -20 q 141 78 235 -20 q 47 313 47 176 q 145 561 47 455 q 414 667 243 667 q 563 648 498 667 l 540 510 q 400 536 477 536 q 271 478 318 536 q 223 335 223 420 q 279 179 223 243 q 439 115 336 115 q 589 142 499 115 z "},"т":{"ha":642,"x_min":35,"x_max":608,"o":"m 608 644 l 604 507 q 408 517 505 517 q 406 318 406 421 q 416 0 406 144 l 233 0 q 243 318 243 136 q 239 517 243 418 q 35 507 141 517 l 39 644 l 608 644 z "},"у":{"ha":680,"x_min":24,"x_max":656,"o":"m 656 644 q 559 365 656 600 q 423 -4 449 94 q 304 -238 379 -174 q 89 -300 233 -300 l 75 -170 q 214 -122 159 -170 q 268 6 268 -74 q 146 359 268 87 q 24 644 24 631 l 233 644 q 295 414 233 621 q 357 162 357 208 l 366 162 q 422 394 366 201 q 478 644 478 587 l 656 644 z "},"ф":{"ha":922,"x_min":43,"x_max":877,"o":"m 877 351 q 533 -16 877 33 q 547 -310 533 -127 l 378 -310 q 387 -16 387 -140 q 131 63 218 -4 q 43 296 43 131 q 133 561 43 477 q 387 664 222 644 q 372 926 387 787 l 547 947 q 533 664 533 804 q 790 584 703 652 q 877 351 877 517 m 388 296 q 387 556 388 408 q 255 502 300 547 q 210 330 210 456 q 254 156 210 204 q 387 92 298 108 q 388 296 388 207 m 711 318 q 666 491 711 441 q 533 556 621 541 l 533 92 q 711 318 711 122 z "},"х":{"ha":715,"x_min":23,"x_max":694,"o":"m 694 0 l 481 0 q 426 122 481 18 q 345 260 373 220 l 336 260 q 262 124 313 229 q 212 0 212 19 l 23 0 q 121 159 23 16 q 258 340 219 301 l 258 351 q 140 503 225 386 q 49 644 49 629 l 260 644 q 305 539 260 627 q 373 422 349 454 l 381 422 q 444 537 402 449 q 486 644 486 626 l 667 644 q 577 509 667 631 q 458 359 486 386 l 458 349 q 593 165 496 307 q 694 0 694 20 z "},"ц":{"ha":769,"x_min":62,"x_max":746,"o":"m 746 122 q 729 -57 746 94 q 711 -281 711 -209 l 589 -281 q 587 0 589 -195 l 77 0 q 86 322 86 140 q 62 638 86 503 l 258 658 q 250 322 250 526 q 247 122 250 233 l 467 122 q 464 322 464 231 q 441 638 464 503 l 635 658 q 627 322 627 526 q 633 122 627 217 l 746 122 z "},"ч":{"ha":681,"x_min":33,"x_max":606,"o":"m 606 0 l 425 0 q 434 262 434 113 q 245 228 366 228 q 90 286 136 228 q 44 510 44 343 q 33 640 44 573 l 212 659 q 204 535 204 595 q 231 391 204 427 q 330 355 258 355 q 434 374 397 355 q 412 638 432 526 l 606 658 q 597 322 597 526 q 606 0 597 148 z "},"ш":{"ha":1050,"x_min":60,"x_max":985,"o":"m 985 0 l 74 0 q 83 322 83 140 q 60 638 83 503 l 248 658 q 240 322 240 526 q 234 122 240 233 l 447 122 q 451 322 451 227 q 428 638 451 503 l 616 658 q 608 322 608 526 q 612 122 608 233 l 824 122 q 818 322 818 231 q 795 638 818 503 l 983 658 q 975 322 975 528 q 985 0 975 159 z "},"щ":{"ha":1118,"x_min":60,"x_max":1101,"o":"m 1101 122 q 1083 -58 1101 92 q 1065 -281 1065 -209 l 943 -281 q 941 0 943 -195 l 74 0 q 83 322 83 140 q 60 638 83 503 l 249 658 q 241 322 241 526 q 234 122 241 233 l 447 122 q 451 322 451 227 q 428 638 451 503 l 616 658 q 608 322 608 526 q 612 122 608 233 l 825 122 q 819 322 819 231 q 795 638 819 503 l 984 658 q 975 322 975 526 q 981 122 975 213 l 1101 122 z "},"ъ":{"ha":800,"x_min":18,"x_max":767,"o":"m 767 212 q 684 51 767 106 q 485 -4 601 -4 q 342 -2 437 -4 q 222 0 248 0 q 229 322 229 140 q 239 525 229 395 q 18 510 115 510 l 22 643 q 413 658 208 643 q 391 413 402 612 q 465 421 433 421 q 767 212 767 421 m 602 210 q 563 287 602 260 q 465 313 524 313 q 391 307 437 313 q 393 110 391 209 q 479 104 437 104 q 602 210 602 104 z "},"ы":{"ha":919,"x_min":64,"x_max":848,"o":"m 612 212 q 530 51 612 106 q 332 -4 448 -4 q 195 -2 284 -4 q 79 0 105 0 q 87 322 87 140 q 64 638 87 503 l 254 658 q 247 413 251 625 q 313 421 281 421 q 612 212 612 421 m 848 0 l 669 0 q 678 322 678 140 q 655 638 678 503 l 848 658 q 839 322 839 526 q 848 0 839 148 m 447 210 q 410 287 447 260 q 313 313 372 313 q 247 307 285 313 q 250 110 247 209 q 326 104 285 104 q 447 210 447 104 z "},"ь":{"ha":665,"x_min":61,"x_max":636,"o":"m 636 212 q 555 52 636 109 q 354 -4 474 -4 q 204 -2 306 -4 q 77 0 102 0 q 84 322 84 140 q 61 638 84 503 l 252 658 q 245 413 250 625 q 331 421 295 421 q 636 212 636 421 m 471 210 q 432 287 471 260 q 331 313 393 313 q 245 307 300 313 q 248 110 245 209 q 341 104 294 104 q 471 210 471 104 z "},"э":{"ha":642,"x_min":37,"x_max":595,"o":"m 595 336 q 512 78 595 175 q 246 -20 428 -20 q 37 2 132 -20 l 58 140 q 258 105 149 105 q 436 276 425 105 q 142 267 302 276 l 146 401 q 436 392 307 392 q 251 539 404 539 q 58 508 158 539 l 71 637 q 278 667 156 667 q 595 336 595 667 z "},"ю":{"ha":1057,"x_min":62,"x_max":1010,"o":"m 1010 337 q 912 71 1010 168 q 670 -26 814 -26 q 460 52 544 -26 q 365 271 376 130 l 245 271 q 254 0 246 123 l 77 0 q 86 322 86 140 q 62 638 86 503 l 253 658 q 245 399 250 613 l 370 399 q 485 602 397 530 q 694 674 573 674 q 920 585 831 674 q 1010 337 1010 496 m 837 317 q 796 483 837 416 q 680 549 755 549 q 566 487 606 549 q 526 330 526 425 q 567 164 526 231 q 684 98 608 98 q 797 160 757 98 q 837 317 837 222 z "},"я":{"ha":728,"x_min":35,"x_max":654,"o":"m 654 0 l 475 0 q 481 252 481 122 q 399 256 439 256 q 295 218 326 256 q 206 0 263 179 l 35 0 q 128 224 90 165 q 218 295 165 283 l 218 305 q 70 468 70 340 q 136 608 70 562 q 311 654 203 654 q 535 646 398 654 l 654 659 q 646 323 646 507 q 654 0 646 119 m 481 365 q 477 536 481 463 q 332 542 403 542 q 235 458 235 542 q 378 362 235 362 q 481 365 416 362 z "},"ѓ":{"ha":568,"x_min":80,"x_max":555,"o":"m 555 644 l 551 500 q 248 511 503 505 q 252 315 252 395 q 260 0 252 140 l 80 0 q 90 322 90 140 q 80 644 90 503 l 555 644 m 551 956 q 458 848 551 948 q 364 736 364 747 l 245 736 q 307 848 245 747 q 368 956 368 949 l 551 956 z "},"ґ":{"ha":572,"x_min":80,"x_max":558,"o":"m 558 509 q 248 521 427 521 q 252 322 252 402 q 260 0 252 148 l 80 0 q 90 322 90 140 q 80 644 90 503 l 426 644 q 443 838 443 797 l 555 838 q 556 677 555 804 q 558 509 558 550 z "},"ђ":{"ha":770,"x_min":-10,"x_max":702,"o":"m 702 245 q 614 -128 702 12 q 374 -313 526 -268 l 340 -201 q 480 -60 432 -170 q 528 201 528 49 q 387 469 528 469 q 245 417 291 469 q 252 0 245 129 l 73 0 q 81 504 81 210 q 75 721 81 648 l 74 743 l -10 743 l -6 840 l 68 840 l 60 954 l 250 964 l 245 840 l 464 840 l 458 743 l 243 743 q 239 528 239 600 l 250 528 q 448 605 321 605 q 639 504 576 605 q 702 245 702 403 z "},"є":{"ha":640,"x_min":47,"x_max":603,"o":"m 603 141 l 589 12 q 378 -20 500 -20 q 47 313 47 -20 q 132 571 47 475 q 397 667 216 667 q 581 646 510 667 l 561 512 q 381 540 490 540 q 210 390 239 540 q 513 398 345 392 l 509 268 q 210 277 432 272 q 263 154 219 195 q 406 113 307 113 q 603 141 496 113 z "},"ѕ":{"ha":583,"x_min":43,"x_max":536,"o":"m 536 185 q 235 -18 536 -18 q 43 5 125 -18 l 66 139 q 235 109 151 109 q 348 122 317 109 q 380 168 380 136 q 266 262 380 217 q 121 339 166 301 q 58 469 58 392 q 125 614 58 559 q 321 669 193 669 q 509 648 441 669 l 486 513 q 321 543 410 543 q 212 488 212 543 q 235 442 212 459 q 330 398 258 425 q 473 324 428 362 q 536 185 536 270 z "},"ѐ":{"ha":711,"x_min":47,"x_max":665,"o":"m 665 391 q 661 301 665 357 l 224 294 q 290 166 233 217 q 437 115 346 115 q 654 146 539 115 l 640 14 q 408 -20 547 -20 q 140 79 233 -20 q 47 315 47 177 q 135 566 47 460 q 381 672 224 672 q 595 594 525 672 q 665 391 665 516 m 506 397 q 373 553 506 553 q 222 392 246 553 l 506 397 m 457 736 l 338 736 q 245 848 338 747 q 151 956 151 948 l 335 956 q 396 848 335 949 q 457 736 457 747 z "},"ё":{"ha":711,"x_min":47,"x_max":665,"o":"m 665 391 q 661 301 665 357 l 224 294 q 290 166 233 217 q 437 115 346 115 q 654 146 539 115 l 640 14 q 408 -20 547 -20 q 140 79 233 -20 q 47 315 47 177 q 135 566 47 460 q 381 672 224 672 q 595 594 525 672 q 665 391 665 516 m 506 397 q 373 553 506 553 q 222 392 246 553 l 506 397 m 606 848 q 579 780 606 809 q 504 750 552 750 q 440 775 463 750 q 418 837 418 801 q 445 905 418 876 q 521 934 473 934 q 584 909 562 934 q 606 848 606 884 m 338 848 q 311 780 338 809 q 236 750 284 750 q 173 775 196 750 q 151 837 151 801 q 178 905 151 876 q 253 934 205 934 q 316 909 294 934 q 338 848 338 884 z "},"і":{"ha":346,"x_min":72,"x_max":299,"o":"m 268 0 l 85 0 q 95 322 95 140 q 72 638 95 503 l 267 658 q 258 322 258 526 q 268 0 258 148 m 299 849 q 268 768 299 803 q 180 734 236 734 q 105 764 132 734 q 79 836 79 793 q 110 916 79 882 q 199 949 142 949 q 273 920 247 949 q 299 849 299 890 z "},"ї":{"ha":346,"x_min":-48,"x_max":407,"o":"m 268 0 l 85 0 q 95 322 95 140 q 72 638 95 503 l 267 658 q 258 322 258 526 q 268 0 258 148 m 407 848 q 380 780 407 809 q 305 750 353 750 q 242 775 264 750 q 219 837 219 801 q 247 905 219 876 q 322 934 274 934 q 385 909 363 934 q 407 848 407 884 m 139 848 q 112 780 139 809 q 37 750 85 750 q -25 775 -3 750 q -48 837 -48 801 q -21 905 -48 876 q 54 934 6 934 q 117 909 95 934 q 139 848 139 884 z "},"ј":{"ha":346,"x_min":14,"x_max":297,"o":"m 267 659 q 258 250 258 453 q 260 105 258 197 q 263 -19 263 12 q 63 -309 263 -269 l 14 -214 q 79 -101 62 -176 q 96 215 96 -26 q 72 640 96 488 l 267 659 m 297 850 q 265 769 297 804 q 177 734 233 734 q 103 764 130 734 q 76 836 76 794 q 108 916 76 882 q 197 950 140 950 q 271 921 245 950 q 297 850 297 891 z "},"ѝ":{"ha":751,"x_min":61,"x_max":683,"o":"m 683 0 l 504 0 q 513 269 513 120 q 520 419 513 330 l 510 419 q 349 201 492 368 q 216 0 216 46 l 75 0 q 84 322 84 148 q 61 638 84 518 l 254 658 q 245 399 245 528 q 238 224 245 331 l 248 224 q 402 436 261 267 q 535 638 535 595 l 682 658 q 674 322 674 528 q 683 0 674 159 m 467 736 l 348 736 q 254 848 348 747 q 161 956 161 948 l 345 956 q 406 848 345 949 q 467 736 467 747 z "},"ќ":{"ha":709,"x_min":62,"x_max":677,"o":"m 677 0 l 495 0 q 479 37 490 9 q 398 222 439 173 q 293 271 356 271 q 248 270 277 271 q 258 0 248 140 l 77 0 q 87 310 87 136 q 62 639 87 506 l 257 657 q 248 382 248 545 q 293 380 277 380 q 469 610 413 380 q 484 644 473 627 l 654 644 q 630 587 647 629 q 456 338 553 374 l 456 331 q 564 252 521 312 q 647 75 607 191 q 677 0 659 39 m 595 956 q 501 848 595 948 q 408 736 408 747 l 289 736 q 350 848 289 747 q 411 956 411 949 l 595 956 z "},"љ":{"ha":980,"x_min":6,"x_max":952,"o":"m 791 210 q 753 287 791 260 q 657 313 716 313 q 596 307 629 313 q 599 110 596 209 q 670 104 629 104 q 791 210 791 104 m 952 212 q 873 52 952 109 q 666 -4 794 -4 q 541 -2 625 -4 q 432 0 458 0 q 437 322 437 140 q 441 524 437 425 l 380 524 q 344 399 366 462 q 295 277 322 336 q 235 167 267 218 q 168 76 203 115 q 93 14 132 37 q 13 -12 54 -9 l 6 151 q 48 176 25 155 q 96 232 71 197 q 146 313 121 267 q 195 412 171 359 q 239 525 218 466 q 276 644 260 584 l 483 644 l 603 658 q 596 413 600 625 q 654 421 621 421 q 952 212 952 421 z "},"њ":{"ha":1027,"x_min":62,"x_max":998,"o":"m 998 212 q 917 52 998 109 q 718 -4 837 -4 q 587 -2 670 -4 q 477 0 503 0 q 481 281 481 121 l 245 281 q 254 0 245 130 l 77 0 q 86 322 86 140 q 62 638 86 503 l 254 658 q 245 403 250 614 l 479 403 q 458 638 477 539 l 648 658 q 642 413 646 625 q 699 421 667 421 q 998 212 998 421 m 836 210 q 799 287 836 260 q 703 313 762 313 q 642 307 674 313 q 644 110 642 209 q 715 104 674 104 q 836 210 836 104 z "}}}
